Namdhinggo-Italic.ufo
<glyph name="semicolon" format="2">
  <advance width="415"/>
  <unicode hex="003B"/>
  <outline>
    <contour>
      <point x="346" y="60" type="curve" smooth="yes"/>
      <point x="346" y="132"/>
      <point x="322" y="180"/>
      <point x="273" y="203" type="curve"/>
      <point x="252" y="204"/>
      <point x="217" y="194"/>
      <point x="167" y="173" type="curve" smooth="yes"/>
      <point x="118" y="153"/>
      <point x="88" y="136"/>
      <point x="78" y="123" type="curve"/>
      <point x="92" y="83" type="line"/>
      <point x="163" y="86"/>
      <point x="198" y="59"/>
      <point x="198" y="1" type="curve" smooth="yes"/>
      <point x="198" y="-88"/>
      <point x="168" y="-167"/>
      <point x="107" y="-237" type="curve"/>
      <point x="146" y="-269" type="line"/>
      <point x="205" y="-225"/>
      <point x="254" y="-170"/>
      <point x="293" y="-103" type="curve" smooth="yes"/>
      <point x="328" y="-42"/>
      <point x="346" y="13"/>
    </contour>
    <contour>
      <point x="315" y="679" type="curve" smooth="yes"/>
      <point x="315" y="746"/>
      <point x="286" y="779"/>
      <point x="228" y="779" type="curve" smooth="yes"/>
      <point x="195" y="779"/>
      <point x="166" y="765"/>
      <point x="142" y="736" type="curve" smooth="yes"/>
      <point x="118" y="708"/>
      <point x="106" y="674"/>
      <point x="106" y="635" type="curve" smooth="yes"/>
      <point x="106" y="570"/>
      <point x="135" y="537"/>
      <point x="194" y="537" type="curve" smooth="yes"/>
      <point x="228" y="537"/>
      <point x="257" y="551"/>
      <point x="280" y="578" type="curve" smooth="yes"/>
      <point x="303" y="605"/>
      <point x="315" y="639"/>
    </contour>
  </outline>
</glyph>
<glyph name="question" format="2">
  <advance width="782"/>
  <unicode hex="003F"/>
  <outline>
    <contour>
      <point x="712" y="969" type="curve" smooth="yes"/>
      <point x="712" y="1122"/>
      <point x="603" y="1228"/>
      <point x="443" y="1228" type="curve" smooth="yes"/>
      <point x="259" y="1228"/>
      <point x="71" y="1120"/>
      <point x="71" y="930" type="curve" smooth="yes"/>
      <point x="71" y="914"/>
      <point x="71" y="904"/>
      <point x="72" y="899" type="curve"/>
      <point x="95" y="872" type="line"/>
      <point x="148" y="877"/>
      <point x="202" y="889"/>
      <point x="237" y="906" type="curve"/>
      <point x="229" y="925"/>
      <point x="225" y="942"/>
      <point x="225" y="957" type="curve" smooth="yes"/>
      <point x="225" y="1059"/>
      <point x="279" y="1143"/>
      <point x="373" y="1143" type="curve" smooth="yes"/>
      <point x="497" y="1143"/>
      <point x="555" y="1074"/>
      <point x="555" y="929" type="curve" smooth="yes"/>
      <point x="555" y="791"/>
      <point x="305" y="592"/>
      <point x="314" y="429" type="curve" smooth="yes"/>
      <point x="320" y="325" type="line"/>
      <point x="343" y="307" type="line"/>
      <point x="365" y="314"/>
      <point x="387" y="326"/>
      <point x="408" y="345" type="curve"/>
      <point x="414" y="429" type="line" smooth="yes"/>
      <point x="430" y="657"/>
      <point x="712" y="738"/>
    </contour>
    <contour>
      <point x="476" y="108" type="curve" smooth="yes"/>
      <point x="476" y="174"/>
      <point x="447" y="207"/>
      <point x="389" y="207" type="curve" smooth="yes"/>
      <point x="355" y="207"/>
      <point x="326" y="193"/>
      <point x="302" y="165" type="curve" smooth="yes"/>
      <point x="278" y="137"/>
      <point x="266" y="103"/>
      <point x="266" y="63" type="curve" smooth="yes"/>
      <point x="266" y="-2"/>
      <point x="295" y="-35"/>
      <point x="354" y="-35" type="curve" smooth="yes"/>
      <point x="388" y="-35"/>
      <point x="417" y="-21"/>
      <point x="440" y="6" type="curve" smooth="yes"/>
      <point x="464" y="34"/>
      <point x="476" y="68"/>
    </contour>
  </outline>
</glyph>
<glyph name="A" format="2">
  <advance width="1181"/>
  <unicode hex="0041"/>
  <anchor x="581" y="0" name="H"/>
  <anchor x="581" y="-97" name="L"/>
  <anchor x="930" y="0" name="O"/>
  <anchor x="581" y="1323" name="U"/>
  <outline>
    <contour>
      <point x="442" y="426" type="line"/>
      <point x="828" y="426" type="line"/>
      <point x="880" y="115" type="line" smooth="yes"/>
      <point x="887" y="72"/>
      <point x="848" y="55"/>
      <point x="748" y="49" type="curve"/>
      <point x="739" y="0" type="line"/>
      <point x="1161" y="0" type="line"/>
      <point x="1170" y="49" type="line"/>
      <point x="1089" y="59"/>
      <point x="1064" y="79"/>
      <point x="1058" y="115" type="curve" smooth="yes"/>
      <point x="861" y="1272" type="line"/>
      <point x="816" y="1254"/>
      <point x="752" y="1225"/>
      <point x="708" y="1187" type="curve"/>
      <point x="169" y="115" type="line" smooth="yes"/>
      <point x="150" y="76"/>
      <point x="97" y="65"/>
      <point x="9" y="49" type="curve"/>
      <point x="0" y="0" type="line"/>
      <point x="403" y="0" type="line"/>
      <point x="412" y="49" type="line"/>
      <point x="310" y="61"/>
      <point x="265" y="75"/>
      <point x="285" y="115" type="curve" smooth="yes"/>
    </contour>
    <contour>
      <point x="813" y="521" type="line"/>
      <point x="490" y="521" type="line"/>
      <point x="733" y="1005" type="line"/>
    </contour>
  </outline>
</glyph>
<glyph name="D" format="2">
  <advance width="1182"/>
  <unicode hex="0044"/>
  <anchor x="536" y="-97" name="L"/>
  <anchor x="536" y="1323" name="U"/>
  <outline>
    <contour>
      <point x="46" y="0" type="line"/>
      <point x="78" y="0" type="line" smooth="yes"/>
      <point x="260" y="0"/>
      <point x="339" y="0"/>
      <point x="487" y="0" type="curve" smooth="yes"/>
      <point x="549" y="0" type="line" smooth="yes"/>
      <point x="784" y="0"/>
      <point x="1097" y="170"/>
      <point x="1097" y="653" type="curve" smooth="yes"/>
      <point x="1097" y="1027"/>
      <point x="874" y="1246"/>
      <point x="510" y="1246" type="curve" smooth="yes"/>
      <point x="355" y="1246"/>
      <point x="152" y="1220"/>
      <point x="36" y="1188" type="curve"/>
      <point x="46" y="1121" type="line"/>
      <point x="86" y="1127"/>
      <point x="133" y="1134"/>
      <point x="182" y="1141" type="curve"/>
      <point x="182" y="108" type="line" smooth="yes"/>
      <point x="182" y="91"/>
      <point x="132" y="67"/>
      <point x="46" y="49" type="curve"/>
    </contour>
    <contour>
      <point x="524" y="87" type="curve" smooth="yes"/>
      <point x="444" y="87"/>
      <point x="358" y="96"/>
      <point x="358" y="153" type="curve" smooth="yes"/>
      <point x="358" y="1156" type="line"/>
      <point x="387" y="1158"/>
      <point x="416" y="1159"/>
      <point x="446" y="1159" type="curve" smooth="yes"/>
      <point x="745" y="1159"/>
      <point x="910" y="957"/>
      <point x="910" y="615" type="curve" smooth="yes"/>
      <point x="910" y="253"/>
      <point x="692" y="87"/>
    </contour>
  </outline>
</glyph>
<glyph name="F" format="2">
  <advance width="950"/>
  <unicode hex="0046"/>
  <anchor x="460" y="-97" name="L"/>
  <anchor x="460" y="1323" name="U"/>
  <outline>
    <contour>
      <point x="876" y="1191" type="curve"/>
      <point x="844" y="1217" type="line"/>
      <point x="336" y="1217" type="line"/>
      <point x="308" y="1122" type="line"/>
      <point x="708" y="1122" type="line" smooth="yes"/>
      <point x="756" y="1122"/>
      <point x="782" y="1079"/>
      <point x="786" y="960" type="curve"/>
      <point x="838" y="960" type="line"/>
      <point x="854" y="1009"/>
      <point x="874" y="1125"/>
    </contour>
    <contour>
      <point x="743" y="681" type="curve"/>
      <point x="713" y="710" type="line"/>
      <point x="289" y="710" type="line"/>
      <point x="243" y="623" type="line"/>
      <point x="465" y="623" type="line" smooth="yes"/>
      <point x="571" y="623"/>
      <point x="616" y="608"/>
      <point x="653" y="570" type="curve"/>
      <point x="680" y="590"/>
      <point x="719" y="643"/>
    </contour>
    <contour>
      <point x="46" y="0" type="line"/>
      <point x="523" y="0" type="line"/>
      <point x="523" y="49" type="line"/>
      <point x="398" y="73"/>
      <point x="358" y="93"/>
      <point x="358" y="108" type="curve" smooth="yes"/>
      <point x="358" y="1129" type="line" smooth="yes"/>
      <point x="358" y="1147"/>
      <point x="428" y="1159"/>
      <point x="497" y="1168" type="curve"/>
      <point x="497" y="1217" type="line"/>
      <point x="46" y="1217" type="line"/>
      <point x="46" y="1168" type="line"/>
      <point x="138" y="1150"/>
      <point x="182" y="1123"/>
      <point x="182" y="1108" type="curve" smooth="yes"/>
      <point x="182" y="108" type="line" smooth="yes"/>
      <point x="182" y="91"/>
      <point x="132" y="67"/>
      <point x="46" y="49" type="curve"/>
    </contour>
  </outline>
</glyph>
<glyph name="J" format="2">
  <advance width="612"/>
  <unicode hex="004A"/>
  <anchor x="321" y="-580" name="L"/>
  <anchor x="321" y="1323" name="U"/>
  <outline>
    <contour>
      <point x="547" y="1168" type="curve"/>
      <point x="547" y="1217" type="line"/>
      <point x="51" y="1217" type="line"/>
      <point x="51" y="1168" type="line"/>
      <point x="203" y="1146"/>
      <point x="235" y="1123"/>
      <point x="235" y="1108" type="curve" smooth="yes"/>
      <point x="235" y="123" type="line" smooth="yes"/>
      <point x="235" y="-180"/>
      <point x="149" y="-246"/>
      <point x="82" y="-246" type="curve" smooth="yes"/>
      <point x="33" y="-246"/>
      <point x="-6" y="-235"/>
      <point x="-76" y="-184" type="curve"/>
      <point x="-112" y="-197"/>
      <point x="-201" y="-272"/>
      <point x="-201" y="-296" type="curve" smooth="yes"/>
      <point x="-201" y="-320"/>
      <point x="-111" y="-377"/>
      <point x="-24" y="-377" type="curve" smooth="yes"/>
      <point x="35" y="-377"/>
      <point x="143" y="-340"/>
      <point x="211" y="-284" type="curve" smooth="yes"/>
      <point x="311" y="-202"/>
      <point x="411" y="-107"/>
      <point x="411" y="192" type="curve" smooth="yes"/>
      <point x="411" y="1108" type="line" smooth="yes"/>
      <point x="411" y="1126"/>
      <point x="461" y="1150"/>
    </contour>
  </outline>
</glyph>
<glyph name="K" format="2">
  <advance width="1151"/>
  <unicode hex="004B"/>
  <anchor x="271" y="0" name="H"/>
  <anchor x="595" y="-97" name="L"/>
  <anchor x="573" y="1323" name="U"/>
  <outline>
    <contour>
      <point x="1083" y="1168" type="curve"/>
      <point x="1083" y="1217" type="line"/>
      <point x="674" y="1217" type="line"/>
      <point x="674" y="1168" type="line"/>
      <point x="775" y="1159"/>
      <point x="797" y="1151"/>
      <point x="739" y="1082" type="curve" smooth="yes"/>
      <point x="352" y="621" type="line"/>
      <point x="482" y="621" type="line"/>
      <point x="924" y="1108" type="line" smooth="yes"/>
      <point x="964" y="1151"/>
      <point x="1001" y="1157"/>
    </contour>
    <contour>
      <point x="1144" y="40" type="curve"/>
      <point x="1137" y="89" type="line"/>
      <point x="1072" y="81"/>
      <point x="1013" y="83"/>
      <point x="969" y="132" type="curve" smooth="yes"/>
      <point x="467" y="696" type="line"/>
      <point x="352" y="621" type="line"/>
      <point x="829" y="28" type="line" smooth="yes"/>
      <point x="855" y="-4"/>
      <point x="881" y="-14"/>
      <point x="919" y="-14" type="curve" smooth="yes"/>
      <point x="980" y="-14"/>
      <point x="1070" y="15"/>
    </contour>
    <contour>
      <point x="46" y="0" type="line"/>
      <point x="495" y="0" type="line"/>
      <point x="495" y="49" type="line"/>
      <point x="402" y="67"/>
      <point x="358" y="93"/>
      <point x="358" y="108" type="curve" smooth="yes"/>
      <point x="358" y="1108" type="line" smooth="yes"/>
      <point x="358" y="1126"/>
      <point x="409" y="1150"/>
      <point x="495" y="1168" type="curve"/>
      <point x="495" y="1217" type="line"/>
      <point x="46" y="1217" type="line"/>
      <point x="46" y="1168" type="line"/>
      <point x="138" y="1150"/>
      <point x="182" y="1123"/>
      <point x="182" y="1108" type="curve" smooth="yes"/>
      <point x="182" y="108" type="line" smooth="yes"/>
      <point x="182" y="91"/>
      <point x="132" y="67"/>
      <point x="46" y="49" type="curve"/>
    </contour>
  </outline>
</glyph>
<glyph name="M" format="2">
  <advance width="1597"/>
  <unicode hex="004D"/>
  <anchor x="1303" y="0" name="H"/>
  <anchor x="789" y="-97" name="L"/>
  <anchor x="789" y="1323" name="U"/>
  <outline>
    <contour>
      <point x="1071" y="0" type="line"/>
      <point x="1522" y="0" type="line"/>
      <point x="1522" y="49" type="line"/>
      <point x="1431" y="67"/>
      <point x="1384" y="93"/>
      <point x="1384" y="108" type="curve" smooth="yes"/>
      <point x="1374" y="1165" type="line"/>
      <point x="1207" y="1110" type="line"/>
      <point x="1217" y="108" type="line" smooth="yes"/>
      <point x="1217" y="91"/>
      <point x="1157" y="67"/>
      <point x="1071" y="49" type="curve"/>
    </contour>
    <contour>
      <point x="1501" y="1168" type="curve"/>
      <point x="1501" y="1217" type="line"/>
      <point x="1215" y="1217" type="line" smooth="yes"/>
      <point x="1191" y="1217"/>
      <point x="1184" y="1213"/>
      <point x="1152" y="1136" type="curve" smooth="yes"/>
      <point x="776" y="253" type="line" smooth="yes"/>
      <point x="759" y="212"/>
      <point x="760" y="162"/>
      <point x="790" y="0" type="curve"/>
      <point x="794" y="0" type="line"/>
      <point x="1224" y="1018" type="line" smooth="yes"/>
      <point x="1256" y="1092"/>
      <point x="1415" y="1168"/>
    </contour>
    <contour>
      <point x="801" y="255" type="curve" smooth="yes"/>
      <point x="416" y="1136" type="line" smooth="yes"/>
      <point x="386" y="1206"/>
      <point x="378" y="1217"/>
      <point x="353" y="1217" type="curve" smooth="yes"/>
      <point x="65" y="1217" type="line"/>
      <point x="65" y="1168" type="line"/>
      <point x="135" y="1168"/>
      <point x="249" y="1136"/>
      <point x="299" y="1019" type="curve" smooth="yes"/>
      <point x="735" y="0" type="line"/>
      <point x="790" y="0" type="line"/>
      <point x="821" y="162"/>
      <point x="818" y="215"/>
    </contour>
    <contour>
      <point x="55" y="0" type="line"/>
      <point x="446" y="0" type="line"/>
      <point x="446" y="49" type="line"/>
      <point x="354" y="67"/>
      <point x="309" y="93"/>
      <point x="309" y="108" type="curve" smooth="yes"/>
      <point x="320" y="1172" type="line"/>
      <point x="202" y="1148" type="line"/>
      <point x="192" y="108" type="line" smooth="yes"/>
      <point x="192" y="91"/>
      <point x="142" y="67"/>
      <point x="55" y="49" type="curve"/>
    </contour>
  </outline>
</glyph>
<glyph name="N" format="2">
  <advance width="1276"/>
  <unicode hex="004E"/>
  <anchor x="1006" y="0" name="H"/>
  <anchor x="639" y="-97" name="L"/>
  <anchor x="639" y="1323" name="U"/>
  <outline>
    <contour>
      <point x="1232" y="1168" type="curve"/>
      <point x="1232" y="1217" type="line"/>
      <point x="837" y="1217" type="line"/>
      <point x="837" y="1168" type="line"/>
      <point x="939" y="1153"/>
      <point x="973" y="1123"/>
      <point x="973" y="1108" type="curve" smooth="yes"/>
      <point x="973" y="69" type="line"/>
      <point x="1095" y="31" type="line"/>
      <point x="1095" y="1108" type="line" smooth="yes"/>
      <point x="1095" y="1126"/>
      <point x="1140" y="1155"/>
    </contour>
    <contour>
      <point x="1095" y="-29" type="curve"/>
      <point x="1095" y="122" type="line"/>
      <point x="1095" y="122"/>
      <point x="1006" y="236"/>
      <point x="979" y="273" type="curve" smooth="yes"/>
      <point x="357" y="1142" type="line" smooth="yes"/>
      <point x="309" y="1208"/>
      <point x="303" y="1217"/>
      <point x="265" y="1217" type="curve" smooth="yes"/>
      <point x="46" y="1217" type="line"/>
      <point x="46" y="1168" type="line"/>
      <point x="113" y="1157"/>
      <point x="175" y="1123"/>
      <point x="227" y="1049" type="curve" smooth="yes"/>
      <point x="951" y="34" type="line" smooth="yes"/>
      <point x="971" y="6"/>
      <point x="1017" y="-20"/>
    </contour>
    <contour>
      <point x="46" y="0" type="line"/>
      <point x="441" y="0" type="line"/>
      <point x="441" y="49" type="line"/>
      <point x="343" y="63"/>
      <point x="305" y="93"/>
      <point x="305" y="108" type="curve" smooth="yes"/>
      <point x="305" y="1179" type="line"/>
      <point x="182" y="1148" type="line"/>
      <point x="182" y="108" type="line" smooth="yes"/>
      <point x="182" y="91"/>
      <point x="139" y="61"/>
      <point x="46" y="49" type="curve"/>
    </contour>
  </outline>
</glyph>
<glyph name="O" format="2">
  <advance width="1185"/>
  <unicode hex="004F"/>
  <anchor x="565" y="0" name="H"/>
  <anchor x="595" y="-97" name="L"/>
  <anchor x="654" y="0" name="O"/>
  <anchor x="1201" y="1063" name="R"/>
  <anchor x="595" y="1323" name="U"/>
  <outline>
    <contour>
      <point x="557" y="-29" type="curve" smooth="yes"/>
      <point x="852" y="-29"/>
      <point x="1104" y="275"/>
      <point x="1104" y="625" type="curve" smooth="yes"/>
      <point x="1104" y="940"/>
      <point x="933" y="1246"/>
      <point x="612" y="1246" type="curve" smooth="yes"/>
      <point x="303" y="1246"/>
      <point x="65" y="942"/>
      <point x="65" y="591" type="curve" smooth="yes"/>
      <point x="65" y="267"/>
      <point x="245" y="-29"/>
    </contour>
    <contour>
      <point x="588" y="91" type="curve" smooth="yes"/>
      <point x="398" y="91"/>
      <point x="238" y="330"/>
      <point x="238" y="619" type="curve" smooth="yes"/>
      <point x="238" y="934"/>
      <point x="364" y="1131"/>
      <point x="579" y="1131" type="curve" smooth="yes"/>
      <point x="790" y="1131"/>
      <point x="931" y="874"/>
      <point x="931" y="608" type="curve" smooth="yes"/>
      <point x="931" y="267"/>
      <point x="788" y="91"/>
    </contour>
  </outline>
</glyph>
<glyph name="P" format="2">
  <advance width="1045"/>
  <unicode hex="0050"/>
  <anchor x="500" y="-97" name="L"/>
  <anchor x="500" y="1323" name="U"/>
  <outline>
    <contour>
      <point x="965" y="904" type="curve"/>
      <point x="965" y="1125"/>
      <point x="782" y="1246"/>
      <point x="502" y="1246" type="curve" smooth="yes"/>
      <point x="344" y="1246"/>
      <point x="163" y="1222"/>
      <point x="36" y="1188" type="curve"/>
      <point x="46" y="1121" type="line"/>
      <point x="169" y="1143"/>
      <point x="314" y="1159"/>
      <point x="448" y="1159" type="curve" smooth="yes"/>
      <point x="641" y="1159"/>
      <point x="792" y="1068"/>
      <point x="792" y="865" type="curve" smooth="yes"/>
      <point x="792" y="683"/>
      <point x="649" y="593"/>
      <point x="534" y="593" type="curve" smooth="yes"/>
      <point x="489" y="593"/>
      <point x="443" y="598"/>
      <point x="391" y="622" type="curve"/>
      <point x="414" y="542" type="line"/>
      <point x="457" y="523"/>
      <point x="512" y="513"/>
      <point x="570" y="513" type="curve" smooth="yes"/>
      <point x="725" y="513"/>
      <point x="965" y="637"/>
    </contour>
    <contour>
      <point x="46" y="0" type="line"/>
      <point x="523" y="0" type="line"/>
      <point x="523" y="49" type="line"/>
      <point x="391" y="71"/>
      <point x="358" y="93"/>
      <point x="358" y="108" type="curve" smooth="yes"/>
      <point x="358" y="1163" type="line"/>
      <point x="182" y="1163" type="line"/>
      <point x="182" y="108" type="line" smooth="yes"/>
      <point x="182" y="91"/>
      <point x="132" y="67"/>
      <point x="46" y="49" type="curve"/>
    </contour>
  </outline>
</glyph>
<glyph name="T" format="2">
  <advance width="1092"/>
  <unicode hex="0054"/>
  <anchor x="533" y="0" name="H"/>
  <anchor x="529" y="-97" name="L"/>
  <anchor x="529" y="1323" name="U"/>
  <outline>
    <contour>
      <point x="1051" y="1191" type="curve"/>
      <point x="1021" y="1217" type="line"/>
      <point x="555" y="1217" type="line"/>
      <point x="527" y="1122" type="line"/>
      <point x="883" y="1122" type="line" smooth="yes"/>
      <point x="938" y="1122"/>
      <point x="945" y="1070"/>
      <point x="970" y="951" type="curve"/>
      <point x="1021" y="951" type="line"/>
      <point x="1036" y="1032"/>
      <point x="1050" y="1125"/>
    </contour>
    <contour>
      <point x="172" y="1122" type="curve" smooth="yes"/>
      <point x="625" y="1122" type="line"/>
      <point x="602" y="1217" type="line"/>
      <point x="41" y="1217" type="line"/>
      <point x="28" y="1150"/>
      <point x="13" y="1040"/>
      <point x="8" y="965" type="curve"/>
      <point x="56" y="945" type="line"/>
      <point x="114" y="1095"/>
      <point x="133" y="1122"/>
    </contour>
    <contour>
      <point x="291" y="0" type="line"/>
      <point x="776" y="0" type="line"/>
      <point x="776" y="49" type="line"/>
      <point x="659" y="73"/>
      <point x="622" y="102"/>
      <point x="622" y="119" type="curve" smooth="yes"/>
      <point x="622" y="1129" type="line" smooth="yes"/>
      <point x="622" y="1147"/>
      <point x="672" y="1150"/>
      <point x="758" y="1168" type="curve"/>
      <point x="758" y="1217" type="line"/>
      <point x="311" y="1217" type="line"/>
      <point x="311" y="1168" type="line"/>
      <point x="403" y="1150"/>
      <point x="446" y="1145"/>
      <point x="446" y="1129" type="curve" smooth="yes"/>
      <point x="446" y="119" type="line" smooth="yes"/>
      <point x="446" y="100"/>
      <point x="409" y="73"/>
      <point x="291" y="49" type="curve"/>
    </contour>
  </outline>
</glyph>
<glyph name="U" format="2">
  <advance width="1286"/>
  <unicode hex="0055"/>
  <anchor x="650" y="0" name="H"/>
  <anchor x="650" y="-97" name="L"/>
  <anchor x="731" y="0" name="O"/>
  <anchor x="1280" y="1063" name="R"/>
  <anchor x="650" y="1323" name="U"/>
  <outline>
    <contour>
      <point x="1227" y="1168" type="curve"/>
      <point x="1227" y="1217" type="line"/>
      <point x="818" y="1217" type="line"/>
      <point x="818" y="1168" type="line"/>
      <point x="910" y="1150"/>
      <point x="955" y="1123"/>
      <point x="955" y="1108" type="curve" smooth="yes"/>
      <point x="955" y="470" type="line" smooth="yes"/>
      <point x="955" y="279"/>
      <point x="864" y="90"/>
      <point x="683" y="90" type="curve" smooth="yes"/>
      <point x="465" y="90"/>
      <point x="358" y="234"/>
      <point x="358" y="481" type="curve" smooth="yes"/>
      <point x="358" y="1108" type="line" smooth="yes"/>
      <point x="358" y="1126"/>
      <point x="409" y="1150"/>
      <point x="495" y="1168" type="curve"/>
      <point x="495" y="1217" type="line"/>
      <point x="46" y="1217" type="line"/>
      <point x="46" y="1168" type="line"/>
      <point x="138" y="1150"/>
      <point x="182" y="1123"/>
      <point x="182" y="1108" type="curve" smooth="yes"/>
      <point x="182" y="429" type="line" smooth="yes"/>
      <point x="182" y="115"/>
      <point x="377" y="-29"/>
      <point x="640" y="-29" type="curve" smooth="yes"/>
      <point x="915" y="-29"/>
      <point x="1091" y="168"/>
      <point x="1091" y="506" type="curve" smooth="yes"/>
      <point x="1091" y="1108" type="line" smooth="yes"/>
      <point x="1091" y="1126"/>
      <point x="1141" y="1150"/>
    </contour>
  </outline>
</glyph>
<glyph name="V" format="2">
  <advance width="1278"/>
  <unicode hex="0056"/>
  <anchor x="624" y="0" name="H"/>
  <anchor x="629" y="-97" name="L"/>
  <anchor x="590" y="0" name="O"/>
  <anchor x="639" y="1323" name="U"/>
  <outline>
    <contour>
      <point x="1242" y="1168" type="curve"/>
      <point x="1242" y="1217" type="line"/>
      <point x="840" y="1217" type="line"/>
      <point x="840" y="1168" type="line"/>
      <point x="944" y="1155"/>
      <point x="986" y="1142"/>
      <point x="972" y="1104" type="curve" smooth="yes"/>
      <point x="661" y="217" type="line"/>
      <point x="331" y="1106" type="line" smooth="yes"/>
      <point x="318" y="1143"/>
      <point x="350" y="1160"/>
      <point x="452" y="1168" type="curve"/>
      <point x="452" y="1217" type="line"/>
      <point x="17" y="1217" type="line"/>
      <point x="17" y="1168" type="line"/>
      <point x="97" y="1157"/>
      <point x="138" y="1138"/>
      <point x="151" y="1104" type="curve" smooth="yes"/>
      <point x="575" y="-29" type="line"/>
      <point x="616" y="-19"/>
      <point x="710" y="6"/>
      <point x="730" y="63" type="curve" smooth="yes"/>
      <point x="1093" y="1104" type="line"/>
      <point x="1106" y="1140"/>
      <point x="1156" y="1151"/>
    </contour>
  </outline>
</glyph>
<glyph name="W" format="2">
  <advance width="1662"/>
  <unicode hex="0057"/>
  <anchor x="826" y="-97" name="L"/>
  <anchor x="826" y="1323" name="U"/>
  <outline>
    <contour>
      <point x="1633" y="1168" type="curve"/>
      <point x="1633" y="1217" type="line"/>
      <point x="1222" y="1217" type="line"/>
      <point x="1222" y="1168" type="line"/>
      <point x="1308" y="1153"/>
      <point x="1375" y="1138"/>
      <point x="1369" y="1108" type="curve"/>
      <point x="1198" y="276" type="line"/>
      <point x="864" y="1217" type="line"/>
      <point x="800" y="1217" type="line"/>
      <point x="499" y="276" type="line"/>
      <point x="316" y="1100" type="line" smooth="yes"/>
      <point x="310" y="1128"/>
      <point x="320" y="1155"/>
      <point x="444" y="1168" type="curve"/>
      <point x="444" y="1217" type="line"/>
      <point x="19" y="1217" type="line"/>
      <point x="19" y="1168" type="line"/>
      <point x="110" y="1151"/>
      <point x="144" y="1132"/>
      <point x="151" y="1100" type="curve" smooth="yes"/>
      <point x="399" y="-29" type="line"/>
      <point x="451" y="-17"/>
      <point x="527" y="2"/>
      <point x="545" y="57" type="curve" smooth="yes"/>
      <point x="819" y="895" type="line"/>
      <point x="1135" y="-29" type="line"/>
      <point x="1174" y="-20"/>
      <point x="1258" y="2"/>
      <point x="1269" y="57" type="curve" smooth="yes"/>
      <point x="1488" y="1108" type="line" smooth="yes"/>
      <point x="1492" y="1128"/>
      <point x="1520" y="1145"/>
    </contour>
  </outline>
</glyph>
<glyph name="Z" format="2">
  <advance width="1034"/>
  <unicode hex="005A"/>
  <anchor x="517" y="-97" name="L"/>
  <anchor x="536" y="1323" name="U"/>
  <outline>
    <contour>
      <point x="960" y="298" type="curve"/>
      <point x="900" y="314" type="line"/>
      <point x="851" y="156"/>
      <point x="823" y="104"/>
      <point x="769" y="104" type="curve" smooth="yes"/>
      <point x="286" y="104" type="line"/>
      <point x="950" y="1174" type="line"/>
      <point x="924" y="1217" type="line"/>
      <point x="323" y="1217" type="line" smooth="yes"/>
      <point x="248" y="1217"/>
      <point x="211" y="1217"/>
      <point x="141" y="1233" type="curve"/>
      <point x="112" y="926" type="line"/>
      <point x="174" y="913" type="line"/>
      <point x="202" y="1047"/>
      <point x="262" y="1113"/>
      <point x="303" y="1113" type="curve" smooth="yes"/>
      <point x="724" y="1113" type="line"/>
      <point x="54" y="45" type="line"/>
      <point x="84" y="0" type="line"/>
      <point x="948" y="0" type="line"/>
      <point x="950" y="75"/>
      <point x="956" y="215"/>
    </contour>
  </outline>
</glyph>
<glyph name="f" format="2">
  <advance width="615"/>
  <unicode hex="0066"/>
  <anchor x="269" y="0" name="H"/>
  <anchor x="307" y="-95" name="L"/>
  <anchor x="411" y="1533" name="U"/>
  <outline>
    <contour>
      <point x="786" y="1375" type="curve"/>
      <point x="786" y="1397"/>
      <point x="683" y="1466"/>
      <point x="597" y="1466" type="curve" smooth="yes"/>
      <point x="542" y="1466"/>
      <point x="439" y="1432"/>
      <point x="365" y="1368" type="curve" smooth="yes"/>
      <point x="265" y="1283"/>
      <point x="186" y="1183"/>
      <point x="186" y="909" type="curve" smooth="yes"/>
      <point x="186" y="880" type="line"/>
      <point x="115" y="880" type="line"/>
      <point x="42" y="811" type="line"/>
      <point x="64" y="782" type="line"/>
      <point x="186" y="782" type="line"/>
      <point x="186" y="104" type="line" smooth="yes"/>
      <point x="186" y="89"/>
      <point x="142" y="63"/>
      <point x="56" y="48" type="curve"/>
      <point x="56" y="0" type="line"/>
      <point x="543" y="0" type="line"/>
      <point x="543" y="48" type="line"/>
      <point x="396" y="76"/>
      <point x="349" y="89"/>
      <point x="349" y="104" type="curve" smooth="yes"/>
      <point x="349" y="782" type="line"/>
      <point x="449" y="782"/>
      <point x="497" y="764"/>
      <point x="526" y="749" type="curve"/>
      <point x="548" y="762"/>
      <point x="594" y="814"/>
      <point x="618" y="850" type="curve"/>
      <point x="589" y="880" type="line"/>
      <point x="349" y="880" type="line"/>
      <point x="349" y="961" type="line" smooth="yes"/>
      <point x="349" y="1268"/>
      <point x="434" y="1340"/>
      <point x="499" y="1340" type="curve" smooth="yes"/>
      <point x="533" y="1340"/>
      <point x="599" y="1314"/>
      <point x="658" y="1255" type="curve"/>
      <point x="694" y="1273"/>
      <point x="786" y="1349"/>
    </contour>
  </outline>
</glyph>
<glyph name="g" format="2">
  <advance width="955"/>
  <unicode hex="0067"/>
  <anchor x="477" y="-445" name="H"/>
  <anchor x="477" y="-568" name="L"/>
  <anchor x="953" y="851" name="R"/>
  <anchor x="477" y="993" name="U"/>
  <outline>
    <contour>
      <point x="928" y="-110" type="curve" smooth="yes"/>
      <point x="928" y="-11"/>
      <point x="854" y="79"/>
      <point x="575" y="112" type="curve"/>
      <point x="380" y="135"/>
      <point x="343" y="161"/>
      <point x="343" y="189" type="curve" smooth="yes"/>
      <point x="343" y="200"/>
      <point x="373" y="255"/>
      <point x="484" y="331" type="curve"/>
      <point x="341" y="315" type="line"/>
      <point x="196" y="220"/>
      <point x="165" y="162"/>
      <point x="165" y="137" type="curve" smooth="yes"/>
      <point x="165" y="77"/>
      <point x="251" y="16"/>
      <point x="497" y="-13" type="curve" smooth="yes"/>
      <point x="716" y="-39"/>
      <point x="767" y="-88"/>
      <point x="767" y="-152" type="curve" smooth="yes"/>
      <point x="767" y="-272"/>
      <point x="667" y="-362"/>
      <point x="504" y="-362" type="curve" smooth="yes"/>
      <point x="334" y="-362"/>
      <point x="189" y="-278"/>
      <point x="189" y="-178" type="curve" smooth="yes"/>
      <point x="189" y="-135"/>
      <point x="205" y="-78"/>
      <point x="399" y="28" type="curve"/>
      <point x="394" y="54"/>
      <point x="315" y="58"/>
      <point x="315" y="58" type="curve"/>
      <point x="70" y="-69"/>
      <point x="26" y="-146"/>
      <point x="26" y="-215" type="curve" smooth="yes"/>
      <point x="26" y="-398"/>
      <point x="269" y="-471"/>
      <point x="449" y="-471" type="curve" smooth="yes"/>
      <point x="675" y="-471"/>
      <point x="928" y="-309"/>
    </contour>
    <contour>
      <point x="946" y="878" type="curve"/>
      <point x="925" y="908" type="line"/>
      <point x="867" y="886"/>
      <point x="769" y="850"/>
      <point x="614" y="841" type="curve"/>
      <point x="656" y="764" type="line"/>
      <point x="762" y="761"/>
      <point x="825" y="768"/>
      <point x="892" y="780" type="curve"/>
      <point x="919" y="811"/>
      <point x="932" y="845"/>
    </contour>
    <contour>
      <point x="797" y="606" type="curve" smooth="yes"/>
      <point x="797" y="770"/>
      <point x="654" y="908"/>
      <point x="466" y="908" type="curve" smooth="yes"/>
      <point x="275" y="908"/>
      <point x="92" y="755"/>
      <point x="92" y="569" type="curve" smooth="yes"/>
      <point x="92" y="394"/>
      <point x="233" y="279"/>
      <point x="421" y="279" type="curve" smooth="yes"/>
      <point x="610" y="279"/>
      <point x="797" y="413"/>
    </contour>
    <contour>
      <point x="643" y="568" type="curve" smooth="yes"/>
      <point x="643" y="445"/>
      <point x="559" y="382"/>
      <point x="485" y="382" type="curve" smooth="yes"/>
      <point x="321" y="382"/>
      <point x="246" y="491"/>
      <point x="246" y="623" type="curve" smooth="yes"/>
      <point x="246" y="746"/>
      <point x="341" y="810"/>
      <point x="403" y="810" type="curve" smooth="yes"/>
      <point x="560" y="810"/>
      <point x="643" y="700"/>
    </contour>
  </outline>
</glyph>
<glyph name="h" format="2">
  <advance width="1077"/>
  <unicode hex="0068"/>
  <anchor x="255" y="0" name="H"/>
  <anchor x="550" y="-95" name="L"/>
  <anchor x="550" y="1533" name="U"/>
  <outline>
    <contour>
      <point x="628" y="0" type="line"/>
      <point x="1050" y="0" type="line"/>
      <point x="1050" y="48" type="line"/>
      <point x="951" y="74"/>
      <point x="920" y="89"/>
      <point x="920" y="106" type="curve" smooth="yes"/>
      <point x="920" y="692" type="line" smooth="yes"/>
      <point x="920" y="843"/>
      <point x="821" y="908"/>
      <point x="713" y="908" type="curve" smooth="yes"/>
      <point x="616" y="908"/>
      <point x="461" y="821"/>
      <point x="344" y="672" type="curve"/>
      <point x="344" y="1432" type="line"/>
      <point x="307" y="1466" type="line"/>
      <point x="231" y="1429"/>
      <point x="167" y="1410"/>
      <point x="52" y="1391" type="curve"/>
      <point x="52" y="1345" type="line"/>
      <point x="173" y="1331"/>
      <point x="181" y="1325"/>
      <point x="181" y="1220" type="curve" smooth="yes"/>
      <point x="181" y="106" type="line" smooth="yes"/>
      <point x="181" y="85"/>
      <point x="134" y="70"/>
      <point x="52" y="48" type="curve"/>
      <point x="52" y="0" type="line"/>
      <point x="473" y="0" type="line"/>
      <point x="473" y="48" type="line"/>
      <point x="393" y="65"/>
      <point x="344" y="87"/>
      <point x="344" y="106" type="curve" smooth="yes"/>
      <point x="344" y="542" type="line"/>
      <point x="449" y="693"/>
      <point x="559" y="772"/>
      <point x="641" y="772" type="curve" smooth="yes"/>
      <point x="722" y="772"/>
      <point x="757" y="737"/>
      <point x="757" y="584" type="curve" smooth="yes"/>
      <point x="757" y="106" type="line" smooth="yes"/>
      <point x="757" y="89"/>
      <point x="718" y="72"/>
      <point x="628" y="48" type="curve"/>
    </contour>
  </outline>
</glyph>
<glyph name="j" format="2">
  <advance width="515"/>
  <unicode hex="006A"/>
  <anchor x="272" y="-568" name="L"/>
  <anchor x="273" y="993" name="U"/>
  <outline>
    <contour>
      <point x="384" y="1193" type="curve" smooth="yes"/>
      <point x="384" y="1255"/>
      <point x="349" y="1287"/>
      <point x="292" y="1287" type="curve" smooth="yes"/>
      <point x="224" y="1287"/>
      <point x="171" y="1230"/>
      <point x="171" y="1154" type="curve" smooth="yes"/>
      <point x="171" y="1093"/>
      <point x="203" y="1060"/>
      <point x="263" y="1060" type="curve" smooth="yes"/>
      <point x="332" y="1060"/>
      <point x="384" y="1118"/>
    </contour>
    <contour>
      <point x="353" y="96" type="curve" smooth="yes"/>
      <point x="353" y="908" type="line"/>
      <point x="311" y="908" type="line"/>
      <point x="229" y="875"/>
      <point x="173" y="853"/>
      <point x="61" y="834" type="curve"/>
      <point x="61" y="789" type="line"/>
      <point x="189" y="775"/>
      <point x="190" y="758"/>
      <point x="190" y="628" type="curve" smooth="yes"/>
      <point x="190" y="41" type="line" smooth="yes"/>
      <point x="190" y="-259"/>
      <point x="118" y="-334"/>
      <point x="48" y="-334" type="curve" smooth="yes"/>
      <point x="1" y="-334"/>
      <point x="-50" y="-321"/>
      <point x="-91" y="-282" type="curve"/>
      <point x="-127" y="-299"/>
      <point x="-221" y="-375"/>
      <point x="-221" y="-400" type="curve" smooth="yes"/>
      <point x="-221" y="-423"/>
      <point x="-131" y="-471"/>
      <point x="-49" y="-471" type="curve" smooth="yes"/>
      <point x="5" y="-471"/>
      <point x="99" y="-429"/>
      <point x="166" y="-375" type="curve" smooth="yes"/>
      <point x="266" y="-294"/>
      <point x="353" y="-195"/>
    </contour>
  </outline>
</glyph>
<glyph name="l" format="2">
  <advance width="539"/>
  <unicode hex="006C"/>
  <anchor x="277" y="0" name="H"/>
  <anchor x="277" y="-95" name="L"/>
  <anchor x="518" y="851" name="R"/>
  <anchor x="277" y="1599" name="U"/>
  <outline>
    <contour>
      <point x="56" y="0" type="line"/>
      <point x="497" y="0" type="line"/>
      <point x="497" y="48" type="line"/>
      <point x="395" y="65"/>
      <point x="358" y="87"/>
      <point x="358" y="106" type="curve" smooth="yes"/>
      <point x="358" y="1432" type="line"/>
      <point x="322" y="1466" type="line"/>
      <point x="240" y="1426"/>
      <point x="165" y="1409"/>
      <point x="66" y="1391" type="curve"/>
      <point x="66" y="1345" type="line"/>
      <point x="171" y="1333"/>
      <point x="195" y="1329"/>
      <point x="195" y="1218" type="curve" smooth="yes"/>
      <point x="195" y="106" type="line" smooth="yes"/>
      <point x="195" y="85"/>
      <point x="164" y="67"/>
      <point x="56" y="48" type="curve"/>
    </contour>
  </outline>
</glyph>
<glyph name="m" format="2">
  <advance width="1565"/>
  <unicode hex="006D"/>
  <anchor x="1325" y="0" name="H"/>
  <anchor x="795" y="-95" name="L"/>
  <anchor x="795" y="993" name="U"/>
  <outline>
    <contour>
      <point x="1119" y="0" type="line"/>
      <point x="1539" y="0" type="line"/>
      <point x="1539" y="48" type="line"/>
      <point x="1440" y="74"/>
      <point x="1407" y="89"/>
      <point x="1407" y="106" type="curve" smooth="yes"/>
      <point x="1407" y="692" type="line" smooth="yes"/>
      <point x="1407" y="843"/>
      <point x="1314" y="908"/>
      <point x="1195" y="908" type="curve" smooth="yes"/>
      <point x="1103" y="908"/>
      <point x="986" y="837"/>
      <point x="872" y="689" type="curve"/>
      <point x="871" y="707" type="line" smooth="yes"/>
      <point x="867" y="851"/>
      <point x="784" y="908"/>
      <point x="665" y="908" type="curve" smooth="yes"/>
      <point x="575" y="908"/>
      <point x="459" y="839"/>
      <point x="340" y="683" type="curve"/>
      <point x="330" y="873" type="line"/>
      <point x="295" y="908" type="line"/>
      <point x="222" y="875"/>
      <point x="156" y="850"/>
      <point x="52" y="834" type="curve"/>
      <point x="52" y="789" type="line"/>
      <point x="173" y="775"/>
      <point x="181" y="767"/>
      <point x="181" y="667" type="curve" smooth="yes"/>
      <point x="181" y="106" type="line" smooth="yes"/>
      <point x="181" y="85"/>
      <point x="134" y="70"/>
      <point x="52" y="48" type="curve"/>
      <point x="52" y="0" type="line"/>
      <point x="471" y="0" type="line"/>
      <point x="471" y="48" type="line"/>
      <point x="391" y="65"/>
      <point x="344" y="87"/>
      <point x="344" y="106" type="curve" smooth="yes"/>
      <point x="344" y="565" type="line"/>
      <point x="446" y="703"/>
      <point x="533" y="781"/>
      <point x="610" y="781" type="curve" smooth="yes"/>
      <point x="685" y="781"/>
      <point x="712" y="746"/>
      <point x="712" y="591" type="curve" smooth="yes"/>
      <point x="712" y="106" type="line" smooth="yes"/>
      <point x="712" y="89"/>
      <point x="678" y="72"/>
      <point x="588" y="48" type="curve"/>
      <point x="588" y="0" type="line"/>
      <point x="1004" y="0" type="line"/>
      <point x="1004" y="48" type="line"/>
      <point x="905" y="74"/>
      <point x="875" y="89"/>
      <point x="875" y="106" type="curve" smooth="yes"/>
      <point x="875" y="565" type="line"/>
      <point x="966" y="701"/>
      <point x="1065" y="781"/>
      <point x="1140" y="781" type="curve" smooth="yes"/>
      <point x="1213" y="781"/>
      <point x="1244" y="746"/>
      <point x="1244" y="591" type="curve" smooth="yes"/>
      <point x="1244" y="106" type="line" smooth="yes"/>
      <point x="1244" y="89"/>
      <point x="1209" y="72"/>
      <point x="1119" y="48" type="curve"/>
    </contour>
  </outline>
</glyph>
<glyph name="p" format="2">
  <advance width="1035"/>
  <unicode hex="0070"/>
  <anchor x="262" y="-455" name="H"/>
  <anchor x="656" y="-95" name="L"/>
  <anchor x="1063" y="851" name="R"/>
  <anchor x="506" y="993" name="U"/>
  <outline>
    <contour>
      <point x="603" y="-28" type="curve" smooth="yes"/>
      <point x="778" y="-28"/>
      <point x="962" y="240"/>
      <point x="962" y="467" type="curve" smooth="yes"/>
      <point x="962" y="749"/>
      <point x="832" y="908"/>
      <point x="662" y="908" type="curve" smooth="yes"/>
      <point x="590" y="908"/>
      <point x="467" y="849"/>
      <point x="338" y="705" type="curve"/>
      <point x="330" y="873" type="line"/>
      <point x="295" y="908" type="line"/>
      <point x="217" y="873"/>
      <point x="153" y="853"/>
      <point x="52" y="834" type="curve"/>
      <point x="52" y="789" type="line"/>
      <point x="171" y="783"/>
      <point x="181" y="762"/>
      <point x="181" y="667" type="curve" smooth="yes"/>
      <point x="181" y="-347" type="line" smooth="yes"/>
      <point x="181" y="-369"/>
      <point x="134" y="-386"/>
      <point x="52" y="-406" type="curve"/>
      <point x="52" y="-454" type="line"/>
      <point x="502" y="-454" type="line"/>
      <point x="502" y="-406" type="line"/>
      <point x="385" y="-388"/>
      <point x="344" y="-367"/>
      <point x="344" y="-347" type="curve" smooth="yes"/>
      <point x="344" y="89" type="line"/>
      <point x="438" y="11"/>
      <point x="530" y="-28"/>
    </contour>
    <contour>
      <point x="586" y="779" type="curve" smooth="yes"/>
      <point x="703" y="779"/>
      <point x="813" y="629"/>
      <point x="813" y="403" type="curve" smooth="yes"/>
      <point x="813" y="208"/>
      <point x="723" y="104"/>
      <point x="599" y="104" type="curve" smooth="yes"/>
      <point x="533" y="104"/>
      <point x="461" y="122"/>
      <point x="344" y="205" type="curve"/>
      <point x="344" y="594" type="line"/>
      <point x="454" y="738"/>
      <point x="541" y="779"/>
    </contour>
  </outline>
</glyph>
<glyph name="q" format="2">
  <advance width="1009"/>
  <unicode hex="0071"/>
  <anchor x="372" y="-95" name="L"/>
  <anchor x="1026" y="851" name="R"/>
  <anchor x="531" y="993" name="U"/>
  <outline>
    <contour>
      <point x="539" y="-454" type="line"/>
      <point x="990" y="-454" type="line"/>
      <point x="990" y="-406" type="line"/>
      <point x="894" y="-388"/>
      <point x="861" y="-367"/>
      <point x="861" y="-347" type="curve" smooth="yes"/>
      <point x="861" y="673" type="line" smooth="yes"/>
      <point x="861" y="787"/>
      <point x="890" y="878"/>
      <point x="890" y="878" type="curve"/>
      <point x="859" y="908" type="line"/>
      <point x="828" y="877"/>
      <point x="738" y="810"/>
      <point x="698" y="797" type="curve"/>
      <point x="698" y="-347" type="line" smooth="yes"/>
      <point x="698" y="-369"/>
      <point x="656" y="-388"/>
      <point x="539" y="-406" type="curve"/>
    </contour>
    <contour>
      <point x="768" y="235" type="curve"/>
      <point x="762" y="244"/>
      <point x="747" y="273"/>
      <point x="731" y="281" type="curve"/>
      <point x="643" y="196"/>
      <point x="560" y="110"/>
      <point x="468" y="110" type="curve" smooth="yes"/>
      <point x="365" y="110"/>
      <point x="236" y="242"/>
      <point x="236" y="457" type="curve" smooth="yes"/>
      <point x="236" y="688"/>
      <point x="357" y="798"/>
      <point x="491" y="798" type="curve" smooth="yes"/>
      <point x="580" y="798"/>
      <point x="666" y="750"/>
      <point x="705" y="671" type="curve"/>
      <point x="745" y="695"/>
      <point x="760" y="719"/>
      <point x="760" y="795" type="curve"/>
      <point x="663" y="893"/>
      <point x="593" y="908"/>
      <point x="518" y="908" type="curve" smooth="yes"/>
      <point x="463" y="908"/>
      <point x="382" y="882"/>
      <point x="311" y="841" type="curve" smooth="yes"/>
      <point x="223" y="789"/>
      <point x="73" y="641"/>
      <point x="73" y="420" type="curve" smooth="yes"/>
      <point x="73" y="139"/>
      <point x="249" y="-28"/>
      <point x="390" y="-28" type="curve" smooth="yes"/>
      <point x="544" y="-28"/>
      <point x="634" y="68"/>
    </contour>
  </outline>
</glyph>
<glyph name="r" format="2">
  <advance width="788"/>
  <unicode hex="0072"/>
  <anchor x="262" y="0" name="H"/>
  <anchor x="262" y="-95" name="L"/>
  <anchor x="437" y="993" name="U"/>
  <outline>
    <contour>
      <point x="750" y="871" type="curve" smooth="yes"/>
      <point x="705" y="898"/>
      <point x="654" y="908"/>
      <point x="612" y="908" type="curve" smooth="yes"/>
      <point x="504" y="908"/>
      <point x="410" y="808"/>
      <point x="342" y="679" type="curve"/>
      <point x="330" y="873" type="line"/>
      <point x="295" y="908" type="line"/>
      <point x="222" y="873"/>
      <point x="147" y="854"/>
      <point x="52" y="834" type="curve"/>
      <point x="52" y="789" type="line"/>
      <point x="121" y="785"/>
      <point x="143" y="780"/>
      <point x="159" y="763" type="curve" smooth="yes"/>
      <point x="171" y="752"/>
      <point x="181" y="727"/>
      <point x="181" y="643" type="curve" smooth="yes"/>
      <point x="181" y="106" type="line" smooth="yes"/>
      <point x="181" y="85"/>
      <point x="134" y="67"/>
      <point x="52" y="48" type="curve"/>
      <point x="52" y="0" type="line"/>
      <point x="504" y="0" type="line"/>
      <point x="504" y="48" type="line"/>
      <point x="387" y="65"/>
      <point x="344" y="87"/>
      <point x="344" y="106" type="curve" smooth="yes"/>
      <point x="344" y="488" type="line"/>
      <point x="408" y="690"/>
      <point x="499" y="764"/>
      <point x="552" y="764" type="curve" smooth="yes"/>
      <point x="603" y="764"/>
      <point x="643" y="717"/>
      <point x="656" y="615" type="curve"/>
      <point x="704" y="615" type="line"/>
      <point x="735" y="683"/>
      <point x="773" y="857"/>
    </contour>
  </outline>
</glyph>
<glyph name="t" format="2">
  <advance width="677"/>
  <unicode hex="0074"/>
  <anchor x="334" y="0" name="H"/>
  <anchor x="334" y="-95" name="L"/>
  <anchor x="484" y="851" name="R"/>
  <anchor x="334" y="1249" name="U"/>
  <outline>
    <contour>
      <point x="650" y="120" type="curve"/>
      <point x="619" y="174" type="line"/>
      <point x="520" y="122"/>
      <point x="460" y="108"/>
      <point x="416" y="108" type="curve" smooth="yes"/>
      <point x="349" y="108"/>
      <point x="321" y="152"/>
      <point x="321" y="298" type="curve" smooth="yes"/>
      <point x="321" y="782" type="line"/>
      <point x="373" y="782" type="line" smooth="yes"/>
      <point x="465" y="782"/>
      <point x="526" y="764"/>
      <point x="556" y="749" type="curve"/>
      <point x="581" y="762"/>
      <point x="627" y="814"/>
      <point x="650" y="850" type="curve"/>
      <point x="621" y="880" type="line"/>
      <point x="321" y="880" type="line"/>
      <point x="321" y="1187" type="line"/>
      <point x="290" y="1213" type="line"/>
      <point x="158" y="1103" type="line"/>
      <point x="158" y="880" type="line"/>
      <point x="90" y="880" type="line"/>
      <point x="17" y="811" type="line"/>
      <point x="39" y="782" type="line"/>
      <point x="158" y="782" type="line"/>
      <point x="158" y="215" type="line" smooth="yes"/>
      <point x="158" y="39"/>
      <point x="238" y="-28"/>
      <point x="330" y="-28" type="curve" smooth="yes"/>
      <point x="396" y="-28"/>
      <point x="516" y="21"/>
    </contour>
  </outline>
</glyph>
<glyph name="bar" format="2">
  <advance width="392"/>
  <unicode hex="007C"/>
  <outline>
    <contour>
      <point x="128" y="1138" type="curve"/>
      <point x="112" y="811"/>
      <point x="126" y="197"/>
      <point x="141" y="-219" type="curve"/>
      <point x="141" y="-219"/>
      <point x="190" y="-248"/>
      <point x="190" y="-248" type="curve"/>
      <point x="219" y="-230"/>
      <point x="281" y="-178"/>
      <point x="293" y="-147" type="curve"/>
      <point x="271" y="159"/>
      <point x="258" y="789"/>
      <point x="281" y="1171" type="curve"/>
      <point x="245" y="1203" type="line"/>
      <point x="204" y="1189"/>
      <point x="161" y="1167"/>
    </contour>
  </outline>
</glyph>
<glyph name="currency" format="2">
  <advance width="923"/>
  <unicode hex="00A4"/>
  <outline>
    <contour>
      <point x="343" y="692" type="curve"/>
      <point x="376" y="725"/>
      <point x="420" y="741"/>
      <point x="463" y="741" type="curve" smooth="yes"/>
      <point x="507" y="741"/>
      <point x="548" y="725"/>
      <point x="582" y="692" type="curve" smooth="yes"/>
      <point x="616" y="657"/>
      <point x="633" y="613"/>
      <point x="633" y="569" type="curve" smooth="yes"/>
      <point x="633" y="526"/>
      <point x="616" y="482"/>
      <point x="583" y="448" type="curve" smooth="yes"/>
      <point x="550" y="414"/>
      <point x="507" y="398"/>
      <point x="463" y="398" type="curve" smooth="yes"/>
      <point x="420" y="398"/>
      <point x="376" y="414"/>
      <point x="342" y="449" type="curve" smooth="yes"/>
      <point x="308" y="482"/>
      <point x="292" y="525"/>
      <point x="292" y="569" type="curve" smooth="yes"/>
      <point x="292" y="612"/>
      <point x="309" y="657"/>
    </contour>
    <contour>
      <point x="275" y="760" type="curve"/>
      <point x="222" y="707"/>
      <point x="196" y="637"/>
      <point x="196" y="568" type="curve" smooth="yes"/>
      <point x="196" y="499"/>
      <point x="221" y="431"/>
      <point x="273" y="379" type="curve" smooth="yes"/>
      <point x="325" y="326"/>
      <point x="395" y="301"/>
      <point x="463" y="301" type="curve" smooth="yes"/>
      <point x="532" y="301"/>
      <point x="601" y="326"/>
      <point x="651" y="378" type="curve" smooth="yes"/>
      <point x="703" y="430"/>
      <point x="729" y="499"/>
      <point x="729" y="568" type="curve" smooth="yes"/>
      <point x="729" y="637"/>
      <point x="702" y="708"/>
      <point x="649" y="760" type="curve" smooth="yes"/>
      <point x="597" y="813"/>
      <point x="530" y="839"/>
      <point x="463" y="839" type="curve" smooth="yes"/>
      <point x="396" y="839"/>
      <point x="328" y="813"/>
    </contour>
    <contour>
      <point x="351" y="391" type="line"/>
      <point x="320" y="458" type="line"/>
      <point x="285" y="456" type="line"/>
      <point x="135" y="305" type="line"/>
      <point x="144" y="284"/>
      <point x="157" y="260"/>
      <point x="167" y="241" type="curve"/>
      <point x="200" y="239" type="line"/>
    </contour>
    <contour>
      <point x="279" y="688" type="line"/>
      <point x="346" y="720" type="line"/>
      <point x="344" y="755" type="line"/>
      <point x="202" y="899" type="line"/>
      <point x="180" y="889"/>
      <point x="157" y="877"/>
      <point x="139" y="867" type="curve"/>
      <point x="136" y="833" type="line"/>
    </contour>
    <contour>
      <point x="722" y="240" type="line"/>
      <point x="788" y="272" type="line"/>
      <point x="787" y="306" type="line"/>
      <point x="644" y="451" type="line"/>
      <point x="623" y="442"/>
      <point x="599" y="429"/>
      <point x="581" y="419" type="curve"/>
      <point x="579" y="385" type="line"/>
    </contour>
    <contour>
      <point x="786" y="832" type="line"/>
      <point x="756" y="899" type="line"/>
      <point x="722" y="898" type="line"/>
      <point x="571" y="745" type="line"/>
      <point x="580" y="725"/>
      <point x="592" y="700"/>
      <point x="603" y="682" type="curve"/>
      <point x="636" y="680" type="line"/>
    </contour>
  </outline>
</glyph>
<glyph name="yen" format="2">
  <advance width="923"/>
  <unicode hex="00A5"/>
  <outline>
    <contour>
      <point x="221" y="0" type="line"/>
      <point x="699" y="0" type="line"/>
      <point x="699" y="48" type="line"/>
      <point x="582" y="72"/>
      <point x="545" y="100"/>
      <point x="545" y="116" type="curve" smooth="yes"/>
      <point x="545" y="400" type="line"/>
      <point x="796" y="400" type="line"/>
      <point x="822" y="472" type="line"/>
      <point x="798" y="494" type="line"/>
      <point x="545" y="494" type="line"/>
      <point x="545" y="534" type="line"/>
      <point x="810" y="1028" type="line" smooth="yes"/>
      <point x="827" y="1061"/>
      <point x="869" y="1075"/>
      <point x="954" y="1091" type="curve"/>
      <point x="954" y="1139" type="line"/>
      <point x="577" y="1139" type="line"/>
      <point x="577" y="1091" type="line"/>
      <point x="674" y="1078"/>
      <point x="700" y="1061"/>
      <point x="681" y="1028" type="curve" smooth="yes"/>
      <point x="486" y="673" type="line"/>
      <point x="399" y="854"/>
      <point x="326" y="987"/>
      <point x="233" y="1110" type="curve" smooth="yes"/>
      <point x="213" y="1135"/>
      <point x="183" y="1148"/>
      <point x="154" y="1148" type="curve" smooth="yes"/>
      <point x="102" y="1148"/>
      <point x="9" y="1137"/>
      <point x="-65" y="1127" type="curve"/>
      <point x="-61" y="1078" type="line"/>
      <point x="43" y="1078"/>
      <point x="69" y="1057"/>
      <point x="91" y="1028" type="curve" smooth="yes"/>
      <point x="177" y="918"/>
      <point x="287" y="724"/>
      <point x="373" y="535" type="curve"/>
      <point x="373" y="494" type="line"/>
      <point x="117" y="494" type="line"/>
      <point x="110" y="474"/>
      <point x="99" y="443"/>
      <point x="94" y="424" type="curve"/>
      <point x="114" y="400" type="line"/>
      <point x="373" y="400" type="line"/>
      <point x="373" y="116" type="line" smooth="yes"/>
      <point x="373" y="98"/>
      <point x="335" y="72"/>
      <point x="221" y="48" type="curve"/>
    </contour>
  </outline>
</glyph>
<glyph name="brokenbar" format="2">
  <advance width="451"/>
  <unicode hex="00A6"/>
  <outline>
    <contour>
      <point x="310" y="720" type="curve"/>
      <point x="310" y="1557" type="line"/>
      <point x="274" y="1580" type="line"/>
      <point x="235" y="1570"/>
      <point x="199" y="1552"/>
      <point x="162" y="1532" type="curve"/>
      <point x="162" y="693" type="line"/>
      <point x="199" y="670" type="line"/>
      <point x="230" y="679"/>
      <point x="285" y="701"/>
    </contour>
    <contour>
      <point x="310" y="-355" type="curve"/>
      <point x="310" y="471" type="line"/>
      <point x="298" y="480"/>
      <point x="286" y="488"/>
      <point x="274" y="496" type="curve"/>
      <point x="235" y="484"/>
      <point x="199" y="467"/>
      <point x="162" y="446" type="curve"/>
      <point x="162" y="-382" type="line"/>
      <point x="199" y="-406" type="line"/>
      <point x="230" y="-396"/>
      <point x="285" y="-375"/>
    </contour>
  </outline>
</glyph>
<glyph name="ordfeminine" format="2">
  <advance width="505"/>
  <unicode hex="00AA"/>
  <outline>
    <contour>
      <point x="493" y="735" type="curve"/>
      <point x="485" y="762" type="line"/>
      <point x="451" y="748"/>
      <point x="434" y="747"/>
      <point x="427" y="751" type="curve" smooth="yes"/>
      <point x="420" y="760"/>
      <point x="414" y="773"/>
      <point x="414" y="808" type="curve" smooth="yes"/>
      <point x="414" y="993" type="line" smooth="yes"/>
      <point x="414" y="1131"/>
      <point x="379" y="1175"/>
      <point x="289" y="1175" type="curve" smooth="yes"/>
      <point x="214" y="1175"/>
      <point x="77" y="1107"/>
      <point x="60" y="1025" type="curve"/>
      <point x="69" y="1005" type="line"/>
      <point x="85" y="1001"/>
      <point x="179" y="1023"/>
      <point x="175" y="1034" type="curve" smooth="yes"/>
      <point x="158" y="1085"/>
      <point x="205" y="1118"/>
      <point x="242" y="1118" type="curve" smooth="yes"/>
      <point x="307" y="1118"/>
      <point x="319" y="1076"/>
      <point x="319" y="998" type="curve" smooth="yes"/>
      <point x="319" y="812" type="line" smooth="yes"/>
      <point x="319" y="712"/>
      <point x="344" y="676"/>
      <point x="366" y="676" type="curve" smooth="yes"/>
      <point x="392" y="676"/>
      <point x="436" y="696"/>
    </contour>
    <contour>
      <point x="277" y="931" type="curve"/>
      <point x="387" y="958" type="line"/>
      <point x="384" y="1000" type="line"/>
      <point x="229" y="961" type="line" smooth="yes"/>
      <point x="102" y="928"/>
      <point x="46" y="862"/>
      <point x="46" y="784" type="curve" smooth="yes"/>
      <point x="46" y="705"/>
      <point x="107" y="676"/>
      <point x="157" y="676" type="curve" smooth="yes"/>
      <point x="203" y="676"/>
      <point x="271" y="701"/>
      <point x="336" y="769" type="curve"/>
      <point x="330" y="813" type="line"/>
      <point x="278" y="766"/>
      <point x="233" y="747"/>
      <point x="195" y="747" type="curve" smooth="yes"/>
      <point x="177" y="747"/>
      <point x="148" y="760"/>
      <point x="148" y="810" type="curve" smooth="yes"/>
      <point x="148" y="864"/>
      <point x="179" y="903"/>
    </contour>
    <contour>
      <point x="48" y="554" type="line"/>
      <point x="466" y="554" type="line"/>
      <point x="466" y="627" type="line"/>
      <point x="48" y="627" type="line"/>
    </contour>
  </outline>
</glyph>
<glyph name="guillemotleft" format="2">
  <advance width="911"/>
  <unicode hex="00AB"/>
  <outline>
    <contour>
      <point x="762" y="2" type="line"/>
      <point x="807" y="34" type="line"/>
      <point x="594" y="412" type="line"/>
      <point x="806" y="785" type="line"/>
      <point x="762" y="817" type="line"/>
      <point x="414" y="446" type="line"/>
      <point x="411" y="423"/>
      <point x="411" y="400"/>
      <point x="412" y="377" type="curve"/>
    </contour>
    <contour>
      <point x="404" y="2" type="line"/>
      <point x="448" y="34" type="line"/>
      <point x="236" y="412" type="line"/>
      <point x="447" y="785" type="line"/>
      <point x="404" y="817" type="line"/>
      <point x="55" y="446" type="line"/>
      <point x="52" y="423"/>
      <point x="52" y="400"/>
      <point x="53" y="377" type="curve"/>
    </contour>
  </outline>
</glyph>
<glyph name="logicalnot" format="2">
  <advance width="923"/>
  <unicode hex="00AC"/>
  <outline>
    <contour>
      <point x="852" y="220" type="curve"/>
      <point x="852" y="566" type="line"/>
      <point x="823" y="588" type="line"/>
      <point x="823" y="588"/>
      <point x="833" y="588"/>
      <point x="96" y="588" type="curve"/>
      <point x="84" y="564"/>
      <point x="69" y="525"/>
      <point x="63" y="499" type="curve"/>
      <point x="88" y="475" type="line"/>
      <point x="738" y="475" type="line"/>
      <point x="738" y="194" type="line"/>
      <point x="764" y="168" type="line"/>
      <point x="795" y="179"/>
      <point x="827" y="201"/>
    </contour>
  </outline>
</glyph>
<glyph name="threesuperior" format="2">
  <advance width="647"/>
  <unicode hex="00B3"/>
  <anchor x="324" y="522" name="L"/>
  <anchor x="324" y="1340" name="U"/>
  <outline>
    <contour>
      <point x="566" y="803" type="curve"/>
      <point x="566" y="895"/>
      <point x="492" y="972"/>
      <point x="390" y="983" type="curve"/>
      <point x="474" y="1008"/>
      <point x="528" y="1074"/>
      <point x="528" y="1130" type="curve" smooth="yes"/>
      <point x="528" y="1207"/>
      <point x="467" y="1288"/>
      <point x="325" y="1288" type="curve" smooth="yes"/>
      <point x="182" y="1288"/>
      <point x="63" y="1196"/>
      <point x="63" y="1132" type="curve"/>
      <point x="82" y="1110" type="line"/>
      <point x="123" y="1112"/>
      <point x="172" y="1122"/>
      <point x="203" y="1137" type="curve"/>
      <point x="190" y="1188"/>
      <point x="228" y="1224"/>
      <point x="288" y="1224" type="curve" smooth="yes"/>
      <point x="364" y="1224"/>
      <point x="393" y="1172"/>
      <point x="393" y="1120" type="curve" smooth="yes"/>
      <point x="393" y="1074"/>
      <point x="373" y="1012"/>
      <point x="219" y="975" type="curve"/>
      <point x="229" y="929" type="line"/>
      <point x="256" y="933"/>
      <point x="252" y="933"/>
      <point x="277" y="933" type="curve" smooth="yes"/>
      <point x="345" y="933"/>
      <point x="429" y="897"/>
      <point x="429" y="785" type="curve" smooth="yes"/>
      <point x="429" y="689"/>
      <point x="363" y="640"/>
      <point x="266" y="640" type="curve" smooth="yes"/>
      <point x="201" y="640"/>
      <point x="143" y="656"/>
      <point x="64" y="707" type="curve"/>
      <point x="40" y="663" type="line"/>
      <point x="119" y="598"/>
      <point x="209" y="569"/>
      <point x="285" y="569" type="curve" smooth="yes"/>
      <point x="457" y="569"/>
      <point x="566" y="675"/>
    </contour>
  </outline>
</glyph>
<glyph name="acute" format="2">
  <advance width="615"/>
  <unicode hex="00B4"/>
  <anchor x="308" y="1334" name="U"/>
  <outline>
    <contour>
      <point x="262" y="989" type="curve"/>
      <point x="595" y="1348" type="line"/>
      <point x="572" y="1389" type="line"/>
      <point x="544" y="1396"/>
      <point x="445" y="1412"/>
      <point x="415" y="1414" type="curve"/>
      <point x="202" y="1019" type="line"/>
      <point x="217" y="1007"/>
      <point x="240" y="993"/>
    </contour>
  </outline>
</glyph>
<glyph name="mu" format="2">
  <advance width="1054"/>
  <unicode hex="00B5"/>
  <outline>
    <contour>
      <point x="1037" y="81" type="curve"/>
      <point x="1024" y="131" type="line"/>
      <point x="983" y="114"/>
      <point x="954" y="105"/>
      <point x="927" y="105" type="curve" smooth="yes"/>
      <point x="901" y="105"/>
      <point x="890" y="144"/>
      <point x="890" y="261" type="curve" smooth="yes"/>
      <point x="890" y="299"/>
      <point x="890" y="696"/>
      <point x="890" y="718" type="curve"/>
      <point x="892" y="797"/>
      <point x="901" y="837"/>
      <point x="905" y="869" type="curve"/>
      <point x="877" y="908" type="line"/>
      <point x="821" y="886"/>
      <point x="750" y="866"/>
      <point x="692" y="851" type="curve"/>
      <point x="708" y="828"/>
      <point x="727" y="748"/>
      <point x="727" y="708" type="curve" smooth="yes"/>
      <point x="727" y="677"/>
      <point x="727" y="232"/>
      <point x="727" y="204" type="curve" smooth="yes"/>
      <point x="727" y="82"/>
      <point x="753" y="-29"/>
      <point x="814" y="-29" type="curve" smooth="yes"/>
      <point x="862" y="-29"/>
      <point x="962" y="32"/>
    </contour>
    <contour>
      <point x="784" y="244" type="curve"/>
      <point x="770" y="338" type="line"/>
      <point x="651" y="155"/>
      <point x="572" y="133"/>
      <point x="501" y="133" type="curve" smooth="yes"/>
      <point x="409" y="133"/>
      <point x="337" y="256"/>
      <point x="337" y="350" type="curve" smooth="yes"/>
      <point x="337" y="363"/>
      <point x="337" y="858"/>
      <point x="337" y="866" type="curve"/>
      <point x="327" y="879"/>
      <point x="301" y="908"/>
      <point x="300" y="908" type="curve"/>
      <point x="227" y="874"/>
      <point x="157" y="861"/>
      <point x="55" y="846" type="curve"/>
      <point x="55" y="800" type="line"/>
      <point x="173" y="788"/>
      <point x="174" y="780"/>
      <point x="174" y="682" type="curve" smooth="yes"/>
      <point x="174" y="671"/>
      <point x="174" y="441"/>
      <point x="174" y="422" type="curve" smooth="yes"/>
      <point x="174" y="164"/>
      <point x="335" y="-29"/>
      <point x="463" y="-29" type="curve" smooth="yes"/>
      <point x="551" y="-29"/>
      <point x="663" y="61"/>
    </contour>
    <contour>
      <point x="262" y="434" type="curve"/>
      <point x="254" y="484"/>
      <point x="174" y="582"/>
      <point x="174" y="582" type="curve"/>
      <point x="174" y="515"/>
      <point x="174" y="-416"/>
      <point x="174" y="-444" type="curve"/>
      <point x="213" y="-473" type="line"/>
      <point x="243" y="-458"/>
      <point x="364" y="-411"/>
      <point x="400" y="-398" type="curve"/>
      <point x="332" y="-319"/>
      <point x="262" y="-165"/>
      <point x="263" y="102" type="curve"/>
      <point x="265" y="250"/>
      <point x="253" y="319"/>
    </contour>
  </outline>
</glyph>
<glyph name="cedilla" format="2">
  <advance width="443"/>
  <unicode hex="00B8"/>
  <anchor x="230" y="-568" name="L"/>
  <outline>
    <contour>
      <point x="396" y="-217" type="curve"/>
      <point x="396" y="-146"/>
      <point x="333" y="-110"/>
      <point x="259" y="-95" type="curve"/>
      <point x="307" y="47" type="line"/>
      <point x="223" y="49" type="line"/>
      <point x="157" y="-162"/>
      <point x="141" y="-196"/>
      <point x="141" y="-196" type="curve"/>
      <point x="212" y="-202"/>
      <point x="242" y="-217"/>
      <point x="242" y="-259" type="curve" smooth="yes"/>
      <point x="242" y="-300"/>
      <point x="194" y="-347"/>
      <point x="69" y="-368" type="curve"/>
      <point x="94" y="-420" type="line"/>
      <point x="296" y="-393"/>
      <point x="396" y="-310"/>
    </contour>
  </outline>
</glyph>
<glyph name="onesuperior" format="2">
  <advance width="647"/>
  <unicode hex="00B9"/>
  <anchor x="341" y="522" name="L"/>
  <anchor x="341" y="1340" name="U"/>
  <outline>
    <contour>
      <point x="111" y="587" type="line"/>
      <point x="566" y="587" type="line"/>
      <point x="566" y="629" type="line"/>
      <point x="434" y="643"/>
      <point x="410" y="665"/>
      <point x="410" y="680" type="curve" smooth="yes"/>
      <point x="410" y="1272" type="line"/>
      <point x="384" y="1293" type="line"/>
      <point x="325" y="1267"/>
      <point x="164" y="1214"/>
      <point x="90" y="1197" type="curve"/>
      <point x="106" y="1155" type="line"/>
      <point x="221" y="1177"/>
      <point x="258" y="1173"/>
      <point x="268" y="1164" type="curve" smooth="yes"/>
      <point x="279" y="1153"/>
      <point x="280" y="1138"/>
      <point x="280" y="1108" type="curve" smooth="yes"/>
      <point x="280" y="680" type="line" smooth="yes"/>
      <point x="280" y="664"/>
      <point x="247" y="643"/>
      <point x="111" y="629" type="curve"/>
    </contour>
  </outline>
</glyph>
<glyph name="guillemotright" format="2">
  <advance width="911"/>
  <unicode hex="00BB"/>
  <outline>
    <contour>
      <point x="149" y="2" type="line"/>
      <point x="499" y="377" type="line"/>
      <point x="500" y="400"/>
      <point x="500" y="423"/>
      <point x="497" y="446" type="curve"/>
      <point x="149" y="817" type="line"/>
      <point x="105" y="785" type="line"/>
      <point x="317" y="412" type="line"/>
      <point x="104" y="34" type="line"/>
    </contour>
    <contour>
      <point x="507" y="2" type="line"/>
      <point x="858" y="377" type="line"/>
      <point x="859" y="400"/>
      <point x="859" y="423"/>
      <point x="856" y="446" type="curve"/>
      <point x="507" y="817" type="line"/>
      <point x="464" y="785" type="line"/>
      <point x="675" y="412" type="line"/>
      <point x="463" y="34" type="line"/>
    </contour>
  </outline>
</glyph>
<glyph name="Ccedilla" format="2">
  <advance width="1060"/>
  <unicode hex="00C7"/>
  <anchor x="563" y="-580" name="L"/>
  <anchor x="592" y="1323" name="U"/>
  <outline>
    <contour>
      <point x="986" y="204" type="curve"/>
      <point x="982" y="213"/>
      <point x="960" y="246"/>
      <point x="946" y="253" type="curve"/>
      <point x="808" y="136"/>
      <point x="692" y="99"/>
      <point x="624" y="99" type="curve" smooth="yes"/>
      <point x="446" y="99"/>
      <point x="236" y="263"/>
      <point x="236" y="602" type="curve" smooth="yes"/>
      <point x="236" y="1003"/>
      <point x="442" y="1134"/>
      <point x="573" y="1134" type="curve" smooth="yes"/>
      <point x="684" y="1134"/>
      <point x="773" y="1090"/>
      <point x="837" y="1015" type="curve"/>
      <point x="878" y="1008" type="line"/>
      <point x="907" y="1037"/>
      <point x="982" y="1138"/>
      <point x="967" y="1150" type="curve" smooth="yes"/>
      <point x="902" y="1203"/>
      <point x="786" y="1246"/>
      <point x="649" y="1246" type="curve" smooth="yes"/>
      <point x="329" y="1246"/>
      <point x="63" y="978"/>
      <point x="63" y="566" type="curve" smooth="yes"/>
      <point x="63" y="192"/>
      <point x="308" y="-29"/>
      <point x="549" y="-29" type="curve" smooth="yes"/>
      <point x="685" y="-29"/>
      <point x="823" y="30"/>
    </contour>
    <contour>
      <point x="732" y="-221" type="curve"/>
      <point x="732" y="-149"/>
      <point x="668" y="-112"/>
      <point x="593" y="-97" type="curve"/>
      <point x="643" y="48" type="line"/>
      <point x="557" y="50" type="line"/>
      <point x="489" y="-165"/>
      <point x="473" y="-200"/>
      <point x="473" y="-200" type="curve"/>
      <point x="545" y="-207"/>
      <point x="576" y="-221"/>
      <point x="576" y="-265" type="curve" smooth="yes"/>
      <point x="576" y="-306"/>
      <point x="527" y="-355"/>
      <point x="400" y="-376" type="curve"/>
      <point x="425" y="-429" type="line"/>
      <point x="632" y="-401"/>
      <point x="732" y="-317"/>
    </contour>
  </outline>
</glyph>
<glyph name="Ntilde" format="2">
  <advance width="1276"/>
  <unicode hex="00D1"/>
  <anchor x="1006" y="0" name="H"/>
  <anchor x="639" y="-97" name="L"/>
  <anchor x="639" y="1633" name="U"/>
  <outline>
    <contour>
      <point x="1232" y="1168" type="curve"/>
      <point x="1232" y="1217" type="line"/>
      <point x="837" y="1217" type="line"/>
      <point x="837" y="1168" type="line"/>
      <point x="939" y="1153"/>
      <point x="973" y="1123"/>
      <point x="973" y="1108" type="curve" smooth="yes"/>
      <point x="973" y="69" type="line"/>
      <point x="1095" y="31" type="line"/>
      <point x="1095" y="1108" type="line" smooth="yes"/>
      <point x="1095" y="1126"/>
      <point x="1140" y="1155"/>
    </contour>
    <contour>
      <point x="1095" y="-29" type="curve"/>
      <point x="1095" y="122" type="line"/>
      <point x="1095" y="122"/>
      <point x="1006" y="236"/>
      <point x="979" y="273" type="curve" smooth="yes"/>
      <point x="357" y="1142" type="line" smooth="yes"/>
      <point x="309" y="1208"/>
      <point x="303" y="1217"/>
      <point x="265" y="1217" type="curve" smooth="yes"/>
      <point x="46" y="1217" type="line"/>
      <point x="46" y="1168" type="line"/>
      <point x="113" y="1157"/>
      <point x="175" y="1123"/>
      <point x="227" y="1049" type="curve" smooth="yes"/>
      <point x="951" y="34" type="line" smooth="yes"/>
      <point x="971" y="6"/>
      <point x="1017" y="-20"/>
    </contour>
    <contour>
      <point x="46" y="0" type="line"/>
      <point x="441" y="0" type="line"/>
      <point x="441" y="49" type="line"/>
      <point x="343" y="63"/>
      <point x="305" y="93"/>
      <point x="305" y="108" type="curve" smooth="yes"/>
      <point x="305" y="1179" type="line"/>
      <point x="182" y="1148" type="line"/>
      <point x="182" y="108" type="line" smooth="yes"/>
      <point x="182" y="91"/>
      <point x="139" y="61"/>
      <point x="46" y="49" type="curve"/>
    </contour>
    <contour>
      <point x="978" y="1577" type="curve"/>
      <point x="921" y="1601" type="line"/>
      <point x="878" y="1525"/>
      <point x="833" y="1484"/>
      <point x="782" y="1484" type="curve" smooth="yes"/>
      <point x="715" y="1484"/>
      <point x="636" y="1591"/>
      <point x="534" y="1591" type="curve" smooth="yes"/>
      <point x="430" y="1591"/>
      <point x="345" y="1463"/>
      <point x="300" y="1358" type="curve"/>
      <point x="356" y="1337" type="line"/>
      <point x="403" y="1408"/>
      <point x="440" y="1453"/>
      <point x="493" y="1453" type="curve" smooth="yes"/>
      <point x="573" y="1453"/>
      <point x="649" y="1346"/>
      <point x="743" y="1346" type="curve" smooth="yes"/>
      <point x="847" y="1346"/>
      <point x="933" y="1472"/>
    </contour>
  </outline>
</glyph>
<glyph name="Ocircumflex" format="2">
  <advance width="1185"/>
  <unicode hex="00D4"/>
  <anchor x="565" y="0" name="H"/>
  <anchor x="595" y="-97" name="L"/>
  <anchor x="654" y="0" name="O"/>
  <anchor x="1201" y="1063" name="R"/>
  <anchor x="595" y="1721" name="U"/>
  <outline>
    <contour>
      <point x="557" y="-29" type="curve" smooth="yes"/>
      <point x="852" y="-29"/>
      <point x="1104" y="275"/>
      <point x="1104" y="625" type="curve" smooth="yes"/>
      <point x="1104" y="940"/>
      <point x="933" y="1246"/>
      <point x="612" y="1246" type="curve" smooth="yes"/>
      <point x="303" y="1246"/>
      <point x="65" y="942"/>
      <point x="65" y="591" type="curve" smooth="yes"/>
      <point x="65" y="267"/>
      <point x="245" y="-29"/>
    </contour>
    <contour>
      <point x="588" y="91" type="curve" smooth="yes"/>
      <point x="398" y="91"/>
      <point x="238" y="330"/>
      <point x="238" y="619" type="curve" smooth="yes"/>
      <point x="238" y="934"/>
      <point x="364" y="1131"/>
      <point x="579" y="1131" type="curve" smooth="yes"/>
      <point x="790" y="1131"/>
      <point x="931" y="874"/>
      <point x="931" y="608" type="curve" smooth="yes"/>
      <point x="931" y="267"/>
      <point x="788" y="91"/>
    </contour>
    <contour>
      <point x="902" y="1368" type="curve"/>
      <point x="649" y="1672" type="line"/>
      <point x="540" y="1672" type="line"/>
      <point x="284" y="1368" type="line"/>
      <point x="302" y="1344"/>
      <point x="311" y="1328"/>
      <point x="332" y="1319" type="curve"/>
      <point x="593" y="1510" type="line"/>
      <point x="857" y="1319" type="line"/>
      <point x="879" y="1328"/>
      <point x="886" y="1344"/>
    </contour>
  </outline>
</glyph>
<glyph name="Oslash" format="2">
  <advance width="1185"/>
  <unicode hex="00D8"/>
  <anchor x="583" y="-97" name="L"/>
  <anchor x="583" y="1323" name="U"/>
  <outline>
    <contour>
      <point x="1102" y="625" type="curve"/>
      <point x="1102" y="940"/>
      <point x="931" y="1246"/>
      <point x="610" y="1246" type="curve" smooth="yes"/>
      <point x="301" y="1246"/>
      <point x="63" y="942"/>
      <point x="63" y="591" type="curve" smooth="yes"/>
      <point x="63" y="267"/>
      <point x="244" y="-29"/>
      <point x="555" y="-29" type="curve" smooth="yes"/>
      <point x="851" y="-29"/>
      <point x="1102" y="275"/>
    </contour>
    <contour>
      <point x="929" y="608" type="curve"/>
      <point x="929" y="267"/>
      <point x="786" y="91"/>
      <point x="586" y="91" type="curve" smooth="yes"/>
      <point x="396" y="91"/>
      <point x="236" y="330"/>
      <point x="236" y="619" type="curve" smooth="yes"/>
      <point x="236" y="934"/>
      <point x="362" y="1131"/>
      <point x="577" y="1131" type="curve" smooth="yes"/>
      <point x="788" y="1131"/>
      <point x="929" y="874"/>
    </contour>
    <contour>
      <point x="229" y="-2" type="curve"/>
      <point x="1094" y="1236" type="line"/>
      <point x="1067" y="1268" type="line"/>
      <point x="1028" y="1260"/>
      <point x="972" y="1242"/>
      <point x="937" y="1221" type="curve"/>
      <point x="70" y="-18" type="line"/>
      <point x="97" y="-51" type="line"/>
      <point x="129" y="-43"/>
      <point x="206" y="-22"/>
    </contour>
  </outline>
</glyph>
<glyph name="Yacute" format="2">
  <advance width="1171"/>
  <unicode hex="00DD"/>
  <anchor x="583" y="-97" name="L"/>
  <anchor x="583" y="1648" name="U"/>
  <outline>
    <contour>
      <point x="1135" y="1168" type="curve"/>
      <point x="1135" y="1217" type="line"/>
      <point x="751" y="1217" type="line"/>
      <point x="751" y="1168" type="line"/>
      <point x="849" y="1155"/>
      <point x="876" y="1138"/>
      <point x="857" y="1104" type="curve" smooth="yes"/>
      <point x="609" y="657" type="line"/>
      <point x="520" y="842"/>
      <point x="396" y="1062"/>
      <point x="301" y="1187" type="curve" smooth="yes"/>
      <point x="281" y="1213"/>
      <point x="250" y="1227"/>
      <point x="221" y="1227" type="curve" smooth="yes"/>
      <point x="168" y="1227"/>
      <point x="74" y="1215"/>
      <point x="0" y="1205" type="curve"/>
      <point x="4" y="1155" type="line"/>
      <point x="110" y="1155"/>
      <point x="135" y="1132"/>
      <point x="159" y="1104" type="curve"/>
      <point x="254" y="973"/>
      <point x="425" y="685"/>
      <point x="515" y="470" type="curve"/>
      <point x="645" y="470" type="line"/>
      <point x="987" y="1104" type="line" smooth="yes"/>
      <point x="1006" y="1137"/>
      <point x="1048" y="1151"/>
    </contour>
    <contour>
      <point x="340" y="0" type="line"/>
      <point x="827" y="0" type="line"/>
      <point x="827" y="49" type="line"/>
      <point x="708" y="73"/>
      <point x="670" y="102"/>
      <point x="670" y="119" type="curve" smooth="yes"/>
      <point x="670" y="615" type="line"/>
      <point x="495" y="615" type="line"/>
      <point x="495" y="119" type="line" smooth="yes"/>
      <point x="495" y="100"/>
      <point x="456" y="73"/>
      <point x="340" y="49" type="curve"/>
    </contour>
    <contour>
      <point x="453" y="1319" type="curve"/>
      <point x="911" y="1552" type="line"/>
      <point x="902" y="1600" type="line"/>
      <point x="882" y="1620"/>
      <point x="796" y="1665"/>
      <point x="770" y="1680" type="curve"/>
      <point x="404" y="1368" type="line"/>
      <point x="420" y="1346"/>
      <point x="432" y="1328"/>
    </contour>
  </outline>
</glyph>
<glyph name="Thorn" format="2">
  <advance width="1045"/>
  <unicode hex="00DE"/>
  <anchor x="504" y="-97" name="L"/>
  <anchor x="504" y="1323" name="U"/>
  <outline>
    <contour>
      <point x="965" y="645" type="curve"/>
      <point x="965" y="867"/>
      <point x="782" y="987"/>
      <point x="502" y="987" type="curve" smooth="yes"/>
      <point x="383" y="987"/>
      <point x="302" y="980"/>
      <point x="226" y="965" type="curve"/>
      <point x="238" y="888" type="line"/>
      <point x="309" y="895"/>
      <point x="380" y="900"/>
      <point x="448" y="900" type="curve" smooth="yes"/>
      <point x="641" y="900"/>
      <point x="792" y="811"/>
      <point x="792" y="606" type="curve" smooth="yes"/>
      <point x="792" y="423"/>
      <point x="649" y="334"/>
      <point x="534" y="334" type="curve" smooth="yes"/>
      <point x="489" y="334"/>
      <point x="443" y="338"/>
      <point x="391" y="362" type="curve"/>
      <point x="414" y="285" type="line"/>
      <point x="457" y="264"/>
      <point x="512" y="254"/>
      <point x="570" y="254" type="curve" smooth="yes"/>
      <point x="725" y="254"/>
      <point x="965" y="378"/>
    </contour>
    <contour>
      <point x="45" y="0" type="line"/>
      <point x="523" y="0" type="line"/>
      <point x="523" y="49" type="line"/>
      <point x="391" y="71"/>
      <point x="358" y="93"/>
      <point x="358" y="108" type="curve" smooth="yes"/>
      <point x="358" y="1108" type="line" smooth="yes"/>
      <point x="358" y="1126"/>
      <point x="393" y="1146"/>
      <point x="523" y="1168" type="curve"/>
      <point x="523" y="1217" type="line"/>
      <point x="45" y="1217" type="line"/>
      <point x="45" y="1168" type="line"/>
      <point x="137" y="1150"/>
      <point x="182" y="1123"/>
      <point x="182" y="1108" type="curve" smooth="yes"/>
      <point x="182" y="108" type="line" smooth="yes"/>
      <point x="182" y="91"/>
      <point x="131" y="67"/>
      <point x="45" y="49" type="curve"/>
    </contour>
  </outline>
</glyph>
<glyph name="ae" format="2">
  <advance width="1352"/>
  <unicode hex="00E6"/>
  <anchor x="705" y="0" name="H"/>
  <anchor x="705" y="-95" name="L"/>
  <anchor x="976" y="0" name="O"/>
  <anchor x="1401" y="851" name="R"/>
  <anchor x="705" y="993" name="U"/>
  <outline>
    <contour>
      <point x="277" y="-28" type="curve" smooth="yes"/>
      <point x="366" y="-28"/>
      <point x="515" y="37"/>
      <point x="624" y="169" type="curve"/>
      <point x="681" y="44"/>
      <point x="792" y="-28"/>
      <point x="902" y="-28" type="curve" smooth="yes"/>
      <point x="1028" y="-28"/>
      <point x="1122" y="8"/>
      <point x="1272" y="184" type="curve"/>
      <point x="1266" y="194"/>
      <point x="1249" y="220"/>
      <point x="1233" y="229" type="curve"/>
      <point x="1105" y="120"/>
      <point x="1046" y="106"/>
      <point x="967" y="106" type="curve" smooth="yes"/>
      <point x="827" y="106"/>
      <point x="748" y="263"/>
      <point x="748" y="401" type="curve" smooth="yes"/>
      <point x="748" y="421"/>
      <point x="749" y="440"/>
      <point x="750" y="457" type="curve"/>
      <point x="1169" y="457" type="line"/>
      <point x="1209" y="473"/>
      <point x="1255" y="499"/>
      <point x="1279" y="525" type="curve"/>
      <point x="1279" y="703"/>
      <point x="1202" y="908"/>
      <point x="976" y="908" type="curve" smooth="yes"/>
      <point x="902" y="908"/>
      <point x="799" y="877"/>
      <point x="718" y="782" type="curve"/>
      <point x="686" y="867"/>
      <point x="621" y="908"/>
      <point x="516" y="908" type="curve" smooth="yes"/>
      <point x="387" y="908"/>
      <point x="131" y="786"/>
      <point x="98" y="623" type="curve"/>
      <point x="113" y="586" type="line"/>
      <point x="143" y="577"/>
      <point x="300" y="620"/>
      <point x="293" y="643" type="curve"/>
      <point x="261" y="734"/>
      <point x="374" y="806"/>
      <point x="449" y="806" type="curve" smooth="yes"/>
      <point x="560" y="806"/>
      <point x="588" y="727"/>
      <point x="588" y="624" type="curve" smooth="yes"/>
      <point x="588" y="545" type="line"/>
      <point x="531" y="541"/>
      <point x="473" y="535"/>
      <point x="434" y="524" type="curve" smooth="yes"/>
      <point x="187" y="456"/>
      <point x="73" y="329"/>
      <point x="73" y="180" type="curve" smooth="yes"/>
      <point x="73" y="29"/>
      <point x="187" y="-28"/>
    </contour>
    <contour>
      <point x="347" y="106" type="curve" smooth="yes"/>
      <point x="312" y="106"/>
      <point x="247" y="130"/>
      <point x="247" y="224" type="curve" smooth="yes"/>
      <point x="247" y="333"/>
      <point x="342" y="408"/>
      <point x="482" y="439" type="curve" smooth="yes"/>
      <point x="512" y="447"/>
      <point x="550" y="450"/>
      <point x="588" y="453" type="curve"/>
      <point x="588" y="361" type="line" smooth="yes"/>
      <point x="588" y="307"/>
      <point x="591" y="277"/>
      <point x="601" y="236" type="curve"/>
      <point x="512" y="146"/>
      <point x="412" y="106"/>
    </contour>
    <contour>
      <point x="757" y="549" type="line"/>
      <point x="789" y="771"/>
      <point x="892" y="810"/>
      <point x="948" y="810" type="curve" smooth="yes"/>
      <point x="1058" y="810"/>
      <point x="1109" y="707"/>
      <point x="1109" y="583" type="curve" smooth="yes"/>
      <point x="1109" y="556"/>
      <point x="1099" y="549"/>
      <point x="1073" y="549" type="curve" smooth="yes"/>
    </contour>
  </outline>
</glyph>
<glyph name="edieresis" format="2">
  <advance width="901"/>
  <unicode hex="00EB"/>
  <anchor x="477" y="0" name="H"/>
  <anchor x="477" y="-95" name="L"/>
  <anchor x="525" y="0" name="O"/>
  <anchor x="958" y="851" name="R"/>
  <anchor x="486" y="1368" name="U"/>
  <outline>
    <contour>
      <point x="828" y="525" type="curve"/>
      <point x="828" y="697"/>
      <point x="744" y="908"/>
      <point x="499" y="908" type="curve" smooth="yes"/>
      <point x="425" y="908"/>
      <point x="335" y="871"/>
      <point x="277" y="830" type="curve" smooth="yes"/>
      <point x="147" y="739"/>
      <point x="73" y="583"/>
      <point x="73" y="412" type="curve" smooth="yes"/>
      <point x="73" y="146"/>
      <point x="244" y="-28"/>
      <point x="441" y="-28" type="curve" smooth="yes"/>
      <point x="575" y="-28"/>
      <point x="654" y="2"/>
      <point x="823" y="184" type="curve"/>
      <point x="817" y="194"/>
      <point x="800" y="220"/>
      <point x="784" y="229" type="curve"/>
      <point x="643" y="116"/>
      <point x="583" y="104"/>
      <point x="504" y="104" type="curve" smooth="yes"/>
      <point x="337" y="104"/>
      <point x="238" y="272"/>
      <point x="238" y="468" type="curve" smooth="yes"/>
      <point x="238" y="664"/>
      <point x="324" y="805"/>
      <point x="470" y="805" type="curve" smooth="yes"/>
      <point x="624" y="805"/>
      <point x="656" y="653"/>
      <point x="656" y="583" type="curve" smooth="yes"/>
      <point x="656" y="556"/>
      <point x="649" y="549"/>
      <point x="620" y="549" type="curve" smooth="yes"/>
      <point x="174" y="549" type="line"/>
      <point x="173" y="458" type="line"/>
      <point x="718" y="458" type="line"/>
      <point x="758" y="474"/>
      <point x="806" y="499"/>
    </contour>
    <contour>
      <point x="398" y="1195" type="curve"/>
      <point x="398" y="1258"/>
      <point x="368" y="1291"/>
      <point x="310" y="1291" type="curve" smooth="yes"/>
      <point x="247" y="1291"/>
      <point x="192" y="1230"/>
      <point x="192" y="1152" type="curve" smooth="yes"/>
      <point x="192" y="1090"/>
      <point x="220" y="1055"/>
      <point x="280" y="1055" type="curve" smooth="yes"/>
      <point x="347" y="1055"/>
      <point x="398" y="1118"/>
    </contour>
    <contour>
      <point x="779" y="1195" type="curve"/>
      <point x="779" y="1258"/>
      <point x="749" y="1291"/>
      <point x="691" y="1291" type="curve" smooth="yes"/>
      <point x="627" y="1291"/>
      <point x="573" y="1230"/>
      <point x="573" y="1152" type="curve" smooth="yes"/>
      <point x="573" y="1090"/>
      <point x="601" y="1055"/>
      <point x="661" y="1055" type="curve" smooth="yes"/>
      <point x="727" y="1055"/>
      <point x="779" y="1118"/>
    </contour>
  </outline>
</glyph>
<glyph name="icircumflex" format="2">
  <advance width="539"/>
  <unicode hex="00EE"/>
  <anchor x="277" y="0" name="H"/>
  <anchor x="277" y="-95" name="L"/>
  <anchor x="325" y="0" name="O"/>
  <anchor x="537" y="851" name="R"/>
  <anchor x="277" y="1423" name="U"/>
  <outline>
    <contour>
      <point x="66" y="0" type="line"/>
      <point x="487" y="0" type="line"/>
      <point x="487" y="48" type="line"/>
      <point x="396" y="65"/>
      <point x="358" y="91"/>
      <point x="358" y="106" type="curve" smooth="yes"/>
      <point x="358" y="908" type="line"/>
      <point x="319" y="908" type="line"/>
      <point x="249" y="877"/>
      <point x="152" y="850"/>
      <point x="66" y="834" type="curve"/>
      <point x="66" y="789" type="line"/>
      <point x="198" y="777"/>
      <point x="195" y="758"/>
      <point x="195" y="628" type="curve" smooth="yes"/>
      <point x="195" y="106" type="line" smooth="yes"/>
      <point x="195" y="89"/>
      <point x="150" y="65"/>
      <point x="66" y="48" type="curve"/>
    </contour>
    <contour>
      <point x="578" y="1037" type="curve"/>
      <point x="331" y="1397" type="line"/>
      <point x="223" y="1397" type="line"/>
      <point x="-28" y="1037" type="line"/>
      <point x="-10" y="1013"/>
      <point x="-1" y="998"/>
      <point x="20" y="989" type="curve"/>
      <point x="276" y="1231" type="line"/>
      <point x="534" y="989" type="line"/>
      <point x="556" y="998"/>
      <point x="563" y="1013"/>
    </contour>
  </outline>
</glyph>
<glyph name="eth" format="2">
  <advance width="966"/>
  <unicode hex="00F0"/>
  <anchor x="480" y="-95" name="L"/>
  <anchor x="482" y="1533" name="U"/>
  <outline>
    <contour>
      <point x="889" y="564" type="curve" smooth="yes"/>
      <point x="889" y="763"/>
      <point x="820" y="967"/>
      <point x="650" y="1154" type="curve"/>
      <point x="873" y="1250" type="line"/>
      <point x="868" y="1285" type="line"/>
      <point x="835" y="1296"/>
      <point x="829" y="1297"/>
      <point x="770" y="1305" type="curve"/>
      <point x="581" y="1223" type="line"/>
      <point x="528" y="1273"/>
      <point x="462" y="1323"/>
      <point x="393" y="1370" type="curve"/>
      <point x="188" y="1296" type="line"/>
      <point x="195" y="1250" type="line"/>
      <point x="301" y="1265"/>
      <point x="381" y="1223"/>
      <point x="450" y="1166" type="curve"/>
      <point x="210" y="1061" type="line"/>
      <point x="219" y="1025" type="line"/>
      <point x="262" y="1011"/>
      <point x="266" y="1012"/>
      <point x="313" y="1007" type="curve"/>
      <point x="521" y="1097" type="line"/>
      <point x="606" y="1008"/>
      <point x="663" y="914"/>
      <point x="695" y="795" type="curve"/>
      <point x="635" y="860"/>
      <point x="551" y="908"/>
      <point x="476" y="908" type="curve" smooth="yes"/>
      <point x="263" y="908"/>
      <point x="73" y="671"/>
      <point x="73" y="420" type="curve" smooth="yes"/>
      <point x="73" y="163"/>
      <point x="223" y="-28"/>
      <point x="472" y="-28" type="curve" smooth="yes"/>
      <point x="619" y="-28"/>
      <point x="889" y="126"/>
    </contour>
    <contour>
      <point x="726" y="561" type="curve"/>
      <point x="726" y="558"/>
      <point x="726" y="528"/>
      <point x="726" y="525" type="curve" smooth="yes"/>
      <point x="726" y="215"/>
      <point x="619" y="79"/>
      <point x="482" y="79" type="curve" smooth="yes"/>
      <point x="374" y="79"/>
      <point x="241" y="252"/>
      <point x="241" y="451" type="curve" smooth="yes"/>
      <point x="241" y="653"/>
      <point x="312" y="798"/>
      <point x="451" y="798" type="curve" smooth="yes"/>
      <point x="552" y="798"/>
      <point x="680" y="703"/>
    </contour>
  </outline>
</glyph>
<glyph name="yacute" format="2">
  <advance width="957"/>
  <unicode hex="00FD"/>
  <anchor x="735" y="-95" name="L"/>
  <anchor x="981" y="851" name="R"/>
  <anchor x="485" y="1351" name="U"/>
  <outline>
    <contour>
      <point x="938" y="832" type="curve"/>
      <point x="938" y="880" type="line"/>
      <point x="627" y="880" type="line"/>
      <point x="627" y="832" type="line"/>
      <point x="716" y="817"/>
      <point x="739" y="807"/>
      <point x="725" y="767" type="curve" smooth="yes"/>
      <point x="517" y="199" type="line"/>
      <point x="297" y="767" type="line" smooth="yes"/>
      <point x="281" y="809"/>
      <point x="303" y="819"/>
      <point x="397" y="832" type="curve"/>
      <point x="397" y="880" type="line"/>
      <point x="19" y="880" type="line"/>
      <point x="19" y="832" type="line"/>
      <point x="81" y="817"/>
      <point x="110" y="802"/>
      <point x="123" y="767" type="curve" smooth="yes"/>
      <point x="432" y="-22" type="line"/>
      <point x="405" y="-87" type="line" smooth="yes"/>
      <point x="360" y="-196"/>
      <point x="288" y="-283"/>
      <point x="242" y="-299" type="curve" smooth="yes"/>
      <point x="195" y="-315"/>
      <point x="131" y="-315"/>
      <point x="71" y="-278" type="curve"/>
      <point x="31" y="-303"/>
      <point x="-46" y="-400"/>
      <point x="-46" y="-417" type="curve" smooth="yes"/>
      <point x="-46" y="-441"/>
      <point x="29" y="-471"/>
      <point x="125" y="-471" type="curve" smooth="yes"/>
      <point x="259" y="-471"/>
      <point x="418" y="-356"/>
      <point x="522" y="-76" type="curve" smooth="yes"/>
      <point x="835" y="768" type="line" smooth="yes"/>
      <point x="848" y="805"/>
      <point x="863" y="814"/>
    </contour>
    <contour>
      <point x="457" y="989" type="curve"/>
      <point x="790" y="1348" type="line"/>
      <point x="767" y="1389" type="line"/>
      <point x="738" y="1397"/>
      <point x="639" y="1412"/>
      <point x="610" y="1414" type="curve"/>
      <point x="396" y="1019" type="line"/>
      <point x="411" y="1007"/>
      <point x="435" y="992"/>
    </contour>
  </outline>
</glyph>
<glyph name="ydieresis" format="2">
  <advance width="957"/>
  <unicode hex="00FF"/>
  <anchor x="735" y="-95" name="L"/>
  <anchor x="981" y="851" name="R"/>
  <anchor x="502" y="1368" name="U"/>
  <outline>
    <contour>
      <point x="938" y="832" type="curve"/>
      <point x="938" y="880" type="line"/>
      <point x="627" y="880" type="line"/>
      <point x="627" y="832" type="line"/>
      <point x="716" y="817"/>
      <point x="739" y="807"/>
      <point x="725" y="767" type="curve" smooth="yes"/>
      <point x="517" y="199" type="line"/>
      <point x="297" y="767" type="line" smooth="yes"/>
      <point x="281" y="809"/>
      <point x="303" y="819"/>
      <point x="397" y="832" type="curve"/>
      <point x="397" y="880" type="line"/>
      <point x="19" y="880" type="line"/>
      <point x="19" y="832" type="line"/>
      <point x="81" y="817"/>
      <point x="110" y="802"/>
      <point x="123" y="767" type="curve" smooth="yes"/>
      <point x="432" y="-22" type="line"/>
      <point x="405" y="-87" type="line" smooth="yes"/>
      <point x="360" y="-196"/>
      <point x="288" y="-283"/>
      <point x="242" y="-299" type="curve" smooth="yes"/>
      <point x="195" y="-315"/>
      <point x="131" y="-315"/>
      <point x="71" y="-278" type="curve"/>
      <point x="31" y="-303"/>
      <point x="-46" y="-400"/>
      <point x="-46" y="-417" type="curve" smooth="yes"/>
      <point x="-46" y="-441"/>
      <point x="29" y="-471"/>
      <point x="125" y="-471" type="curve" smooth="yes"/>
      <point x="259" y="-471"/>
      <point x="418" y="-356"/>
      <point x="522" y="-76" type="curve" smooth="yes"/>
      <point x="835" y="768" type="line" smooth="yes"/>
      <point x="848" y="805"/>
      <point x="863" y="814"/>
    </contour>
    <contour>
      <point x="414" y="1195" type="curve"/>
      <point x="414" y="1258"/>
      <point x="384" y="1291"/>
      <point x="326" y="1291" type="curve" smooth="yes"/>
      <point x="262" y="1291"/>
      <point x="208" y="1230"/>
      <point x="208" y="1152" type="curve" smooth="yes"/>
      <point x="208" y="1090"/>
      <point x="236" y="1055"/>
      <point x="296" y="1055" type="curve" smooth="yes"/>
      <point x="363" y="1055"/>
      <point x="414" y="1118"/>
    </contour>
    <contour>
      <point x="795" y="1195" type="curve"/>
      <point x="795" y="1258"/>
      <point x="765" y="1291"/>
      <point x="707" y="1291" type="curve" smooth="yes"/>
      <point x="643" y="1291"/>
      <point x="589" y="1230"/>
      <point x="589" y="1152" type="curve" smooth="yes"/>
      <point x="589" y="1090"/>
      <point x="617" y="1055"/>
      <point x="677" y="1055" type="curve" smooth="yes"/>
      <point x="743" y="1055"/>
      <point x="795" y="1118"/>
    </contour>
  </outline>
</glyph>
<glyph name="oe" format="2">
  <advance width="1532"/>
  <unicode hex="0153"/>
  <anchor x="766" y="0" name="H"/>
  <anchor x="766" y="-95" name="L"/>
  <anchor x="1162" y="0" name="O"/>
  <anchor x="1563" y="851" name="R"/>
  <anchor x="766" y="993" name="U"/>
  <outline>
    <contour>
      <point x="1459" y="525" type="curve"/>
      <point x="1459" y="686"/>
      <point x="1380" y="908"/>
      <point x="1139" y="908" type="curve" smooth="yes"/>
      <point x="1072" y="908"/>
      <point x="983" y="871"/>
      <point x="927" y="832" type="curve" smooth="yes"/>
      <point x="797" y="743"/>
      <point x="722" y="585"/>
      <point x="722" y="414" type="curve" smooth="yes"/>
      <point x="722" y="148"/>
      <point x="895" y="-28"/>
      <point x="1081" y="-28" type="curve" smooth="yes"/>
      <point x="1202" y="-28"/>
      <point x="1287" y="0"/>
      <point x="1452" y="184" type="curve"/>
      <point x="1446" y="194"/>
      <point x="1429" y="220"/>
      <point x="1413" y="229" type="curve"/>
      <point x="1275" y="118"/>
      <point x="1214" y="106"/>
      <point x="1145" y="106" type="curve" smooth="yes"/>
      <point x="982" y="106"/>
      <point x="887" y="275"/>
      <point x="887" y="472" type="curve" smooth="yes"/>
      <point x="887" y="668"/>
      <point x="977" y="806"/>
      <point x="1112" y="806" type="curve" smooth="yes"/>
      <point x="1260" y="806"/>
      <point x="1289" y="651"/>
      <point x="1289" y="583" type="curve" smooth="yes"/>
      <point x="1289" y="556"/>
      <point x="1279" y="549"/>
      <point x="1252" y="549" type="curve" smooth="yes"/>
      <point x="827" y="549" type="line"/>
      <point x="826" y="457" type="line"/>
      <point x="1348" y="457" type="line"/>
      <point x="1389" y="473"/>
      <point x="1435" y="499"/>
    </contour>
    <contour>
      <point x="887" y="470" type="curve"/>
      <point x="887" y="721"/>
      <point x="725" y="908"/>
      <point x="507" y="908" type="curve" smooth="yes"/>
      <point x="271" y="908"/>
      <point x="73" y="671"/>
      <point x="73" y="420" type="curve" smooth="yes"/>
      <point x="73" y="163"/>
      <point x="234" y="-28"/>
      <point x="453" y="-28" type="curve" smooth="yes"/>
      <point x="681" y="-28"/>
      <point x="887" y="215"/>
    </contour>
    <contour>
      <point x="722" y="430" type="curve"/>
      <point x="722" y="229"/>
      <point x="639" y="79"/>
      <point x="505" y="79" type="curve" smooth="yes"/>
      <point x="376" y="79"/>
      <point x="239" y="250"/>
      <point x="239" y="449" type="curve" smooth="yes"/>
      <point x="239" y="651"/>
      <point x="322" y="800"/>
      <point x="456" y="800" type="curve" smooth="yes"/>
      <point x="595" y="800"/>
      <point x="722" y="632"/>
    </contour>
  </outline>
</glyph>
<glyph name="circumflex" format="2">
  <advance width="690"/>
  <unicode hex="02C6"/>
  <outline>
    <contour>
      <point x="648" y="1037" type="curve"/>
      <point x="400" y="1397" type="line"/>
      <point x="292" y="1397" type="line"/>
      <point x="41" y="1037" type="line"/>
      <point x="59" y="1013"/>
      <point x="69" y="998"/>
      <point x="89" y="989" type="curve"/>
      <point x="345" y="1231" type="line"/>
      <point x="604" y="989" type="line"/>
      <point x="625" y="998"/>
      <point x="633" y="1013"/>
    </contour>
  </outline>
</glyph>
<glyph name="ring" format="2">
  <advance width="483"/>
  <unicode hex="02DA"/>
  <outline>
    <contour>
      <point x="422" y="1215" type="curve"/>
      <point x="422" y="1299"/>
      <point x="357" y="1368"/>
      <point x="271" y="1368" type="curve" smooth="yes"/>
      <point x="169" y="1368"/>
      <point x="62" y="1270"/>
      <point x="62" y="1139" type="curve" smooth="yes"/>
      <point x="62" y="1054"/>
      <point x="125" y="988"/>
      <point x="213" y="988" type="curve" smooth="yes"/>
      <point x="313" y="988"/>
      <point x="422" y="1085"/>
    </contour>
    <contour>
      <point x="326" y="1176" type="curve"/>
      <point x="326" y="1110"/>
      <point x="282" y="1071"/>
      <point x="233" y="1071" type="curve" smooth="yes"/>
      <point x="188" y="1071"/>
      <point x="158" y="1120"/>
      <point x="158" y="1178" type="curve" smooth="yes"/>
      <point x="158" y="1240"/>
      <point x="200" y="1285"/>
      <point x="251" y="1285" type="curve" smooth="yes"/>
      <point x="295" y="1285"/>
      <point x="326" y="1236"/>
    </contour>
  </outline>
</glyph>
<glyph name="danda" format="2">
  <advance width="405"/>
  <unicode hex="0964"/>
  <outline>
    <contour>
      <point x="358" y="933" type="curve"/>
      <point x="308" y="808"/>
      <point x="172" y="411"/>
      <point x="44" y="-6" type="curve"/>
      <point x="44" y="-6"/>
      <point x="81" y="-34"/>
      <point x="81" y="-34" type="curve"/>
      <point x="114" y="-16"/>
      <point x="190" y="36"/>
      <point x="213" y="67" type="curve"/>
      <point x="296" y="372"/>
      <point x="405" y="698"/>
      <point x="514" y="967" type="curve"/>
      <point x="491" y="999" type="line"/>
      <point x="447" y="986"/>
      <point x="400" y="964"/>
    </contour>
  </outline>
</glyph>
<glyph name="vowelcarrier-limb" format="2">
  <advance width="1030"/>
  <unicode hex="1900"/>
  <anchor x="525" y="1050" name="K"/>
  <anchor x="515" y="-100" name="L"/>
  <anchor x="870" y="1050" name="O"/>
  <anchor x="515" y="1050" name="U"/>
  <anchor x="927" y="50" name="V"/>
  <outline>
    <contour>
      <point x="822" y="879" type="curve"/>
      <point x="716" y="879" type="line"/>
      <point x="537" y="714"/>
      <point x="383" y="597"/>
      <point x="188" y="450" type="curve"/>
      <point x="202" y="415" type="line"/>
      <point x="551" y="415" type="line"/>
      <point x="525" y="440" type="line"/>
      <point x="386" y="296"/>
      <point x="174" y="116"/>
      <point x="21" y="-4" type="curve"/>
      <point x="35" y="-34" type="line"/>
      <point x="177" y="17"/>
      <point x="293" y="43"/>
      <point x="410" y="43" type="curve" smooth="yes"/>
      <point x="533" y="43"/>
      <point x="649" y="11"/>
      <point x="757" y="-34" type="curve"/>
      <point x="789" y="-16"/>
      <point x="843" y="36"/>
      <point x="865" y="67" type="curve"/>
      <point x="905" y="213"/>
      <point x="952" y="367"/>
      <point x="1009" y="540" type="curve" smooth="yes"/>
      <point x="1049" y="660"/>
      <point x="1094" y="789"/>
      <point x="1145" y="930" type="curve"/>
      <point x="1135" y="970" type="line"/>
      <point x="423" y="970" type="line"/>
      <point x="388" y="951"/>
      <point x="344" y="925"/>
      <point x="314" y="895" type="curve"/>
      <point x="327" y="855" type="line"/>
      <point x="1041" y="855" type="line"/>
      <point x="1000" y="889" type="line"/>
      <point x="942" y="722"/>
      <point x="888" y="564"/>
      <point x="843" y="429" type="curve" smooth="yes"/>
      <point x="799" y="297"/>
      <point x="766" y="185"/>
      <point x="743" y="102" type="curve"/>
      <point x="782" y="113" type="line"/>
      <point x="708" y="139"/>
      <point x="614" y="163"/>
      <point x="519" y="163" type="curve" smooth="yes"/>
      <point x="442" y="163"/>
      <point x="327" y="143"/>
      <point x="266" y="119" type="curve"/>
      <point x="303" y="129" type="line"/>
      <point x="361" y="171"/>
      <point x="566" y="374"/>
      <point x="684" y="495" type="curve"/>
      <point x="664" y="530" type="line"/>
      <point x="356" y="530" type="line"/>
      <point x="389" y="512" type="line"/>
      <point x="401" y="508"/>
      <point x="675" y="743"/>
    </contour>
  </outline>
</glyph>
<glyph name="ka-limb" format="2">
  <advance width="878"/>
  <unicode hex="1901"/>
  <anchor x="757" y="945" name="K"/>
  <anchor x="407" y="-90" name="L"/>
  <anchor x="987" y="945" name="O"/>
  <anchor x="745" y="945" name="U"/>
  <anchor x="843" y="45" name="V"/>
  <outline>
    <contour>
      <point x="402" y="873" type="curve"/>
      <point x="370" y="854"/>
      <point x="327" y="824"/>
      <point x="297" y="797" type="curve"/>
      <point x="313" y="761" type="line"/>
      <point x="311" y="761"/>
      <point x="943" y="761"/>
      <point x="860" y="761" type="curve"/>
      <point x="904" y="788" type="line"/>
      <point x="577" y="554"/>
      <point x="221" y="215"/>
      <point x="45" y="27" type="curve"/>
      <point x="56" y="0" type="line"/>
      <point x="792" y="0" type="line"/>
      <point x="822" y="21"/>
      <point x="854" y="53"/>
      <point x="875" y="77" type="curve"/>
      <point x="857" y="113" type="line"/>
      <point x="212" y="113" type="line"/>
      <point x="246" y="91" type="line"/>
      <point x="426" y="282"/>
      <point x="823" y="629"/>
      <point x="1111" y="837" type="curve"/>
      <point x="1100" y="873" type="line"/>
      <point x="1100" y="873"/>
      <point x="402" y="873"/>
    </contour>
  </outline>
</glyph>
<glyph name="kha-limb" format="2">
  <advance width="993"/>
  <unicode hex="1902"/>
  <anchor x="953" y="1050" name="K"/>
  <anchor x="463" y="-100" name="L"/>
  <anchor x="1190" y="1050" name="O"/>
  <anchor x="901" y="1050" name="U"/>
  <anchor x="955" y="50" name="V"/>
  <outline>
    <contour>
      <point x="805" y="209" type="curve"/>
      <point x="791" y="255" type="line"/>
      <point x="672" y="174"/>
      <point x="589" y="96"/>
      <point x="470" y="96" type="curve" smooth="yes"/>
      <point x="358" y="96"/>
      <point x="241" y="212"/>
      <point x="324" y="468" type="curve" smooth="yes"/>
      <point x="414" y="746"/>
      <point x="651" y="876"/>
      <point x="774" y="934" type="curve"/>
      <point x="690" y="970" type="line"/>
      <point x="531" y="901"/>
      <point x="295" y="751"/>
      <point x="189" y="421" type="curve" smooth="yes"/>
      <point x="96" y="132"/>
      <point x="205" y="-34"/>
      <point x="378" y="-34" type="curve" smooth="yes"/>
      <point x="550" y="-34"/>
      <point x="626" y="58"/>
    </contour>
    <contour>
      <point x="1128" y="845" type="line"/>
      <point x="1144" y="875"/>
      <point x="1170" y="912"/>
      <point x="1268" y="930" type="curve"/>
      <point x="1257" y="970" type="line"/>
      <point x="690" y="970" type="line"/>
      <point x="536" y="845" type="line"/>
    </contour>
    <contour>
      <point x="1191" y="929" type="line"/>
      <point x="948" y="838"/>
      <point x="787" y="606"/>
      <point x="708" y="363" type="curve" smooth="yes"/>
      <point x="618" y="87"/>
      <point x="675" y="-34"/>
      <point x="792" y="-34" type="curve" smooth="yes"/>
      <point x="890" y="-34"/>
      <point x="955" y="57"/>
      <point x="1026" y="130" type="curve"/>
      <point x="1013" y="166" type="line"/>
      <point x="962" y="124"/>
      <point x="922" y="94"/>
      <point x="893" y="94" type="curve" smooth="yes"/>
      <point x="823" y="94"/>
      <point x="768" y="187"/>
      <point x="845" y="423" type="curve" smooth="yes"/>
      <point x="893" y="572"/>
      <point x="994" y="758"/>
      <point x="1268" y="930" type="curve"/>
    </contour>
  </outline>
</glyph>
<glyph name="ga-limb" format="2">
  <advance width="854"/>
  <unicode hex="1903"/>
  <anchor x="827" y="1050" name="K"/>
  <anchor x="394" y="-100" name="L"/>
  <anchor x="1051" y="1050" name="O"/>
  <anchor x="769" y="1050" name="U"/>
  <anchor x="720" y="50" name="V"/>
  <outline>
    <contour>
      <point x="395" y="970" type="line"/>
      <point x="362" y="949"/>
      <point x="318" y="915"/>
      <point x="288" y="885" type="curve"/>
      <point x="302" y="845" type="line"/>
      <point x="637" y="845" type="line"/>
      <point x="604" y="873" type="line"/>
      <point x="483" y="776"/>
      <point x="330" y="605"/>
      <point x="258" y="524" type="curve"/>
      <point x="278" y="495" type="line"/>
      <point x="367" y="531"/>
      <point x="446" y="542"/>
      <point x="524" y="542" type="curve" smooth="yes"/>
      <point x="651" y="542"/>
      <point x="769" y="501"/>
      <point x="769" y="382" type="curve" smooth="yes"/>
      <point x="769" y="277"/>
      <point x="679" y="91"/>
      <point x="508" y="91" type="curve" smooth="yes"/>
      <point x="433" y="91"/>
      <point x="404" y="132"/>
      <point x="404" y="173" type="curve" smooth="yes"/>
      <point x="404" y="375"/>
      <point x="877" y="725"/>
      <point x="1040" y="845" type="curve"/>
      <point x="1060" y="876"/>
      <point x="1090" y="925"/>
      <point x="1104" y="954" type="curve"/>
      <point x="1100" y="957"/>
      <point x="1086" y="966"/>
      <point x="1076" y="970" type="curve"/>
      <point x="893" y="838"/>
      <point x="280" y="399"/>
      <point x="280" y="105" type="curve" smooth="yes"/>
      <point x="280" y="25"/>
      <point x="332" y="-34"/>
      <point x="429" y="-34" type="curve" smooth="yes"/>
      <point x="670" y="-34"/>
      <point x="905" y="260"/>
      <point x="905" y="462" type="curve" smooth="yes"/>
      <point x="905" y="608"/>
      <point x="741" y="647"/>
      <point x="615" y="647" type="curve" smooth="yes"/>
      <point x="579" y="647"/>
      <point x="478" y="635"/>
      <point x="412" y="604" type="curve"/>
      <point x="444" y="594" type="line"/>
      <point x="512" y="682"/>
      <point x="677" y="838"/>
      <point x="800" y="930" type="curve"/>
      <point x="789" y="970" type="line"/>
    </contour>
  </outline>
</glyph>
<glyph name="gha-limb" format="2">
  <advance width="846"/>
  <unicode hex="1904"/>
  <anchor x="791" y="1050" name="K"/>
  <anchor x="391" y="-100" name="L"/>
  <anchor x="1043" y="1050" name="O"/>
  <anchor x="755" y="1050" name="U"/>
  <anchor x="772" y="50" name="V"/>
  <outline>
    <contour>
      <point x="395" y="970" type="line"/>
      <point x="362" y="949"/>
      <point x="318" y="915"/>
      <point x="288" y="885" type="curve"/>
      <point x="301" y="845" type="line"/>
      <point x="910" y="845" type="line"/>
      <point x="816" y="561"/>
      <point x="709" y="261"/>
      <point x="634" y="-3" type="curve"/>
      <point x="634" y="-3"/>
      <point x="666" y="-37"/>
      <point x="668" y="-34" type="curve"/>
      <point x="700" y="-16"/>
      <point x="774" y="36"/>
      <point x="796" y="67" type="curve"/>
      <point x="864" y="315"/>
      <point x="946" y="587"/>
      <point x="1067" y="930" type="curve"/>
      <point x="1058" y="970" type="line"/>
    </contour>
    <contour>
      <point x="293" y="483" type="curve" smooth="yes"/>
      <point x="226" y="272"/>
      <point x="317" y="234"/>
      <point x="412" y="234" type="curve" smooth="yes"/>
      <point x="559" y="234"/>
      <point x="696" y="329"/>
      <point x="810" y="416" type="curve"/>
      <point x="827" y="526" type="line"/>
      <point x="761" y="449"/>
      <point x="611" y="344"/>
      <point x="516" y="344" type="curve" smooth="yes"/>
      <point x="414" y="344"/>
      <point x="391" y="396"/>
      <point x="434" y="533" type="curve"/>
      <point x="466" y="632"/>
      <point x="558" y="901"/>
      <point x="559" y="904" type="curve"/>
      <point x="436" y="904" type="line"/>
      <point x="432" y="900"/>
      <point x="337" y="624"/>
    </contour>
  </outline>
</glyph>
<glyph name="nga-limb" format="2">
  <advance width="1132"/>
  <unicode hex="1905"/>
  <anchor x="570" y="1050" name="K"/>
  <anchor x="460" y="-100" name="L"/>
  <anchor x="760" y="1050" name="O"/>
  <anchor x="560" y="1050" name="U"/>
  <anchor x="788" y="50" name="V"/>
  <outline>
    <contour>
      <point x="496" y="970" type="line"/>
      <point x="463" y="951"/>
      <point x="419" y="925"/>
      <point x="389" y="895" type="curve"/>
      <point x="403" y="855" type="line"/>
      <point x="722" y="855" type="line"/>
      <point x="693" y="871" type="line"/>
      <point x="561" y="767"/>
      <point x="448" y="647"/>
      <point x="337" y="528" type="curve"/>
      <point x="348" y="500" type="line"/>
      <point x="399" y="524"/>
      <point x="448" y="537"/>
      <point x="488" y="537" type="curve" smooth="yes"/>
      <point x="659" y="537"/>
      <point x="725" y="478"/>
      <point x="725" y="387" type="curve" smooth="yes"/>
      <point x="725" y="296"/>
      <point x="642" y="86"/>
      <point x="435" y="86" type="curve" smooth="yes"/>
      <point x="287" y="86"/>
      <point x="216" y="176"/>
      <point x="216" y="307" type="curve" smooth="yes"/>
      <point x="216" y="441"/>
      <point x="298" y="651"/>
      <point x="366" y="746" type="curve"/>
      <point x="362" y="754"/>
      <point x="351" y="761"/>
      <point x="342" y="763" type="curve"/>
      <point x="201" y="623"/>
      <point x="86" y="424"/>
      <point x="86" y="233" type="curve" smooth="yes"/>
      <point x="86" y="81"/>
      <point x="166" y="-34"/>
      <point x="356" y="-34" type="curve" smooth="yes"/>
      <point x="583" y="-34"/>
      <point x="885" y="249"/>
      <point x="885" y="471" type="curve" smooth="yes"/>
      <point x="885" y="590"/>
      <point x="798" y="657"/>
      <point x="653" y="657" type="curve" smooth="yes"/>
      <point x="599" y="657"/>
      <point x="563" y="648"/>
      <point x="523" y="625" type="curve"/>
      <point x="530" y="610" type="line"/>
      <point x="655" y="723"/>
      <point x="745" y="822"/>
      <point x="887" y="930" type="curve"/>
      <point x="869" y="970" type="line"/>
    </contour>
    <contour>
      <point x="1236" y="854" type="curve" smooth="yes"/>
      <point x="1236" y="914"/>
      <point x="1196" y="960"/>
      <point x="1113" y="960" type="curve" smooth="yes"/>
      <point x="1004" y="960"/>
      <point x="864" y="867"/>
      <point x="864" y="753" type="curve" smooth="yes"/>
      <point x="864" y="695"/>
      <point x="906" y="657"/>
      <point x="981" y="657" type="curve" smooth="yes"/>
      <point x="1092" y="657"/>
      <point x="1236" y="743"/>
    </contour>
    <contour>
      <point x="982" y="788" type="curve" smooth="yes"/>
      <point x="982" y="827"/>
      <point x="1011" y="883"/>
      <point x="1054" y="883" type="curve" smooth="yes"/>
      <point x="1092" y="883"/>
      <point x="1113" y="860"/>
      <point x="1113" y="826" type="curve" smooth="yes"/>
      <point x="1113" y="785"/>
      <point x="1086" y="730"/>
      <point x="1037" y="730" type="curve" smooth="yes"/>
      <point x="1001" y="730"/>
      <point x="982" y="754"/>
    </contour>
  </outline>
</glyph>
<glyph name="ca-limb" format="2">
  <advance width="934"/>
  <unicode hex="1906"/>
  <anchor x="827" y="1050" name="K"/>
  <anchor x="435" y="-100" name="L"/>
  <anchor x="1131" y="1050" name="O"/>
  <anchor x="808" y="1050" name="U"/>
  <anchor x="859" y="50" name="V"/>
  <outline>
    <contour>
      <point x="1020" y="926" type="curve"/>
      <point x="973" y="802"/>
      <point x="844" y="414"/>
      <point x="723" y="-3" type="curve"/>
      <point x="723" y="-3"/>
      <point x="756" y="-34"/>
      <point x="756" y="-34" type="curve"/>
      <point x="789" y="-16"/>
      <point x="860" y="36"/>
      <point x="882" y="67" type="curve"/>
      <point x="961" y="372"/>
      <point x="1064" y="691"/>
      <point x="1169" y="960" type="curve"/>
      <point x="1149" y="1000" type="line"/>
      <point x="1107" y="987"/>
      <point x="1060" y="957"/>
    </contour>
    <contour>
      <point x="317" y="837" type="curve"/>
      <point x="334" y="796" type="line"/>
      <point x="452" y="885"/>
      <point x="527" y="902"/>
      <point x="579" y="902" type="curve"/>
      <point x="716" y="901"/>
      <point x="705" y="774"/>
      <point x="672" y="672" type="curve" smooth="yes"/>
      <point x="629" y="539"/>
      <point x="529" y="442"/>
      <point x="516" y="433" type="curve"/>
      <point x="495" y="423"/>
      <point x="463" y="418"/>
      <point x="426" y="418" type="curve" smooth="yes"/>
      <point x="379" y="418"/>
      <point x="337" y="442"/>
      <point x="349" y="483" type="curve" smooth="yes"/>
      <point x="361" y="523"/>
      <point x="429" y="564"/>
      <point x="473" y="587" type="curve"/>
      <point x="469" y="627" type="line"/>
      <point x="275" y="554"/>
      <point x="224" y="514"/>
      <point x="203" y="450" type="curve" smooth="yes"/>
      <point x="180" y="380"/>
      <point x="239" y="318"/>
      <point x="331" y="318" type="curve" smooth="yes"/>
      <point x="471" y="318"/>
      <point x="733" y="432"/>
      <point x="831" y="732" type="curve" smooth="yes"/>
      <point x="892" y="921"/>
      <point x="810" y="995"/>
      <point x="675" y="995" type="curve" smooth="yes"/>
      <point x="612" y="995"/>
      <point x="534" y="980"/>
      <point x="470" y="943" type="curve" smooth="yes"/>
      <point x="419" y="913"/>
      <point x="364" y="875"/>
    </contour>
  </outline>
</glyph>
<glyph name="cha-limb" format="2">
  <advance width="997"/>
  <unicode hex="1907"/>
  <anchor x="865" y="945" name="K"/>
  <anchor x="469" y="-90" name="L"/>
  <anchor x="1050" y="945" name="O"/>
  <anchor x="820" y="945" name="U"/>
  <anchor x="868" y="45" name="V"/>
  <outline>
    <contour>
      <point x="409" y="873" type="line"/>
      <point x="376" y="854"/>
      <point x="333" y="824"/>
      <point x="304" y="797" type="curve"/>
      <point x="318" y="761" type="line"/>
      <point x="1120" y="761" type="line"/>
      <point x="1172" y="783"/>
      <point x="1201" y="805"/>
      <point x="1242" y="837" type="curve"/>
      <point x="1232" y="873" type="line"/>
    </contour>
    <contour>
      <point x="722" y="814" type="line"/>
      <point x="520" y="763"/>
      <point x="255" y="531"/>
      <point x="194" y="335" type="curve" smooth="yes"/>
      <point x="117" y="87"/>
      <point x="282" y="-31"/>
      <point x="468" y="-31" type="curve" smooth="yes"/>
      <point x="637" y="-31"/>
      <point x="802" y="24"/>
      <point x="976" y="161" type="curve"/>
      <point x="960" y="203" type="line"/>
      <point x="843" y="129"/>
      <point x="714" y="86"/>
      <point x="586" y="86" type="curve" smooth="yes"/>
      <point x="439" y="86"/>
      <point x="274" y="168"/>
      <point x="341" y="382" type="curve" smooth="yes"/>
      <point x="410" y="604"/>
      <point x="657" y="763"/>
      <point x="870" y="803" type="curve"/>
    </contour>
    <contour>
      <point x="431" y="602" type="curve"/>
      <point x="346" y="484" type="line"/>
      <point x="458" y="489"/>
      <point x="627" y="487"/>
      <point x="724" y="491" type="curve"/>
      <point x="662" y="434"/>
      <point x="602" y="371"/>
      <point x="543" y="296" type="curve"/>
      <point x="553" y="263" type="line"/>
      <point x="835" y="263"/>
      <point x="878" y="267"/>
      <point x="893" y="274" type="curve"/>
      <point x="926" y="291"/>
      <point x="973" y="323"/>
      <point x="1007" y="358" type="curve"/>
      <point x="996" y="385" type="line"/>
      <point x="981" y="377"/>
      <point x="887" y="373"/>
      <point x="702" y="374" type="curve"/>
      <point x="764" y="441"/>
      <point x="828" y="505"/>
      <point x="897" y="572" type="curve"/>
      <point x="890" y="609" type="line"/>
      <point x="733" y="599"/>
      <point x="577" y="601"/>
    </contour>
  </outline>
</glyph>
<glyph name="ja-limb" format="2">
  <advance width="1015"/>
  <unicode hex="1908"/>
  <anchor x="829" y="945" name="K"/>
  <anchor x="478" y="-90" name="L"/>
  <anchor x="1178" y="945" name="O"/>
  <anchor x="815" y="945" name="U"/>
  <anchor x="936" y="45" name="V"/>
  <outline>
    <contour>
      <point x="409" y="873" type="line"/>
      <point x="376" y="854"/>
      <point x="333" y="824"/>
      <point x="304" y="797" type="curve"/>
      <point x="318" y="761" type="line"/>
      <point x="1050" y="761" type="line"/>
      <point x="965" y="505"/>
      <point x="867" y="235"/>
      <point x="800" y="-3" type="curve"/>
      <point x="800" y="-3"/>
      <point x="834" y="-31"/>
      <point x="834" y="-31" type="curve"/>
      <point x="867" y="-14"/>
      <point x="938" y="32"/>
      <point x="957" y="60" type="curve"/>
      <point x="1017" y="284"/>
      <point x="1095" y="528"/>
      <point x="1204" y="837" type="curve"/>
      <point x="1194" y="873" type="line"/>
    </contour>
    <contour>
      <point x="224" y="494" type="curve"/>
      <point x="248" y="471" type="line"/>
      <point x="339" y="500"/>
      <point x="394" y="507"/>
      <point x="446" y="506" type="curve" smooth="yes"/>
      <point x="619" y="504"/>
      <point x="684" y="445"/>
      <point x="647" y="346" type="curve" smooth="yes"/>
      <point x="628" y="295"/>
      <point x="606" y="257"/>
      <point x="571" y="239" type="curve" smooth="yes"/>
      <point x="523" y="213"/>
      <point x="474" y="207"/>
      <point x="421" y="207" type="curve" smooth="yes"/>
      <point x="287" y="207"/>
      <point x="266" y="256"/>
      <point x="303" y="309" type="curve"/>
      <point x="278" y="322" type="line"/>
      <point x="229" y="296"/>
      <point x="186" y="267"/>
      <point x="149" y="235" type="curve"/>
      <point x="142" y="225"/>
      <point x="137" y="214"/>
      <point x="134" y="205" type="curve" smooth="yes"/>
      <point x="121" y="166"/>
      <point x="168" y="102"/>
      <point x="344" y="102" type="curve" smooth="yes"/>
      <point x="453" y="102"/>
      <point x="547" y="143"/>
      <point x="653" y="220" type="curve" smooth="yes"/>
      <point x="735" y="279"/>
      <point x="784" y="350"/>
      <point x="803" y="407" type="curve" smooth="yes"/>
      <point x="852" y="560"/>
      <point x="721" y="611"/>
      <point x="565" y="611" type="curve" smooth="yes"/>
      <point x="496" y="611"/>
      <point x="442" y="604"/>
      <point x="356" y="584" type="curve"/>
      <point x="313" y="560"/>
      <point x="269" y="531"/>
    </contour>
  </outline>
</glyph>
<glyph name="jha-limb" format="2">
  <advance width="725"/>
  <unicode hex="1909"/>
  <anchor x="712" y="945" name="K"/>
  <anchor x="358" y="-90" name="L"/>
  <anchor x="901" y="945" name="O"/>
  <anchor x="694" y="945" name="U"/>
  <anchor x="694" y="45" name="V"/>
  <outline>
    <contour>
      <point x="956" y="837" type="curve"/>
      <point x="944" y="873" type="line"/>
      <point x="688" y="873" type="line" smooth="yes"/>
      <point x="592" y="873"/>
      <point x="288" y="749"/>
      <point x="232" y="574" type="curve" smooth="yes"/>
      <point x="196" y="466"/>
      <point x="263" y="374"/>
      <point x="423" y="374" type="curve" smooth="yes"/>
      <point x="490" y="374"/>
      <point x="639" y="403"/>
      <point x="757" y="477" type="curve"/>
      <point x="740" y="513" type="line"/>
      <point x="680" y="504"/>
      <point x="647" y="491"/>
      <point x="547" y="491" type="curve" smooth="yes"/>
      <point x="415" y="491"/>
      <point x="348" y="549"/>
      <point x="376" y="627" type="curve" smooth="yes"/>
      <point x="402" y="704"/>
      <point x="503" y="761"/>
      <point x="570" y="761" type="curve" smooth="yes"/>
      <point x="833" y="761" type="line"/>
      <point x="884" y="783"/>
      <point x="913" y="805"/>
    </contour>
    <contour>
      <point x="739" y="150" type="line"/>
      <point x="684" y="129"/>
      <point x="520" y="86"/>
      <point x="428" y="86" type="curve" smooth="yes"/>
      <point x="270" y="86"/>
      <point x="239" y="167"/>
      <point x="260" y="232" type="curve" smooth="yes"/>
      <point x="294" y="344"/>
      <point x="431" y="381"/>
      <point x="489" y="410" type="curve"/>
      <point x="382" y="415" type="line"/>
      <point x="238" y="357"/>
      <point x="128" y="255"/>
      <point x="103" y="177" type="curve" smooth="yes"/>
      <point x="65" y="60"/>
      <point x="132" y="-31"/>
      <point x="334" y="-31" type="curve" smooth="yes"/>
      <point x="443" y="-31"/>
      <point x="641" y="30"/>
      <point x="759" y="107" type="curve"/>
    </contour>
    <contour>
      <point x="759" y="107" type="curve"/>
      <point x="750" y="122"/>
      <point x="677" y="113"/>
      <point x="669" y="126" type="curve"/>
      <point x="533" y="10"/>
      <point x="327" y="-123"/>
      <point x="138" y="-230" type="curve"/>
      <point x="139" y="-241"/>
      <point x="148" y="-258"/>
      <point x="159" y="-270" type="curve"/>
      <point x="349" y="-189"/>
      <point x="583" y="-35"/>
    </contour>
  </outline>
</glyph>
<glyph name="yan-limb" format="2">
  <advance width="1035"/>
  <unicode hex="190A"/>
  <anchor x="829" y="945" name="K"/>
  <anchor x="488" y="-90" name="L"/>
  <anchor x="819" y="945" name="O"/>
  <anchor x="825" y="945" name="U"/>
  <anchor x="924" y="45" name="V"/>
  <outline>
    <contour>
      <point x="967" y="25" type="curve"/>
      <point x="903" y="410"/>
      <point x="793" y="590"/>
      <point x="605" y="590" type="curve" smooth="yes"/>
      <point x="454" y="590"/>
      <point x="201" y="451"/>
      <point x="129" y="230" type="curve" smooth="yes"/>
      <point x="78" y="75"/>
      <point x="166" y="-31"/>
      <point x="296" y="-31" type="curve" smooth="yes"/>
      <point x="431" y="-31"/>
      <point x="616" y="132"/>
      <point x="671" y="301" type="curve" smooth="yes"/>
      <point x="810" y="727"/>
      <point x="845" y="837"/>
      <point x="845" y="837" type="curve"/>
      <point x="697" y="779" type="line"/>
      <point x="697" y="779"/>
      <point x="546" y="314"/>
      <point x="521" y="238" type="curve" smooth="yes"/>
      <point x="484" y="124"/>
      <point x="458" y="88"/>
      <point x="373" y="86" type="curve" smooth="yes"/>
      <point x="301" y="85"/>
      <point x="226" y="154"/>
      <point x="268" y="281" type="curve" smooth="yes"/>
      <point x="310" y="409"/>
      <point x="409" y="472"/>
      <point x="505" y="472" type="curve" smooth="yes"/>
      <point x="726" y="472"/>
      <point x="804" y="306"/>
      <point x="893" y="-31" type="curve"/>
      <point x="922" y="-14"/>
      <point x="950" y="7"/>
    </contour>
    <contour>
      <point x="409" y="873" type="line"/>
      <point x="376" y="854"/>
      <point x="333" y="824"/>
      <point x="304" y="797" type="curve"/>
      <point x="318" y="761" type="line"/>
      <point x="1140" y="761" type="line"/>
      <point x="1191" y="783"/>
      <point x="1221" y="805"/>
      <point x="1262" y="837" type="curve"/>
      <point x="1251" y="873" type="line"/>
    </contour>
    <contour>
      <point x="1119" y="479" type="curve"/>
      <point x="1103" y="493"/>
      <point x="1068" y="523"/>
      <point x="1046" y="536" type="curve"/>
      <point x="943" y="362"/>
      <point x="764" y="136"/>
      <point x="599" y="0" type="curve"/>
      <point x="602" y="-12"/>
      <point x="628" y="-40"/>
      <point x="631" y="-40" type="curve"/>
      <point x="813" y="90"/>
      <point x="1006" y="318"/>
    </contour>
  </outline>
</glyph>
<glyph name="ta-limb" format="2">
  <advance width="809"/>
  <unicode hex="190B"/>
  <anchor x="746" y="1050" name="K"/>
  <anchor x="359" y="-100" name="L"/>
  <anchor x="962" y="1050" name="O"/>
  <anchor x="746" y="1050" name="U"/>
  <anchor x="709" y="50" name="V"/>
  <outline>
    <contour>
      <point x="658" y="598" type="curve"/>
      <point x="475" y="598" type="line"/>
      <point x="439" y="578"/>
      <point x="388" y="539"/>
      <point x="360" y="511" type="curve"/>
      <point x="366" y="478" type="line"/>
      <point x="397" y="478"/>
      <point x="550" y="478"/>
      <point x="581" y="478" type="curve" smooth="yes"/>
      <point x="683" y="478"/>
      <point x="725" y="417"/>
      <point x="725" y="347" type="curve" smooth="yes"/>
      <point x="725" y="199"/>
      <point x="625" y="96"/>
      <point x="427" y="96" type="curve" smooth="yes"/>
      <point x="288" y="96"/>
      <point x="206" y="144"/>
      <point x="206" y="209" type="curve" smooth="yes"/>
      <point x="206" y="219"/>
      <point x="208" y="229"/>
      <point x="211" y="239" type="curve"/>
      <point x="208" y="244"/>
      <point x="183" y="254"/>
      <point x="179" y="254" type="curve"/>
      <point x="139" y="224"/>
      <point x="93" y="148"/>
      <point x="82" y="114" type="curve" smooth="yes"/>
      <point x="70" y="77"/>
      <point x="146" y="-34"/>
      <point x="355" y="-34" type="curve" smooth="yes"/>
      <point x="671" y="-34"/>
      <point x="879" y="231"/>
      <point x="879" y="428" type="curve" smooth="yes"/>
      <point x="879" y="524"/>
      <point x="821" y="598"/>
    </contour>
    <contour>
      <point x="665" y="593" type="curve"/>
      <point x="755" y="561" type="line"/>
      <point x="865" y="582"/>
      <point x="974" y="726"/>
      <point x="974" y="836" type="curve" smooth="yes"/>
      <point x="974" y="942"/>
      <point x="879" y="995"/>
      <point x="738" y="995" type="curve" smooth="yes"/>
      <point x="585" y="995"/>
      <point x="434" y="924"/>
      <point x="315" y="809" type="curve"/>
      <point x="335" y="779" type="line"/>
      <point x="438" y="860"/>
      <point x="555" y="887"/>
      <point x="658" y="887" type="curve" smooth="yes"/>
      <point x="770" y="887"/>
      <point x="828" y="845"/>
      <point x="828" y="785" type="curve" smooth="yes"/>
      <point x="828" y="717"/>
      <point x="760" y="629"/>
    </contour>
  </outline>
</glyph>
<glyph name="tha-limb" format="2">
  <advance width="1112"/>
  <unicode hex="190C"/>
  <anchor x="969" y="1050" name="K"/>
  <anchor x="505" y="-100" name="L"/>
  <anchor x="963" y="1050" name="O"/>
  <anchor x="879" y="1050" name="U"/>
  <anchor x="904" y="50" name="V"/>
  <outline>
    <contour>
      <point x="480" y="970" type="line"/>
      <point x="446" y="951"/>
      <point x="403" y="925"/>
      <point x="373" y="895" type="curve"/>
      <point x="387" y="855" type="line"/>
      <point x="830" y="855" type="line"/>
      <point x="813" y="801"/>
      <point x="669" y="349"/>
      <point x="642" y="264" type="curve" smooth="yes"/>
      <point x="616" y="185"/>
      <point x="593" y="147"/>
      <point x="577" y="126" type="curve" smooth="yes"/>
      <point x="563" y="109"/>
      <point x="534" y="96"/>
      <point x="479" y="96" type="curve" smooth="yes"/>
      <point x="383" y="96"/>
      <point x="298" y="146"/>
      <point x="298" y="245" type="curve" smooth="yes"/>
      <point x="298" y="426"/>
      <point x="531" y="524"/>
      <point x="715" y="524" type="curve" smooth="yes"/>
      <point x="884" y="524"/>
      <point x="990" y="477"/>
      <point x="990" y="358" type="curve" smooth="yes"/>
      <point x="990" y="254"/>
      <point x="902" y="94"/>
      <point x="794" y="9" type="curve"/>
      <point x="791" y="7"/>
      <point x="817" y="-32"/>
      <point x="823" y="-34" type="curve"/>
      <point x="1008" y="69"/>
      <point x="1143" y="280"/>
      <point x="1143" y="423" type="curve" smooth="yes"/>
      <point x="1143" y="545"/>
      <point x="1017" y="655"/>
      <point x="846" y="655" type="curve" smooth="yes"/>
      <point x="651" y="655"/>
      <point x="508" y="605"/>
      <point x="368" y="506" type="curve" smooth="yes"/>
      <point x="248" y="421"/>
      <point x="154" y="292"/>
      <point x="154" y="169" type="curve" smooth="yes"/>
      <point x="154" y="45"/>
      <point x="264" y="-34"/>
      <point x="398" y="-34" type="curve" smooth="yes"/>
      <point x="579" y="-34"/>
      <point x="733" y="147"/>
      <point x="794" y="334" type="curve" smooth="yes"/>
      <point x="948" y="808"/>
      <point x="824" y="428"/>
      <point x="988" y="930" type="curve"/>
      <point x="977" y="970" type="line"/>
    </contour>
  </outline>
</glyph>
<glyph name="da-limb" format="2">
  <advance width="1031"/>
  <unicode hex="190D"/>
  <anchor x="570" y="1050" name="K"/>
  <anchor x="515" y="-100" name="L"/>
  <anchor x="682" y="1050" name="O"/>
  <anchor x="515" y="1050" name="U"/>
  <anchor x="886" y="50" name="V"/>
  <outline>
    <contour>
      <point x="384" y="-34" type="curve" smooth="yes"/>
      <point x="715" y="-34"/>
      <point x="968" y="266"/>
      <point x="968" y="472" type="curve" smooth="yes"/>
      <point x="968" y="572"/>
      <point x="910" y="643"/>
      <point x="774" y="643" type="curve" smooth="yes"/>
      <point x="707" y="643"/>
      <point x="615" y="622"/>
      <point x="579" y="598" type="curve"/>
      <point x="591" y="580" type="line"/>
      <point x="643" y="664"/>
      <point x="721" y="767"/>
      <point x="809" y="842" type="curve"/>
      <point x="693" y="833" type="line"/>
      <point x="589" y="721"/>
      <point x="499" y="603"/>
      <point x="419" y="481" type="curve"/>
      <point x="434" y="446" type="line"/>
      <point x="523" y="498"/>
      <point x="576" y="521"/>
      <point x="654" y="521" type="curve" smooth="yes"/>
      <point x="768" y="521"/>
      <point x="805" y="459"/>
      <point x="805" y="388" type="curve" smooth="yes"/>
      <point x="805" y="320"/>
      <point x="760" y="96"/>
      <point x="482" y="96" type="curve" smooth="yes"/>
      <point x="344" y="96"/>
      <point x="218" y="171"/>
      <point x="218" y="276" type="curve" smooth="yes"/>
      <point x="218" y="300"/>
      <point x="221" y="319"/>
      <point x="243" y="358" type="curve"/>
      <point x="233" y="369"/>
      <point x="224" y="371"/>
      <point x="215" y="374" type="curve"/>
      <point x="165" y="339"/>
      <point x="82" y="243"/>
      <point x="82" y="182" type="curve" smooth="yes"/>
      <point x="82" y="97"/>
      <point x="153" y="-34"/>
    </contour>
    <contour>
      <point x="1065" y="853" type="curve" smooth="yes"/>
      <point x="1094" y="877"/>
      <point x="1138" y="933"/>
      <point x="1166" y="975" type="curve"/>
      <point x="1143" y="991" type="line"/>
      <point x="1011" y="903"/>
      <point x="870" y="881"/>
      <point x="755" y="881" type="curve" smooth="yes"/>
      <point x="653" y="881"/>
      <point x="513" y="918"/>
      <point x="467" y="985" type="curve"/>
      <point x="435" y="991" type="line"/>
      <point x="389" y="963"/>
      <point x="352" y="928"/>
      <point x="311" y="882" type="curve"/>
      <point x="299" y="833"/>
      <point x="516" y="747"/>
      <point x="639" y="747" type="curve" smooth="yes"/>
      <point x="793" y="747"/>
      <point x="1007" y="805"/>
    </contour>
  </outline>
</glyph>
<glyph name="dha-limb" format="2">
  <advance width="918"/>
  <unicode hex="190E"/>
  <anchor x="784" y="945" name="K"/>
  <anchor x="430" y="-90" name="L"/>
  <anchor x="919" y="945" name="O"/>
  <anchor x="766" y="945" name="U"/>
  <anchor x="763" y="45" name="V"/>
  <outline>
    <contour>
      <point x="382" y="873" type="line"/>
      <point x="349" y="854"/>
      <point x="306" y="824"/>
      <point x="277" y="797" type="curve"/>
      <point x="291" y="761" type="line"/>
      <point x="807" y="761" type="line"/>
      <point x="858" y="783"/>
      <point x="887" y="805"/>
      <point x="930" y="837" type="curve"/>
      <point x="918" y="873" type="line"/>
    </contour>
    <contour>
      <point x="473" y="774" type="line"/>
      <point x="374" y="728"/>
      <point x="304" y="649"/>
      <point x="282" y="583" type="curve" smooth="yes"/>
      <point x="247" y="475"/>
      <point x="324" y="401"/>
      <point x="432" y="401" type="curve" smooth="yes"/>
      <point x="499" y="401"/>
      <point x="599" y="421"/>
      <point x="718" y="495" type="curve"/>
      <point x="701" y="531" type="line"/>
      <point x="641" y="522"/>
      <point x="603" y="518"/>
      <point x="555" y="518" type="curve" smooth="yes"/>
      <point x="475" y="518"/>
      <point x="399" y="558"/>
      <point x="426" y="636" type="curve" smooth="yes"/>
      <point x="443" y="685"/>
      <point x="485" y="726"/>
      <point x="592" y="779" type="curve"/>
    </contour>
    <contour>
      <point x="433" y="433" type="line"/>
      <point x="288" y="375"/>
      <point x="184" y="255"/>
      <point x="159" y="177" type="curve" smooth="yes"/>
      <point x="118" y="51"/>
      <point x="193" y="-31"/>
      <point x="379" y="-31" type="curve" smooth="yes"/>
      <point x="614" y="-31"/>
      <point x="922" y="185"/>
      <point x="981" y="459" type="curve" smooth="yes"/>
      <point x="1005" y="573"/>
      <point x="970" y="719"/>
      <point x="1011" y="761" type="curve"/>
      <point x="1047" y="767"/>
      <point x="1127" y="801"/>
      <point x="1159" y="839" type="curve" smooth="yes"/>
      <point x="1162" y="842"/>
      <point x="1142" y="873"/>
      <point x="1140" y="873" type="curve"/>
      <point x="1084" y="855"/>
      <point x="1024" y="822"/>
      <point x="958" y="769" type="curve" smooth="yes"/>
      <point x="811" y="650"/>
      <point x="873" y="536"/>
      <point x="832" y="362" type="curve" smooth="yes"/>
      <point x="779" y="134"/>
      <point x="580" y="86"/>
      <point x="473" y="86" type="curve" smooth="yes"/>
      <point x="333" y="86"/>
      <point x="293" y="158"/>
      <point x="317" y="232" type="curve" smooth="yes"/>
      <point x="352" y="344"/>
      <point x="473" y="399"/>
      <point x="531" y="428" type="curve"/>
    </contour>
  </outline>
</glyph>
<glyph name="na-limb" format="2">
  <advance width="896"/>
  <unicode hex="190F"/>
  <anchor x="771" y="945" name="K"/>
  <anchor x="403" y="-90" name="L"/>
  <anchor x="1007" y="945" name="O"/>
  <anchor x="754" y="945" name="U"/>
  <anchor x="843" y="45" name="V"/>
  <outline>
    <component base="ka-limb"/>
    <contour>
      <point x="473" y="399" type="line"/>
      <point x="484" y="372" type="line"/>
      <point x="891" y="372" type="line"/>
      <point x="921" y="392"/>
      <point x="953" y="422"/>
      <point x="973" y="445" type="curve"/>
      <point x="957" y="484" type="line"/>
      <point x="649" y="484" type="line"/>
    </contour>
  </outline>
</glyph>
<glyph name="pa-limb" format="2">
  <advance width="1183"/>
  <unicode hex="1910"/>
  <anchor x="953" y="1050" name="K"/>
  <anchor x="559" y="-100" name="L"/>
  <anchor x="1169" y="1050" name="O"/>
  <anchor x="932" y="1050" name="U"/>
  <anchor x="1067" y="50" name="V"/>
  <outline>
    <contour>
      <point x="680" y="1000" type="curve"/>
      <point x="374" y="892"/>
      <point x="142" y="472"/>
      <point x="142" y="202" type="curve" smooth="yes"/>
      <point x="142" y="43"/>
      <point x="234" y="-34"/>
      <point x="342" y="-34" type="curve" smooth="yes"/>
      <point x="449" y="-34"/>
      <point x="552" y="38"/>
      <point x="663" y="179" type="curve"/>
      <point x="615" y="174" type="line"/>
      <point x="615" y="43"/>
      <point x="682" y="-34"/>
      <point x="796" y="-34" type="curve" smooth="yes"/>
      <point x="1103" y="-34"/>
      <point x="1329" y="417"/>
      <point x="1329" y="730" type="curve" smooth="yes"/>
      <point x="1329" y="860"/>
      <point x="1284" y="960"/>
      <point x="1208" y="996" type="curve"/>
      <point x="1163" y="975"/>
      <point x="1134" y="953"/>
      <point x="1091" y="907" type="curve"/>
      <point x="1093" y="863" type="line"/>
      <point x="1169" y="839"/>
      <point x="1192" y="747"/>
      <point x="1192" y="628" type="curve" smooth="yes"/>
      <point x="1192" y="478"/>
      <point x="1029" y="100"/>
      <point x="861" y="100" type="curve" smooth="yes"/>
      <point x="792" y="100"/>
      <point x="764" y="146"/>
      <point x="764" y="229" type="curve" smooth="yes"/>
      <point x="764" y="293"/>
      <point x="794" y="369"/>
      <point x="827" y="424" type="curve"/>
      <point x="819" y="462" type="line"/>
      <point x="755" y="448"/>
      <point x="686" y="411"/>
      <point x="634" y="368" type="curve"/>
      <point x="611" y="223"/>
      <point x="491" y="100"/>
      <point x="410" y="100" type="curve" smooth="yes"/>
      <point x="352" y="100"/>
      <point x="309" y="153"/>
      <point x="309" y="254" type="curve" smooth="yes"/>
      <point x="309" y="442"/>
      <point x="438" y="799"/>
      <point x="678" y="929" type="curve"/>
      <point x="679" y="951"/>
      <point x="679" y="978"/>
    </contour>
  </outline>
</glyph>
<glyph name="pha-limb" format="2">
  <advance width="1242"/>
  <unicode hex="1911"/>
  <anchor x="989" y="1050" name="K"/>
  <anchor x="562" y="-100" name="L"/>
  <anchor x="1146" y="1050" name="O"/>
  <anchor x="962" y="1050" name="U"/>
  <anchor x="1129" y="50" name="V"/>
  <outline>
    <contour>
      <point x="282" y="625" type="line"/>
      <point x="324" y="654"/>
      <point x="364" y="682"/>
      <point x="410" y="731" type="curve"/>
      <point x="443" y="813"/>
      <point x="510" y="860"/>
      <point x="559" y="860" type="curve" smooth="yes"/>
      <point x="691" y="860"/>
      <point x="694" y="637"/>
      <point x="694" y="381" type="curve" smooth="yes"/>
      <point x="694" y="150"/>
      <point x="759" y="-28"/>
      <point x="903" y="-28" type="curve" smooth="yes"/>
      <point x="1190" y="-28"/>
      <point x="1423" y="491"/>
      <point x="1423" y="786" type="curve" smooth="yes"/>
      <point x="1423" y="919"/>
      <point x="1363" y="995"/>
      <point x="1263" y="995" type="curve" smooth="yes"/>
      <point x="1053" y="995"/>
      <point x="926" y="816"/>
      <point x="749" y="565" type="curve" smooth="yes"/>
      <point x="442" y="130"/>
      <point x="392" y="100"/>
      <point x="319" y="100" type="curve" smooth="yes"/>
      <point x="253" y="100"/>
      <point x="203" y="156"/>
      <point x="268" y="354" type="curve"/>
      <point x="264" y="357"/>
      <point x="253" y="364"/>
      <point x="243" y="366" type="curve"/>
      <point x="204" y="335"/>
      <point x="161" y="299"/>
      <point x="128" y="254" type="curve"/>
      <point x="115" y="207"/>
      <point x="107" y="165"/>
      <point x="107" y="129" type="curve" smooth="yes"/>
      <point x="107" y="22"/>
      <point x="157" y="-34"/>
      <point x="283" y="-34" type="curve" smooth="yes"/>
      <point x="454" y="-34"/>
      <point x="612" y="183"/>
      <point x="777" y="412" type="curve" smooth="yes"/>
      <point x="1071" y="820"/>
      <point x="1126" y="860"/>
      <point x="1177" y="860" type="curve" smooth="yes"/>
      <point x="1237" y="860"/>
      <point x="1258" y="786"/>
      <point x="1258" y="669" type="curve" smooth="yes"/>
      <point x="1258" y="459"/>
      <point x="1129" y="100"/>
      <point x="976" y="100" type="curve" smooth="yes"/>
      <point x="869" y="100"/>
      <point x="840" y="379"/>
      <point x="840" y="610" type="curve" smooth="yes"/>
      <point x="840" y="866"/>
      <point x="809" y="995"/>
      <point x="676" y="995" type="curve" smooth="yes"/>
      <point x="513" y="995"/>
      <point x="352" y="865"/>
      <point x="257" y="653" type="curve"/>
    </contour>
  </outline>
</glyph>
<glyph name="ba-limb" format="2">
  <advance width="969"/>
  <unicode hex="1912"/>
  <anchor x="863" y="1050" name="K"/>
  <anchor x="452" y="-100" name="L"/>
  <anchor x="1045" y="1050" name="O"/>
  <anchor x="825" y="1050" name="U"/>
  <anchor x="870" y="50" name="V"/>
  <outline>
    <contour>
      <point x="440" y="970" type="line"/>
      <point x="406" y="949"/>
      <point x="363" y="915"/>
      <point x="333" y="885" type="curve"/>
      <point x="346" y="845" type="line"/>
      <point x="1120" y="845" type="line"/>
      <point x="1172" y="870"/>
      <point x="1202" y="894"/>
      <point x="1244" y="930" type="curve"/>
      <point x="1235" y="970" type="line"/>
    </contour>
    <contour>
      <point x="747" y="904" type="line"/>
      <point x="534" y="848"/>
      <point x="267" y="581"/>
      <point x="202" y="372" type="curve" smooth="yes"/>
      <point x="115" y="97"/>
      <point x="267" y="-34"/>
      <point x="462" y="-34" type="curve" smooth="yes"/>
      <point x="740" y="-34"/>
      <point x="965" y="156"/>
      <point x="1012" y="300" type="curve" smooth="yes"/>
      <point x="1054" y="431"/>
      <point x="1019" y="512"/>
      <point x="907" y="512" type="curve" smooth="yes"/>
      <point x="768" y="512"/>
      <point x="570" y="364"/>
      <point x="523" y="220" type="curve" smooth="yes"/>
      <point x="501" y="152"/>
      <point x="504" y="89"/>
      <point x="558" y="71" type="curve"/>
      <point x="626" y="90"/>
      <point x="694" y="110"/>
      <point x="762" y="129" type="curve"/>
      <point x="656" y="126"/>
      <point x="627" y="167"/>
      <point x="665" y="283" type="curve" smooth="yes"/>
      <point x="687" y="346"/>
      <point x="742" y="384"/>
      <point x="812" y="383" type="curve" smooth="yes"/>
      <point x="893" y="382"/>
      <point x="892" y="307"/>
      <point x="868" y="233" type="curve" smooth="yes"/>
      <point x="840" y="149"/>
      <point x="704" y="96"/>
      <point x="557" y="96" type="curve" smooth="yes"/>
      <point x="429" y="96"/>
      <point x="274" y="186"/>
      <point x="347" y="422" type="curve"/>
      <point x="425" y="670"/>
      <point x="681" y="848"/>
      <point x="895" y="892" type="curve"/>
    </contour>
  </outline>
</glyph>
<glyph name="bha-limb" format="2">
  <advance width="1128"/>
  <unicode hex="1913"/>
  <anchor x="586" y="1050" name="K"/>
  <anchor x="557" y="-100" name="L"/>
  <anchor x="968" y="1050" name="O"/>
  <anchor x="557" y="1050" name="U"/>
  <anchor x="1027" y="50" name="V"/>
  <outline>
    <contour>
      <point x="1087" y="876" type="curve"/>
      <point x="987" y="590"/>
      <point x="874" y="261"/>
      <point x="799" y="-3" type="curve"/>
      <point x="833" y="-34" type="line"/>
      <point x="865" y="-16"/>
      <point x="938" y="36"/>
      <point x="960" y="67" type="curve"/>
      <point x="1027" y="315"/>
      <point x="1122" y="616"/>
      <point x="1243" y="960" type="curve"/>
      <point x="1234" y="1000" type="line"/>
      <point x="1196" y="978"/>
      <point x="1140" y="935"/>
    </contour>
    <contour>
      <point x="645" y="626"/>
      <point x="907" y="686"/>
      <point x="907" y="865" type="curve" smooth="yes"/>
      <point x="907" y="973"/>
      <point x="798" y="994"/>
      <point x="715" y="994" type="curve" smooth="yes"/>
      <point x="451" y="994"/>
      <point x="161" y="703"/>
      <point x="161" y="459" type="curve" smooth="yes"/>
      <point x="161" y="340"/>
      <point x="238" y="270"/>
      <point x="348" y="270" type="curve" smooth="yes"/>
      <point x="458" y="270"/>
      <point x="556" y="340"/>
      <point x="599" y="383" type="curve"/>
      <point x="605" y="403"/>
      <point x="599" y="417"/>
      <point x="578" y="429" type="curve"/>
      <point x="546" y="429"/>
      <point x="524" y="376"/>
      <point x="430" y="376" type="curve" smooth="yes"/>
      <point x="351" y="376"/>
      <point x="311" y="417"/>
      <point x="311" y="496" type="curve" smooth="yes"/>
      <point x="311" y="639"/>
      <point x="503" y="906"/>
      <point x="644" y="906" type="curve" smooth="yes"/>
      <point x="695" y="906"/>
      <point x="763" y="886"/>
      <point x="763" y="830" type="curve" smooth="yes"/>
      <point x="763" y="668"/>
      <point x="492" y="588"/>
      <point x="492" y="420" type="curve" smooth="yes"/>
      <point x="492" y="326"/>
      <point x="581" y="270"/>
      <point x="661" y="270" type="curve" smooth="yes"/>
      <point x="811" y="270"/>
      <point x="882" y="319"/>
      <point x="1004" y="412" type="curve"/>
      <point x="1013" y="493" type="line"/>
      <point x="891" y="402"/>
      <point x="846" y="386"/>
      <point x="762" y="386" type="curve" smooth="yes"/>
      <point x="711" y="386"/>
      <point x="645" y="393"/>
      <point x="645" y="452" type="curve" smooth="yes"/>
    </contour>
  </outline>
</glyph>
<glyph name="ma-limb" format="2">
  <advance width="969"/>
  <unicode hex="1914"/>
  <anchor x="811" y="945" name="K"/>
  <anchor x="455" y="-90" name="L"/>
  <anchor x="1132" y="945" name="O"/>
  <anchor x="791" y="945" name="U"/>
  <anchor x="891" y="45" name="V"/>
  <outline>
    <contour>
      <point x="927" y="788" type="curve"/>
      <point x="805" y="785" type="line"/>
      <point x="604" y="661"/>
      <point x="264" y="392"/>
      <point x="123" y="240" type="curve"/>
      <point x="138" y="213" type="line"/>
      <point x="301" y="214"/>
      <point x="620" y="106"/>
      <point x="802" y="-31" type="curve"/>
      <point x="833" y="-14"/>
      <point x="894" y="35"/>
      <point x="914" y="63" type="curve"/>
      <point x="974" y="286"/>
      <point x="1049" y="528"/>
      <point x="1159" y="837" type="curve"/>
      <point x="1148" y="873" type="line"/>
      <point x="415" y="873" type="line"/>
      <point x="383" y="854"/>
      <point x="339" y="824"/>
      <point x="309" y="797" type="curve"/>
      <point x="325" y="761" type="line"/>
      <point x="1005" y="761" type="line"/>
      <point x="909" y="481"/>
      <point x="839" y="281"/>
      <point x="803" y="131" type="curve"/>
      <point x="840" y="142" type="line"/>
      <point x="669" y="230"/>
      <point x="497" y="308"/>
      <point x="306" y="325" type="curve"/>
      <point x="320" y="300" type="line"/>
      <point x="436" y="432"/>
      <point x="683" y="628"/>
    </contour>
  </outline>
</glyph>
<glyph name="ya-limb" format="2">
  <advance width="850"/>
  <unicode hex="1915"/>
  <anchor x="773" y="1050" name="K"/>
  <anchor x="391" y="-100" name="L"/>
  <anchor x="998" y="1050" name="O"/>
  <anchor x="764" y="1050" name="U"/>
  <anchor x="804" y="50" name="V"/>
  <outline>
    <contour>
      <point x="462" y="970" type="line"/>
      <point x="428" y="949"/>
      <point x="385" y="915"/>
      <point x="354" y="885" type="curve"/>
      <point x="368" y="845" type="line"/>
      <point x="867" y="845" type="line"/>
      <point x="850" y="875" type="line"/>
      <point x="715" y="770"/>
      <point x="604" y="687"/>
      <point x="483" y="577" type="curve"/>
      <point x="493" y="549" type="line"/>
      <point x="544" y="572"/>
      <point x="577" y="580"/>
      <point x="618" y="580" type="curve" smooth="yes"/>
      <point x="795" y="580"/>
      <point x="807" y="450"/>
      <point x="776" y="356" type="curve" smooth="yes"/>
      <point x="730" y="213"/>
      <point x="583" y="87"/>
      <point x="422" y="86" type="curve" smooth="yes"/>
      <point x="274" y="85"/>
      <point x="212" y="179"/>
      <point x="235" y="248" type="curve" smooth="yes"/>
      <point x="252" y="297"/>
      <point x="294" y="334"/>
      <point x="351" y="334" type="curve" smooth="yes"/>
      <point x="572" y="334"/>
      <point x="545" y="44"/>
      <point x="745" y="-34" type="curve"/>
      <point x="770" y="-12"/>
      <point x="820" y="55"/>
      <point x="838" y="85" type="curve"/>
      <point x="619" y="126"/>
      <point x="695" y="433"/>
      <point x="436" y="433" type="curve" smooth="yes"/>
      <point x="293" y="433"/>
      <point x="150" y="322"/>
      <point x="112" y="207" type="curve" smooth="yes"/>
      <point x="74" y="89"/>
      <point x="129" y="-34"/>
      <point x="335" y="-34" type="curve" smooth="yes"/>
      <point x="636" y="-34"/>
      <point x="885" y="303"/>
      <point x="925" y="427" type="curve" smooth="yes"/>
      <point x="977" y="585"/>
      <point x="904" y="695"/>
      <point x="784" y="694" type="curve"/>
      <point x="742" y="694"/>
      <point x="729" y="696"/>
      <point x="651" y="659" type="curve"/>
      <point x="678" y="654" type="line"/>
      <point x="797" y="762"/>
      <point x="901" y="830"/>
      <point x="1044" y="930" type="curve"/>
      <point x="1033" y="970" type="line"/>
    </contour>
  </outline>
</glyph>
<glyph name="ra-limb" format="2">
  <advance width="1006"/>
  <unicode hex="1916"/>
  <anchor x="520" y="1050" name="K"/>
  <anchor x="503" y="-100" name="L"/>
  <anchor x="767" y="1050" name="O"/>
  <anchor x="503" y="1050" name="U"/>
  <anchor x="880" y="50" name="V"/>
  <outline>
    <contour>
      <point x="132" y="970" type="line"/>
      <point x="103" y="949"/>
      <point x="66" y="915"/>
      <point x="42" y="885" type="curve"/>
      <point x="73" y="845" type="line"/>
      <point x="769" y="845" type="line"/>
      <point x="736" y="867" type="line"/>
      <point x="474" y="668"/>
      <point x="182" y="277"/>
      <point x="40" y="-4" type="curve"/>
      <point x="62" y="-34" type="line"/>
      <point x="104" y="-26"/>
      <point x="184" y="0"/>
      <point x="217" y="19" type="curve"/>
      <point x="365" y="344"/>
      <point x="605" y="623"/>
      <point x="944" y="930" type="curve"/>
      <point x="920" y="970" type="line"/>
    </contour>
    <contour>
      <point x="440" y="404" type="line"/>
      <point x="457" y="424"/>
      <point x="466" y="431"/>
      <point x="488" y="431" type="curve" smooth="yes"/>
      <point x="593" y="431"/>
      <point x="786" y="11"/>
      <point x="861" y="-34" type="curve"/>
      <point x="899" y="-15"/>
      <point x="955" y="30"/>
      <point x="994" y="84" type="curve"/>
      <point x="892" y="178"/>
      <point x="688" y="550"/>
      <point x="581" y="550" type="curve" smooth="yes"/>
      <point x="568" y="550"/>
      <point x="551" y="539"/>
      <point x="541" y="526" type="curve" smooth="yes"/>
    </contour>
  </outline>
</glyph>
<glyph name="la-limb" format="2">
  <advance width="1097"/>
  <unicode hex="1917"/>
  <anchor x="905" y="1050" name="K"/>
  <anchor x="498" y="-100" name="L"/>
  <anchor x="1222" y="1050" name="O"/>
  <anchor x="872" y="1050" name="U"/>
  <anchor x="951" y="50" name="V"/>
  <outline>
    <contour>
      <point x="535" y="1000" type="curve"/>
      <point x="502" y="979"/>
      <point x="417" y="920"/>
      <point x="386" y="889" type="curve"/>
      <point x="360" y="838"/>
      <point x="336" y="781"/>
      <point x="326" y="750" type="curve" smooth="yes"/>
      <point x="218" y="415"/>
      <point x="428" y="360"/>
      <point x="552" y="360" type="curve" smooth="yes"/>
      <point x="673" y="360"/>
      <point x="808" y="432"/>
      <point x="932" y="540" type="curve"/>
      <point x="932" y="541"/>
      <point x="923" y="577"/>
      <point x="923" y="578" type="curve"/>
      <point x="873" y="548"/>
      <point x="745" y="490"/>
      <point x="657" y="490" type="curve" smooth="yes"/>
      <point x="467" y="490"/>
      <point x="375" y="607"/>
      <point x="476" y="844" type="curve"/>
      <point x="446" y="807" type="line"/>
      <point x="475" y="773"/>
      <point x="564" y="712"/>
      <point x="720" y="712" type="curve" smooth="yes"/>
      <point x="829" y="712"/>
      <point x="976" y="751"/>
      <point x="1129" y="864" type="curve"/>
      <point x="1099" y="875" type="line"/>
      <point x="1001" y="578"/>
      <point x="892" y="274"/>
      <point x="814" y="-3" type="curve"/>
      <point x="848" y="-34" type="line"/>
      <point x="880" y="-16"/>
      <point x="952" y="36"/>
      <point x="973" y="67" type="curve"/>
      <point x="1041" y="315"/>
      <point x="1137" y="616"/>
      <point x="1259" y="960" type="curve"/>
      <point x="1249" y="1000" type="line"/>
      <point x="1081" y="907"/>
      <point x="938" y="854"/>
      <point x="820" y="854" type="curve" smooth="yes"/>
      <point x="692" y="854"/>
      <point x="607" y="901"/>
    </contour>
  </outline>
</glyph>
<glyph name="wa-limb" format="2">
  <advance width="920"/>
  <unicode hex="1918"/>
  <anchor x="856" y="945" name="K"/>
  <anchor x="431" y="-90" name="L"/>
  <anchor x="1083" y="945" name="O"/>
  <anchor x="767" y="945" name="U"/>
  <anchor x="844" y="45" name="V"/>
  <outline>
    <contour>
      <point x="968" y="788" type="curve"/>
      <point x="883" y="531"/>
      <point x="777" y="235"/>
      <point x="709" y="-3" type="curve"/>
      <point x="709" y="-3"/>
      <point x="742" y="-33"/>
      <point x="744" y="-31" type="curve"/>
      <point x="776" y="-14"/>
      <point x="848" y="32"/>
      <point x="867" y="60" type="curve"/>
      <point x="927" y="284"/>
      <point x="1013" y="554"/>
      <point x="1122" y="864" type="curve"/>
      <point x="1111" y="900" type="line"/>
      <point x="1074" y="880"/>
      <point x="1020" y="842"/>
    </contour>
    <contour>
      <point x="381" y="433" type="curve" smooth="yes"/>
      <point x="336" y="290"/>
      <point x="389" y="209"/>
      <point x="531" y="209" type="curve" smooth="yes"/>
      <point x="723" y="209"/>
      <point x="856" y="366"/>
      <point x="881" y="393" type="curve"/>
      <point x="918" y="496" type="line"/>
      <point x="873" y="448"/>
      <point x="749" y="309"/>
      <point x="631" y="309" type="curve" smooth="yes"/>
      <point x="549" y="309"/>
      <point x="481" y="351"/>
      <point x="522" y="478" type="curve" smooth="yes"/>
      <point x="554" y="581"/>
      <point x="605" y="732"/>
      <point x="654" y="864" type="curve"/>
      <point x="643" y="900" type="line"/>
      <point x="597" y="878"/>
      <point x="546" y="836"/>
      <point x="498" y="795" type="curve"/>
      <point x="350" y="586"/>
      <point x="249" y="444"/>
      <point x="58" y="233" type="curve"/>
      <point x="76" y="209" type="line"/>
      <point x="123" y="224"/>
      <point x="159" y="249"/>
      <point x="202" y="285" type="curve"/>
      <point x="274" y="387"/>
      <point x="410" y="575"/>
      <point x="468" y="661" type="curve"/>
      <point x="480" y="717" type="line"/>
      <point x="466" y="688"/>
      <point x="416" y="543"/>
    </contour>
  </outline>
</glyph>
<glyph name="sha-limb" format="2">
  <advance width="960"/>
  <unicode hex="1919"/>
  <anchor x="775" y="945" name="K"/>
  <anchor x="450" y="-90" name="L"/>
  <anchor x="910" y="945" name="O"/>
  <anchor x="811" y="945" name="U"/>
  <anchor x="609" y="45" name="V"/>
  <outline>
    <contour>
      <point x="896" y="873" type="line"/>
      <point x="863" y="854"/>
      <point x="822" y="824"/>
      <point x="792" y="797" type="curve"/>
      <point x="808" y="761" type="line"/>
      <point x="1109" y="761" type="line"/>
      <point x="1161" y="783"/>
      <point x="1189" y="805"/>
      <point x="1232" y="837" type="curve"/>
      <point x="1221" y="873" type="line"/>
    </contour>
    <contour>
      <point x="786" y="368" type="curve" smooth="yes"/>
      <point x="820" y="472"/>
      <point x="855" y="599"/>
      <point x="933" y="835" type="curve"/>
      <point x="792" y="797" type="line"/>
      <point x="733" y="617"/>
      <point x="694" y="472"/>
      <point x="651" y="344" type="curve"/>
      <point x="591" y="157"/>
      <point x="524" y="86"/>
      <point x="421" y="86" type="curve" smooth="yes"/>
      <point x="368" y="86"/>
      <point x="335" y="102"/>
      <point x="310" y="127" type="curve" smooth="yes"/>
      <point x="266" y="170"/>
      <point x="277" y="217"/>
      <point x="320" y="351" type="curve" smooth="yes"/>
      <point x="364" y="487"/>
      <point x="424" y="671"/>
      <point x="491" y="864" type="curve"/>
      <point x="474" y="900" type="line"/>
      <point x="429" y="878"/>
      <point x="380" y="844"/>
      <point x="332" y="799" type="curve"/>
      <point x="269" y="596"/>
      <point x="189" y="348"/>
      <point x="168" y="285" type="curve" smooth="yes"/>
      <point x="125" y="152"/>
      <point x="116" y="86"/>
      <point x="179" y="26" type="curve" smooth="yes"/>
      <point x="212" y="-7"/>
      <point x="257" y="-31"/>
      <point x="326" y="-31" type="curve" smooth="yes"/>
      <point x="460" y="-31"/>
      <point x="705" y="125"/>
    </contour>
  </outline>
</glyph>
<glyph name="ssa-limb" format="2">
  <advance width="758"/>
  <unicode hex="191A"/>
  <anchor x="737" y="1050" name="K"/>
  <anchor x="346" y="-100" name="L"/>
  <anchor x="955" y="1050" name="O"/>
  <anchor x="720" y="1050" name="U"/>
  <anchor x="682" y="50" name="V"/>
  <outline>
    <contour>
      <point x="230" y="568" type="curve" smooth="yes"/>
      <point x="167" y="375"/>
      <point x="232" y="257"/>
      <point x="372" y="257" type="curve" smooth="yes"/>
      <point x="533" y="257"/>
      <point x="808" y="477"/>
      <point x="874" y="678" type="curve" smooth="yes"/>
      <point x="935" y="866"/>
      <point x="871" y="990"/>
      <point x="713" y="990" type="curve" smooth="yes"/>
      <point x="665" y="990"/>
      <point x="587" y="968"/>
      <point x="509" y="920" type="curve" smooth="yes"/>
      <point x="407" y="858"/>
      <point x="290" y="755"/>
    </contour>
    <contour>
      <point x="383" y="645" type="curve" smooth="yes"/>
      <point x="444" y="832"/>
      <point x="550" y="879"/>
      <point x="608" y="879" type="curve" smooth="yes"/>
      <point x="727" y="879"/>
      <point x="814" y="817"/>
      <point x="749" y="617" type="curve" smooth="yes"/>
      <point x="725" y="543"/>
      <point x="571" y="370"/>
      <point x="466" y="370" type="curve" smooth="yes"/>
      <point x="370" y="370"/>
      <point x="328" y="476"/>
    </contour>
    <contour>
      <point x="835" y="876" type="curve"/>
      <point x="740" y="590"/>
      <point x="621" y="261"/>
      <point x="545" y="-3" type="curve"/>
      <point x="547" y="-6"/>
      <point x="571" y="-30"/>
      <point x="579" y="-34" type="curve"/>
      <point x="611" y="-16"/>
      <point x="685" y="36"/>
      <point x="706" y="67" type="curve"/>
      <point x="774" y="315"/>
      <point x="871" y="616"/>
      <point x="991" y="960" type="curve"/>
      <point x="981" y="1000" type="line"/>
      <point x="944" y="978"/>
      <point x="889" y="935"/>
    </contour>
  </outline>
</glyph>
<glyph name="sa-limb" format="2">
  <advance width="973"/>
  <unicode hex="191B"/>
  <anchor x="881" y="1050" name="K"/>
  <anchor x="454" y="-100" name="L"/>
  <anchor x="1170" y="1050" name="O"/>
  <anchor x="863" y="1050" name="U"/>
  <anchor x="899" y="50" name="V"/>
  <outline>
    <contour>
      <point x="922" y="67" type="curve"/>
      <point x="1004" y="354"/>
      <point x="1058" y="502"/>
      <point x="1140" y="754" type="curve" smooth="yes"/>
      <point x="1202" y="941"/>
      <point x="1185" y="980"/>
      <point x="1089" y="980" type="curve" smooth="yes"/>
      <point x="956" y="980"/>
      <point x="793" y="972"/>
      <point x="665" y="989" type="curve"/>
      <point x="626" y="953" type="line"/>
      <point x="633" y="863" type="line"/>
      <point x="754" y="854"/>
      <point x="872" y="855"/>
      <point x="957" y="854" type="curve" smooth="yes"/>
      <point x="1014" y="853"/>
      <point x="1020" y="808"/>
      <point x="961" y="636" type="curve" smooth="yes"/>
      <point x="886" y="420"/>
      <point x="808" y="196"/>
      <point x="750" y="-3" type="curve"/>
      <point x="750" y="-3"/>
      <point x="784" y="-34"/>
      <point x="784" y="-34" type="curve"/>
      <point x="816" y="-16"/>
      <point x="901" y="37"/>
    </contour>
    <contour>
      <point x="311" y="822"/>
      <point x="234" y="682"/>
      <point x="234" y="519" type="curve" smooth="yes"/>
      <point x="234" y="393"/>
      <point x="308" y="307"/>
      <point x="425" y="307" type="curve" smooth="yes"/>
      <point x="678" y="307"/>
      <point x="789" y="539"/>
      <point x="789" y="778" type="curve" smooth="yes"/>
      <point x="789" y="899"/>
      <point x="727" y="990"/>
      <point x="639" y="990" type="curve" smooth="yes"/>
      <point x="598" y="990"/>
      <point x="547" y="974"/>
      <point x="469" y="924" type="curve" smooth="yes"/>
    </contour>
    <contour>
      <point x="376" y="711"/>
      <point x="452" y="874"/>
      <point x="554" y="874" type="curve" smooth="yes"/>
      <point x="625" y="874"/>
      <point x="638" y="791"/>
      <point x="638" y="698" type="curve" smooth="yes"/>
      <point x="638" y="590"/>
      <point x="615" y="420"/>
      <point x="517" y="420" type="curve" smooth="yes"/>
      <point x="439" y="420"/>
      <point x="376" y="480"/>
      <point x="376" y="590" type="curve" smooth="yes"/>
    </contour>
  </outline>
</glyph>
<glyph name="ha-limb" format="2">
  <advance width="1030"/>
  <unicode hex="191C"/>
  <anchor x="600" y="1050" name="K"/>
  <anchor x="515" y="-100" name="L"/>
  <anchor x="870" y="1050" name="O"/>
  <anchor x="540" y="1050" name="U"/>
  <anchor x="870" y="50" name="V"/>
  <outline>
    <contour>
      <point x="1011" y="855" type="line"/>
      <point x="1040" y="894"/>
      <point x="1068" y="907"/>
      <point x="1137" y="930" type="curve"/>
      <point x="1127" y="970" type="line"/>
      <point x="667" y="970" type="line"/>
      <point x="633" y="949"/>
      <point x="610" y="914"/>
      <point x="585" y="882" type="curve"/>
      <point x="550" y="855" type="line"/>
    </contour>
    <contour>
      <point x="666" y="970" type="line"/>
      <point x="374" y="893"/>
      <point x="118" y="592"/>
      <point x="118" y="314" type="curve" smooth="yes"/>
      <point x="118" y="92"/>
      <point x="295" y="-32"/>
      <point x="498" y="-32" type="curve" smooth="yes"/>
      <point x="626" y="-32"/>
      <point x="753" y="16"/>
      <point x="901" y="115" type="curve"/>
      <point x="889" y="164" type="line"/>
      <point x="774" y="109"/>
      <point x="681" y="84"/>
      <point x="590" y="84" type="curve" smooth="yes"/>
      <point x="432" y="84"/>
      <point x="275" y="164"/>
      <point x="275" y="361" type="curve" smooth="yes"/>
      <point x="275" y="531"/>
      <point x="408" y="916"/>
      <point x="828" y="930" type="curve"/>
    </contour>
    <contour>
      <point x="981" y="380" type="curve"/>
      <point x="971" y="410" type="line"/>
      <point x="899" y="440"/>
      <point x="751" y="511"/>
      <point x="658" y="560" type="curve"/>
      <point x="664" y="530" type="line"/>
      <point x="790" y="625"/>
      <point x="1012" y="793"/>
      <point x="1137" y="930" type="curve"/>
      <point x="1067" y="942" type="line"/>
      <point x="907" y="801"/>
      <point x="740" y="677"/>
      <point x="490" y="492" type="curve"/>
      <point x="498" y="454" type="line"/>
      <point x="571" y="409"/>
      <point x="739" y="336"/>
      <point x="860" y="293" type="curve"/>
      <point x="901" y="316"/>
      <point x="947" y="347"/>
    </contour>
  </outline>
</glyph>
<glyph name="gyan-limb" format="2">
  <advance width="925"/>
  <unicode hex="191D"/>
  <anchor x="872" y="1050" name="K"/>
  <anchor x="489" y="-100" name="L"/>
  <anchor x="1079" y="1050" name="O"/>
  <anchor x="863" y="1050" name="U"/>
  <anchor x="668" y="50" name="V"/>
  <outline>
    <contour>
      <point x="696" y="11" type="curve"/>
      <point x="772" y="167"/>
      <point x="970" y="352"/>
      <point x="970" y="556" type="curve" smooth="yes"/>
      <point x="970" y="641"/>
      <point x="901" y="673"/>
      <point x="790" y="673" type="curve" smooth="yes"/>
      <point x="734" y="673"/>
      <point x="655" y="652"/>
      <point x="570" y="623" type="curve"/>
      <point x="533" y="595"/>
      <point x="483" y="549"/>
      <point x="441" y="503" type="curve"/>
      <point x="537" y="535"/>
      <point x="641" y="553"/>
      <point x="697" y="553" type="curve" smooth="yes"/>
      <point x="775" y="553"/>
      <point x="818" y="523"/>
      <point x="818" y="460" type="curve" smooth="yes"/>
      <point x="818" y="318"/>
      <point x="641" y="106"/>
      <point x="519" y="-4" type="curve"/>
      <point x="530" y="-34" type="line"/>
      <point x="569" y="-28"/>
      <point x="654" y="-8"/>
    </contour>
    <contour>
      <point x="472" y="970" type="line"/>
      <point x="437" y="950"/>
      <point x="395" y="925"/>
      <point x="364" y="895" type="curve"/>
      <point x="377" y="855" type="line"/>
      <point x="1060" y="855" type="line"/>
      <point x="1112" y="879"/>
      <point x="1142" y="894"/>
      <point x="1184" y="930" type="curve"/>
      <point x="1175" y="970" type="line"/>
    </contour>
    <contour>
      <point x="543" y="903" type="line"/>
      <point x="465" y="675"/>
      <point x="384" y="437"/>
      <point x="326" y="237" type="curve"/>
      <point x="326" y="237"/>
      <point x="358" y="203"/>
      <point x="360" y="206" type="curve"/>
      <point x="392" y="224"/>
      <point x="465" y="276"/>
      <point x="486" y="307" type="curve"/>
      <point x="534" y="481"/>
      <point x="596" y="680"/>
      <point x="671" y="903" type="curve"/>
    </contour>
  </outline>
</glyph>
<glyph name="tra-limb" format="2">
  <advance width="872"/>
  <unicode hex="191E"/>
  <anchor x="809" y="1050" name="K"/>
  <anchor x="427" y="-100" name="L"/>
  <anchor x="1034" y="1050" name="O"/>
  <anchor x="800" y="1050" name="U"/>
  <anchor x="826" y="50" name="V"/>
  <outline>
    <contour>
      <point x="821" y="297"/>
      <point x="570" y="78"/>
      <point x="400" y="78" type="curve" smooth="yes"/>
      <point x="284" y="78"/>
      <point x="256" y="157"/>
      <point x="256" y="186" type="curve" smooth="yes"/>
      <point x="256" y="266"/>
      <point x="324" y="321"/>
      <point x="401" y="321" type="curve" smooth="yes"/>
      <point x="596" y="321"/>
      <point x="550" y="46"/>
      <point x="768" y="-34" type="curve"/>
      <point x="801" y="1"/>
      <point x="835" y="45"/>
      <point x="860" y="86" type="curve"/>
      <point x="662" y="98"/>
      <point x="692" y="413"/>
      <point x="459" y="413" type="curve" smooth="yes"/>
      <point x="266" y="413"/>
      <point x="145" y="263"/>
      <point x="145" y="132" type="curve" smooth="yes"/>
      <point x="145" y="56"/>
      <point x="215" y="-34"/>
      <point x="342" y="-34" type="curve" smooth="yes"/>
      <point x="651" y="-34"/>
      <point x="946" y="328"/>
      <point x="946" y="530" type="curve" smooth="yes"/>
      <point x="946" y="614"/>
      <point x="876" y="673"/>
      <point x="742" y="673" type="curve" smooth="yes"/>
      <point x="635" y="673"/>
      <point x="784" y="673"/>
      <point x="577" y="673" type="curve"/>
      <point x="642" y="627" type="line"/>
      <point x="674" y="725"/>
      <point x="731" y="900"/>
      <point x="732" y="904" type="curve"/>
      <point x="593" y="904" type="line"/>
      <point x="589" y="900"/>
      <point x="536" y="734"/>
      <point x="492" y="593" type="curve"/>
      <point x="495" y="580"/>
      <point x="496" y="568"/>
      <point x="506" y="553" type="curve"/>
      <point x="580" y="553"/>
      <point x="613" y="553"/>
      <point x="674" y="553" type="curve" smooth="yes"/>
      <point x="759" y="553"/>
      <point x="821" y="541"/>
      <point x="821" y="447" type="curve" smooth="yes"/>
    </contour>
    <contour>
      <point x="431" y="970" type="line"/>
      <point x="397" y="949"/>
      <point x="354" y="915"/>
      <point x="324" y="885" type="curve"/>
      <point x="337" y="845" type="line"/>
      <point x="1010" y="845" type="line"/>
      <point x="1062" y="870"/>
      <point x="1092" y="894"/>
      <point x="1135" y="930" type="curve"/>
      <point x="1125" y="970" type="line"/>
    </contour>
  </outline>
</glyph>
<glyph name="akar-limb" format="2">
  <unicode hex="1920"/>
  <anchor x="172" y="1250" name="K"/>
  <anchor x="-109" y="1050" name="_U"/>
  <outline>
    <contour>
      <point x="-281" y="1215" type="curve"/>
      <point x="-190" y="1207" type="line"/>
      <point x="-120" y="1251"/>
      <point x="-81" y="1298"/>
      <point x="-67" y="1342" type="curve" smooth="yes"/>
      <point x="-43" y="1416"/>
      <point x="-82" y="1455"/>
      <point x="-137" y="1455" type="curve" smooth="yes"/>
      <point x="-261" y="1455"/>
      <point x="-395" y="1361"/>
      <point x="-437" y="1232" type="curve" smooth="yes"/>
      <point x="-458" y="1167"/>
      <point x="-435" y="1095"/>
      <point x="-335" y="1095" type="curve" smooth="yes"/>
      <point x="215" y="1095" type="line"/>
      <point x="267" y="1120"/>
      <point x="295" y="1144"/>
      <point x="338" y="1180" type="curve"/>
      <point x="330" y="1220" type="line"/>
      <point x="-255" y="1220" type="line"/>
      <point x="-306" y="1201"/>
      <point x="-337" y="1237"/>
      <point x="-321" y="1285" type="curve" smooth="yes"/>
      <point x="-309" y="1324"/>
      <point x="-262" y="1370"/>
      <point x="-228" y="1370" type="curve" smooth="yes"/>
      <point x="-190" y="1370"/>
      <point x="-173" y="1345"/>
      <point x="-188" y="1300" type="curve" smooth="yes"/>
      <point x="-202" y="1256"/>
      <point x="-246" y="1215"/>
    </contour>
  </outline>
</glyph>
<glyph name="ikar-limb" format="2">
  <unicode hex="1921"/>
  <anchor x="383" y="0" name="_adv"/>
  <outline>
    <contour>
      <point x="384" y="970" type="line"/>
      <point x="351" y="942"/>
      <point x="304" y="901"/>
      <point x="274" y="880" type="curve"/>
      <point x="289" y="845" type="line"/>
      <point x="560" y="845" type="line"/>
      <point x="612" y="870"/>
      <point x="642" y="893"/>
      <point x="684" y="929" type="curve"/>
      <point x="675" y="970" type="line"/>
    </contour>
    <contour>
      <point x="68" y="1264" type="curve" smooth="yes"/>
      <point x="41" y="1182"/>
      <point x="68" y="1119"/>
      <point x="132" y="1013" type="curve"/>
      <point x="161" y="1023"/>
      <point x="181" y="1030"/>
      <point x="212" y="1047" type="curve"/>
      <point x="172" y="1129"/>
      <point x="161" y="1177"/>
      <point x="176" y="1222" type="curve" smooth="yes"/>
      <point x="193" y="1276"/>
      <point x="280" y="1301"/>
      <point x="403" y="1301" type="curve" smooth="yes"/>
      <point x="545" y="1301"/>
      <point x="596" y="1273"/>
      <point x="580" y="1222" type="curve" smooth="yes"/>
      <point x="564" y="1174"/>
      <point x="510" y="1088"/>
      <point x="330" y="920" type="curve"/>
      <point x="328" y="919"/>
      <point x="380" y="902"/>
      <point x="414" y="932" type="curve" smooth="yes"/>
      <point x="594" y="1089"/>
      <point x="697" y="1182"/>
      <point x="724" y="1264" type="curve" smooth="yes"/>
      <point x="755" y="1360"/>
      <point x="667" y="1426"/>
      <point x="444" y="1426" type="curve" smooth="yes"/>
      <point x="228" y="1426"/>
      <point x="98" y="1358"/>
    </contour>
  </outline>
</glyph>
<glyph name="ukar-limb" format="2">
  <unicode hex="1922"/>
  <anchor x="-150" y="-15" name="_G"/>
  <anchor x="-100" y="50" name="_V"/>
  <outline>
    <contour>
      <point x="-714" y="-479" type="curve" smooth="yes"/>
      <point x="-369" y="-479"/>
      <point x="-128" y="-207"/>
      <point x="-50" y="150" type="curve"/>
      <point x="-208" y="83" type="line"/>
      <point x="-298" y="-212"/>
      <point x="-411" y="-387"/>
      <point x="-614" y="-387" type="curve" smooth="yes"/>
      <point x="-708" y="-387"/>
      <point x="-758" y="-364"/>
      <point x="-758" y="-321" type="curve" smooth="yes"/>
      <point x="-758" y="-277"/>
      <point x="-708" y="-226"/>
      <point x="-654" y="-226" type="curve" smooth="yes"/>
      <point x="-630" y="-226"/>
      <point x="-600" y="-244"/>
      <point x="-600" y="-277" type="curve" smooth="yes"/>
      <point x="-600" y="-321"/>
      <point x="-645" y="-373"/>
      <point x="-705" y="-373" type="curve" smooth="yes"/>
      <point x="-734" y="-373"/>
      <point x="-747" y="-364"/>
      <point x="-758" y="-334" type="curve"/>
      <point x="-754" y="-378"/>
      <point x="-732" y="-403"/>
      <point x="-684" y="-424" type="curve"/>
      <point x="-590" y="-393"/>
      <point x="-476" y="-282"/>
      <point x="-476" y="-226" type="curve" smooth="yes"/>
      <point x="-476" y="-165"/>
      <point x="-537" y="-143"/>
      <point x="-582" y="-143" type="curve" smooth="yes"/>
      <point x="-695" y="-143"/>
      <point x="-872" y="-274"/>
      <point x="-872" y="-378" type="curve" smooth="yes"/>
      <point x="-872" y="-428"/>
      <point x="-841" y="-479"/>
    </contour>
  </outline>
</glyph>
<glyph name="eekar-limb" format="2">
  <advance width="504"/>
  <unicode hex="1923"/>
  <outline>
    <contour>
      <point x="549" y="660" type="curve"/>
      <point x="446" y="422"/>
      <point x="260" y="199"/>
      <point x="44" y="19" type="curve"/>
      <point x="51" y="7"/>
      <point x="77" y="-35"/>
      <point x="91" y="-43" type="curve"/>
      <point x="328" y="118"/>
      <point x="624" y="464"/>
      <point x="713" y="710" type="curve" smooth="yes"/>
      <point x="731" y="760"/>
      <point x="738" y="800"/>
      <point x="738" y="838" type="curve" smooth="yes"/>
      <point x="738" y="918"/>
      <point x="679" y="963"/>
      <point x="599" y="963" type="curve" smooth="yes"/>
      <point x="440" y="963"/>
      <point x="271" y="815"/>
      <point x="271" y="680" type="curve" smooth="yes"/>
      <point x="271" y="608"/>
      <point x="331" y="583"/>
      <point x="381" y="583" type="curve" smooth="yes"/>
      <point x="428" y="583"/>
      <point x="500" y="604"/>
      <point x="557" y="651" type="curve"/>
      <point x="583" y="759" type="line"/>
      <point x="571" y="720"/>
      <point x="505" y="683"/>
      <point x="465" y="683" type="curve" smooth="yes"/>
      <point x="424" y="683"/>
      <point x="400" y="705"/>
      <point x="400" y="733" type="curve" smooth="yes"/>
      <point x="400" y="787"/>
      <point x="469" y="860"/>
      <point x="526" y="860" type="curve" smooth="yes"/>
      <point x="566" y="860"/>
      <point x="588" y="837"/>
      <point x="588" y="799" type="curve" smooth="yes"/>
      <point x="588" y="767"/>
      <point x="567" y="702"/>
    </contour>
  </outline>
</glyph>
<glyph name="aikar-limb" format="2">
  <advance width="998"/>
  <unicode hex="1924"/>
  <outline>
    <component base="eekar-limb"/>
    <contour>
      <point x="857" y="560" type="curve" smooth="yes"/>
      <point x="896" y="560"/>
      <point x="943" y="572"/>
      <point x="1001" y="617" type="curve"/>
      <point x="1034" y="737" type="line"/>
      <point x="1021" y="699"/>
      <point x="953" y="667"/>
      <point x="921" y="667" type="curve" smooth="yes"/>
      <point x="889" y="667"/>
      <point x="868" y="690"/>
      <point x="868" y="720" type="curve" smooth="yes"/>
      <point x="868" y="779"/>
      <point x="929" y="838"/>
      <point x="983" y="838" type="curve" smooth="yes"/>
      <point x="1021" y="838"/>
      <point x="1041" y="819"/>
      <point x="1041" y="779" type="curve" smooth="yes"/>
      <point x="1041" y="766"/>
      <point x="1039" y="752"/>
      <point x="1034" y="737" type="curve"/>
      <point x="969" y="599" type="line"/>
      <point x="844" y="415"/>
      <point x="679" y="246"/>
      <point x="301" y="30" type="curve"/>
      <point x="305" y="12"/>
      <point x="316" y="-21"/>
      <point x="328" y="-34" type="curve"/>
      <point x="644" y="100"/>
      <point x="1188" y="517"/>
      <point x="1188" y="827" type="curve" smooth="yes"/>
      <point x="1188" y="898"/>
      <point x="1149" y="947"/>
      <point x="1072" y="947" type="curve" smooth="yes"/>
      <point x="932" y="947"/>
      <point x="734" y="796"/>
      <point x="734" y="658" type="curve" smooth="yes"/>
      <point x="734" y="586"/>
      <point x="793" y="560"/>
    </contour>
  </outline>
</glyph>
<glyph name="ekar-limb" format="2">
  <unicode hex="1927"/>
  <anchor x="96" y="1125" name="K"/>
  <anchor x="37" y="945" name="_O"/>
  <outline>
    <contour>
      <point x="-327" y="1235" type="curve"/>
      <point x="-282" y="1159"/>
      <point x="-148" y="1011"/>
      <point x="-29" y="949" type="curve"/>
      <point x="5" y="968"/>
      <point x="18" y="983"/>
      <point x="41" y="999" type="curve"/>
      <point x="-36" y="1085"/>
      <point x="-147" y="1240"/>
      <point x="-187" y="1317" type="curve"/>
      <point x="-235" y="1297"/>
      <point x="-290" y="1265"/>
    </contour>
  </outline>
</glyph>
<glyph name="okar-limb" format="2">
  <unicode hex="1928"/>
  <anchor x="290" y="1310" name="K"/>
  <anchor x="136" y="945" name="_O"/>
  <outline>
    <contour>
      <point x="-148" y="1103" type="line"/>
      <point x="-81" y="1154"/>
      <point x="-48" y="1173"/>
      <point x="-20" y="1173" type="curve" smooth="yes"/>
      <point x="18" y="1173"/>
      <point x="51" y="1046"/>
      <point x="65" y="919" type="curve"/>
      <point x="113" y="937"/>
      <point x="157" y="959"/>
      <point x="198" y="981" type="curve"/>
      <point x="385" y="1197"/>
      <point x="549" y="1336"/>
      <point x="687" y="1394" type="curve"/>
      <point x="680" y="1434" type="line"/>
      <point x="541" y="1386"/>
      <point x="365" y="1248"/>
      <point x="168" y="1053" type="curve"/>
      <point x="221" y="1040" type="line"/>
      <point x="166" y="1286"/>
      <point x="142" y="1285"/>
      <point x="89" y="1285" type="curve" smooth="yes"/>
      <point x="35" y="1285"/>
      <point x="-76" y="1213"/>
      <point x="-161" y="1134" type="curve"/>
    </contour>
  </outline>
</glyph>
<glyph name="subya-limb" format="2">
  <advance width="429"/>
  <unicode hex="1929"/>
  <anchor x="-134" y="-40" name="G"/>
  <outline>
    <contour>
      <point x="531" y="355" type="line"/>
      <point x="350" y="250"/>
      <point x="260" y="55"/>
      <point x="219" y="55" type="curve" smooth="yes"/>
      <point x="163" y="55"/>
      <point x="272" y="262"/>
      <point x="192" y="258" type="curve" smooth="yes"/>
      <point x="112" y="254"/>
      <point x="-25" y="155"/>
      <point x="-128" y="59" type="curve"/>
      <point x="-101" y="18" type="line"/>
      <point x="-47" y="68"/>
      <point x="38" y="134"/>
      <point x="70" y="134" type="curve" smooth="yes"/>
      <point x="123" y="134"/>
      <point x="-11" y="-94"/>
      <point x="134" y="-94" type="curve" smooth="yes"/>
      <point x="206" y="-94"/>
      <point x="247" y="-32"/>
      <point x="385" y="153" type="curve" smooth="yes"/>
      <point x="442" y="229"/>
      <point x="485" y="278"/>
      <point x="540" y="314" type="curve"/>
    </contour>
  </outline>
</glyph>
<glyph name="subra-limb" format="2">
  <unicode hex="192A"/>
  <outline>
    <contour>
      <point x="-424" y="-274" type="line"/>
      <point x="-340" y="-215"/>
      <point x="-236" y="-136"/>
      <point x="-147" y="-47" type="curve"/>
      <point x="-185" y="-37" type="line"/>
      <point x="-170" y="-155"/>
      <point x="-156" y="-220"/>
      <point x="-82" y="-274" type="curve"/>
      <point x="-43" y="-250"/>
      <point x="-10" y="-218"/>
      <point x="16" y="-172" type="curve"/>
      <point x="-28" y="-130"/>
      <point x="-51" y="-42"/>
      <point x="-55" y="51" type="curve"/>
      <point x="-58" y="52"/>
      <point x="-81" y="64"/>
      <point x="-88" y="68" type="curve"/>
      <point x="-224" y="-57"/>
      <point x="-312" y="-143"/>
      <point x="-444" y="-246" type="curve"/>
    </contour>
  </outline>
</glyph>
<glyph name="subwa-limb" format="2">
  <advance width="427"/>
  <unicode hex="192B"/>
  <anchor x="-133" y="-36" name="G"/>
  <outline>
    <contour>
      <point x="213" y="292" type="curve" smooth="yes"/>
      <point x="134" y="289"/>
      <point x="1" y="185"/>
      <point x="-143" y="43" type="curve"/>
      <point x="-108" y="6" type="line"/>
      <point x="-33" y="87"/>
      <point x="98" y="194"/>
      <point x="132" y="194" type="curve" smooth="yes"/>
      <point x="150" y="194"/>
      <point x="149" y="181"/>
      <point x="144" y="166" type="curve" smooth="yes"/>
      <point x="128" y="117"/>
      <point x="66" y="51"/>
      <point x="47" y="-8" type="curve" smooth="yes"/>
      <point x="36" y="-41"/>
      <point x="56" y="-71"/>
      <point x="105" y="-71" type="curve" smooth="yes"/>
      <point x="176" y="-71"/>
      <point x="253" y="-33"/>
      <point x="298" y="35" type="curve"/>
      <point x="321" y="131" type="line"/>
      <point x="274" y="56"/>
      <point x="224" y="26"/>
      <point x="200" y="26" type="curve" smooth="yes"/>
      <point x="177" y="26"/>
      <point x="175" y="39"/>
      <point x="182" y="60" type="curve" smooth="yes"/>
      <point x="192" y="91"/>
      <point x="243" y="157"/>
      <point x="266" y="225" type="curve" smooth="yes"/>
      <point x="279" y="267"/>
      <point x="259" y="293"/>
    </contour>
    <contour>
      <point x="370" y="-64" type="curve"/>
      <point x="394" y="46"/>
      <point x="412" y="117"/>
      <point x="468" y="262" type="curve"/>
      <point x="445" y="291" type="line"/>
      <point x="416" y="275"/>
      <point x="379" y="251"/>
      <point x="357" y="232" type="curve"/>
      <point x="301" y="80"/>
      <point x="290" y="27"/>
      <point x="248" y="-129" type="curve"/>
      <point x="248" y="-129"/>
      <point x="284" y="-155"/>
      <point x="284" y="-155" type="curve"/>
      <point x="313" y="-134"/>
      <point x="349" y="-92"/>
    </contour>
  </outline>
</glyph>
<glyph name="smallka-limb" format="2">
  <advance width="741"/>
  <unicode hex="1930"/>
  <anchor x="337" y="-100" name="L"/>
  <outline>
    <contour>
      <point x="211" y="970" type="line"/>
      <point x="177" y="949"/>
      <point x="132" y="910"/>
      <point x="101" y="880" type="curve"/>
      <point x="116" y="845" type="line"/>
      <point x="891" y="845" type="line"/>
      <point x="942" y="870"/>
      <point x="972" y="893"/>
      <point x="1016" y="929" type="curve"/>
      <point x="1006" y="970" type="line"/>
    </contour>
    <contour>
      <point x="619" y="881" type="line"/>
      <point x="456" y="840"/>
      <point x="278" y="693"/>
      <point x="228" y="536" type="curve"/>
      <point x="189" y="414"/>
      <point x="274" y="320"/>
      <point x="406" y="320" type="curve" smooth="yes"/>
      <point x="544" y="320"/>
      <point x="752" y="466"/>
      <point x="852" y="585" type="curve"/>
      <point x="839" y="631" type="line"/>
      <point x="743" y="541"/>
      <point x="625" y="463"/>
      <point x="539" y="463" type="curve" smooth="yes"/>
      <point x="444" y="463"/>
      <point x="362" y="519"/>
      <point x="390" y="606" type="curve" smooth="yes"/>
      <point x="425" y="713"/>
      <point x="538" y="825"/>
      <point x="770" y="877" type="curve"/>
    </contour>
  </outline>
</glyph>
<glyph name="smallnga-limb" format="2">
  <advance width="494"/>
  <unicode hex="1931"/>
  <anchor x="214" y="-100" name="L"/>
  <outline>
    <contour>
      <point x="539" y="249" type="curve" smooth="yes"/>
      <point x="576" y="363"/>
      <point x="542" y="450"/>
      <point x="442" y="450" type="curve" smooth="yes"/>
      <point x="312" y="450"/>
      <point x="128" y="310"/>
      <point x="83" y="173" type="curve" smooth="yes"/>
      <point x="45" y="54"/>
      <point x="94" y="-19"/>
      <point x="179" y="-19" type="curve" smooth="yes"/>
      <point x="318" y="-19"/>
      <point x="501" y="133"/>
    </contour>
    <contour>
      <point x="214" y="227" type="curve" smooth="yes"/>
      <point x="231" y="278"/>
      <point x="286" y="340"/>
      <point x="328" y="340" type="curve" smooth="yes"/>
      <point x="397" y="340"/>
      <point x="437" y="294"/>
      <point x="410" y="211" type="curve" smooth="yes"/>
      <point x="392" y="158"/>
      <point x="351" y="100"/>
      <point x="295" y="100" type="curve" smooth="yes"/>
      <point x="231" y="100"/>
      <point x="189" y="149"/>
    </contour>
  </outline>
</glyph>
<glyph name="smallanusvara-limb" format="2">
  <unicode hex="1932"/>
  <anchor x="-517" y="-90" name="_L"/>
  <outline>
    <contour>
      <point x="-392" y="-265" type="curve" smooth="yes"/>
      <point x="-364" y="-179"/>
      <point x="-396" y="-112"/>
      <point x="-479" y="-112" type="curve" smooth="yes"/>
      <point x="-589" y="-112"/>
      <point x="-741" y="-220"/>
      <point x="-775" y="-323" type="curve" smooth="yes"/>
      <point x="-804" y="-413"/>
      <point x="-761" y="-469"/>
      <point x="-689" y="-469" type="curve" smooth="yes"/>
      <point x="-572" y="-469"/>
      <point x="-421" y="-354"/>
    </contour>
    <contour>
      <point x="-666" y="-282" type="curve" smooth="yes"/>
      <point x="-653" y="-243"/>
      <point x="-608" y="-196"/>
      <point x="-572" y="-196" type="curve" smooth="yes"/>
      <point x="-515" y="-196"/>
      <point x="-480" y="-231"/>
      <point x="-501" y="-294" type="curve" smooth="yes"/>
      <point x="-514" y="-335"/>
      <point x="-547" y="-379"/>
      <point x="-594" y="-379" type="curve" smooth="yes"/>
      <point x="-648" y="-379"/>
      <point x="-685" y="-341"/>
    </contour>
  </outline>
</glyph>
<glyph name="smallta-limb" format="2">
  <advance width="478"/>
  <unicode hex="1933"/>
  <outline>
    <contour>
      <point x="-168" y="-240" type="curve"/>
      <point x="-171" y="-249"/>
      <point x="-161" y="-268"/>
      <point x="-155" y="-277" type="curve"/>
      <point x="-57" y="-188"/>
      <point x="41" y="-140"/>
      <point x="86" y="-141" type="curve" smooth="yes"/>
      <point x="193" y="-142"/>
      <point x="236" y="-182"/>
      <point x="290" y="-299" type="curve"/>
      <point x="331" y="-277"/>
      <point x="395" y="-230"/>
      <point x="438" y="-178" type="curve"/>
      <point x="406" y="-76"/>
      <point x="318" y="-20"/>
      <point x="214" y="-19" type="curve" smooth="yes"/>
      <point x="87" y="-17"/>
      <point x="-57" y="-108"/>
    </contour>
  </outline>
</glyph>
<glyph name="smallna-limb" format="2">
  <advance width="708"/>
  <unicode hex="1934"/>
  <anchor x="324" y="-90" name="L"/>
  <outline>
    <contour>
      <point x="184" y="873" type="line"/>
      <point x="152" y="854"/>
      <point x="107" y="819"/>
      <point x="77" y="792" type="curve"/>
      <point x="94" y="761" type="line"/>
      <point x="192" y="761" type="line" smooth="yes"/>
      <point x="280" y="761"/>
      <point x="265" y="600"/>
      <point x="256" y="501" type="curve" smooth="yes"/>
      <point x="245" y="363"/>
      <point x="339" y="321"/>
      <point x="472" y="321" type="curve" smooth="yes"/>
      <point x="622" y="321"/>
      <point x="799" y="445"/>
      <point x="846" y="590" type="curve" smooth="yes"/>
      <point x="879" y="693"/>
      <point x="842" y="743"/>
      <point x="750" y="743" type="curve" smooth="yes"/>
      <point x="644" y="743"/>
      <point x="471" y="634"/>
      <point x="430" y="507" type="curve" smooth="yes"/>
      <point x="412" y="451"/>
      <point x="428" y="422"/>
      <point x="452" y="408" type="curve"/>
      <point x="514" y="383" type="line"/>
      <point x="532" y="383"/>
      <point x="618" y="426"/>
      <point x="619" y="430" type="curve"/>
      <point x="521" y="402"/>
      <point x="513" y="460"/>
      <point x="529" y="509" type="curve" smooth="yes"/>
      <point x="557" y="596"/>
      <point x="626" y="628"/>
      <point x="662" y="629" type="curve" smooth="yes"/>
      <point x="720" y="630"/>
      <point x="731" y="595"/>
      <point x="714" y="542" type="curve" smooth="yes"/>
      <point x="696" y="487"/>
      <point x="628" y="409"/>
      <point x="524" y="409" type="curve" smooth="yes"/>
      <point x="408" y="409"/>
      <point x="358" y="438"/>
      <point x="375" y="596" type="curve" smooth="yes"/>
      <point x="386" y="702"/>
      <point x="394" y="873"/>
      <point x="282" y="873" type="curve" smooth="yes"/>
    </contour>
  </outline>
</glyph>
<glyph name="smallpa-limb" format="2">
  <advance width="676"/>
  <unicode hex="1935"/>
  <anchor x="308" y="-90" name="L"/>
  <outline>
    <contour>
      <point x="722" y="789" type="curve"/>
      <point x="636" y="532"/>
      <point x="529" y="232"/>
      <point x="463" y="-5" type="curve"/>
      <point x="463" y="-5"/>
      <point x="495" y="-31"/>
      <point x="498" y="-31" type="curve"/>
      <point x="529" y="-14"/>
      <point x="600" y="31"/>
      <point x="620" y="58" type="curve"/>
      <point x="680" y="281"/>
      <point x="766" y="554"/>
      <point x="876" y="864" type="curve"/>
      <point x="865" y="900" type="line"/>
      <point x="828" y="880"/>
      <point x="774" y="842"/>
    </contour>
    <contour>
      <point x="184" y="873" type="line"/>
      <point x="151" y="854"/>
      <point x="107" y="819"/>
      <point x="77" y="792" type="curve"/>
      <point x="93" y="761" type="line"/>
      <point x="206" y="761" type="line" smooth="yes"/>
      <point x="428" y="761"/>
      <point x="128" y="353"/>
      <point x="402" y="353" type="curve" smooth="yes"/>
      <point x="514" y="353"/>
      <point x="751" y="518"/>
      <point x="803" y="679" type="curve" smooth="yes"/>
      <point x="866" y="875"/>
      <point x="707" y="740"/>
      <point x="701" y="719" type="curve" smooth="yes"/>
      <point x="662" y="601"/>
      <point x="570" y="462"/>
      <point x="493" y="462" type="curve" smooth="yes"/>
      <point x="292" y="462"/>
      <point x="581" y="873"/>
      <point x="317" y="873" type="curve" smooth="yes"/>
    </contour>
  </outline>
</glyph>
<glyph name="smallma-limb" format="2">
  <advance width="755"/>
  <unicode hex="1936"/>
  <anchor x="348" y="-90" name="L"/>
  <outline>
    <contour>
      <point x="188" y="873" type="line"/>
      <point x="155" y="854"/>
      <point x="111" y="819"/>
      <point x="82" y="792" type="curve"/>
      <point x="98" y="761" type="line"/>
      <point x="237" y="761" type="line" smooth="yes"/>
      <point x="359" y="761"/>
      <point x="286" y="648"/>
      <point x="261" y="572" type="curve" smooth="yes"/>
      <point x="241" y="508"/>
      <point x="309" y="418"/>
      <point x="459" y="418" type="curve" smooth="yes"/>
      <point x="631" y="418"/>
      <point x="875" y="542"/>
      <point x="927" y="702" type="curve" smooth="yes"/>
      <point x="977" y="853"/>
      <point x="914" y="896"/>
      <point x="852" y="896" type="curve" smooth="yes"/>
      <point x="793" y="895"/>
      <point x="726" y="856"/>
      <point x="649" y="800" type="curve" smooth="yes"/>
      <point x="556" y="734"/>
      <point x="527" y="663"/>
      <point x="475" y="508" type="curve"/>
      <point x="458" y="454"/>
      <point x="413" y="260"/>
      <point x="363" y="107" type="curve" smooth="yes"/>
      <point x="349" y="63"/>
      <point x="327" y="10"/>
      <point x="321" y="-7" type="curve"/>
      <point x="332" y="-14"/>
      <point x="343" y="-24"/>
      <point x="355" y="-31" type="curve"/>
      <point x="394" y="-13"/>
      <point x="407" y="-1"/>
      <point x="468" y="50" type="curve"/>
      <point x="479" y="68"/>
      <point x="491" y="96"/>
      <point x="498" y="118" type="curve" smooth="yes"/>
      <point x="552" y="283"/>
      <point x="616" y="548"/>
      <point x="636" y="606" type="curve" smooth="yes"/>
      <point x="684" y="747"/>
      <point x="735" y="779"/>
      <point x="755" y="779" type="curve" smooth="yes"/>
      <point x="794" y="779"/>
      <point x="812" y="732"/>
      <point x="797" y="687" type="curve" smooth="yes"/>
      <point x="760" y="571"/>
      <point x="693" y="528"/>
      <point x="550" y="527" type="curve" smooth="yes"/>
      <point x="461" y="526"/>
      <point x="395" y="588"/>
      <point x="410" y="632" type="curve" smooth="yes"/>
      <point x="445" y="741"/>
      <point x="546" y="873"/>
      <point x="348" y="873" type="curve" smooth="yes"/>
    </contour>
  </outline>
</glyph>
<glyph name="smallra-limb" format="2">
  <advance width="323"/>
  <unicode hex="1937"/>
  <outline>
    <contour>
      <point x="65" y="29" type="curve"/>
      <point x="121" y="-38"/>
      <point x="152" y="-160"/>
      <point x="167" y="-270" type="curve"/>
      <point x="203" y="-248"/>
      <point x="230" y="-230"/>
      <point x="254" y="-213" type="curve"/>
      <point x="260" y="-86"/>
      <point x="246" y="29"/>
      <point x="200" y="113" type="curve"/>
      <point x="151" y="91"/>
      <point x="105" y="63"/>
    </contour>
  </outline>
</glyph>
<glyph name="smallla-limb" format="2">
  <advance width="520"/>
  <unicode hex="1938"/>
  <anchor x="216" y="-90" name="L"/>
  <outline>
    <contour>
      <point x="208" y="581" type="curve" smooth="yes"/>
      <point x="177" y="482"/>
      <point x="194" y="457"/>
      <point x="229" y="416" type="curve" smooth="yes"/>
      <point x="252" y="388"/>
      <point x="276" y="379"/>
      <point x="319" y="379" type="curve" smooth="yes"/>
      <point x="407" y="379"/>
      <point x="629" y="500"/>
      <point x="673" y="635" type="curve" smooth="yes"/>
      <point x="696" y="707"/>
      <point x="727" y="813"/>
      <point x="745" y="868" type="curve"/>
      <point x="733" y="900" type="line"/>
      <point x="683" y="877"/>
      <point x="636" y="840"/>
      <point x="588" y="797" type="curve"/>
      <point x="573" y="746"/>
      <point x="555" y="682"/>
      <point x="539" y="635" type="curve" smooth="yes"/>
      <point x="505" y="530"/>
      <point x="470" y="501"/>
      <point x="435" y="501" type="curve" smooth="yes"/>
      <point x="399" y="501"/>
      <point x="385" y="508"/>
      <point x="363" y="529" type="curve" smooth="yes"/>
      <point x="342" y="550"/>
      <point x="342" y="583"/>
      <point x="365" y="654" type="curve" smooth="yes"/>
      <point x="385" y="716"/>
      <point x="413" y="804"/>
      <point x="434" y="868" type="curve"/>
      <point x="422" y="900" type="line"/>
      <point x="377" y="878"/>
      <point x="325" y="838"/>
      <point x="278" y="797" type="curve"/>
      <point x="260" y="741"/>
      <point x="225" y="637"/>
    </contour>
  </outline>
</glyph>
